<svg xmlns="http://www.w3.org/2000/svg" viewBox="0 0 512 512"><rect width="512" height="512" style="fill:#231f20"/><path d="M200.76,293.6283l37.8264,31.1308-.3489.4971c-.3668-.2138-.7505-.4034-1.0981-.6449q-18.52-12.8628-37.0346-25.7326-4.0107-2.7853-8.0528-5.5257a8.7117,8.7117,0,0,1-3.5748-5.6729c-.3841-1.7607-.6757-3.5482-.8878-5.338-.3744-3.16,2.6112-5.0409,5.8129-3.5984,2.844,1.2813,5.6308,2.6948,8.4086,4.1168,7.3341,3.7544,14.8925,7.1469,21.9088,11.4258,8.1124,4.9474,15.74,10.6893,23.58,16.0833q1.99,1.3692,3.9973,2.7143c1.7263,1.1567,2.2747,1.1548,3.9316-.0412,10.4495-7.5432,20.8647-15.1343,31.35-22.6267q25.5569-18.2615,51.1847-36.4232c.2366-.1683.4633-.3506.87-.6595-.73-.7589-1.3732-1.5253-2.1133-2.1828q-25.2366-22.4211-50.4959-44.8167-15.2919-13.5472-30.6365-27.0356c-1.8-1.5879-2.3139-1.607-4.1018-.0144q-6.4489,5.745-12.8719,11.5193a3.2788,3.2788,0,0,1-.6216.34c-.0571-3.0362,9.8742-13.0412,16.1689-16.3672,4.2369,3.8575,8.4363,7.7969,12.7592,11.5956q22.0584,19.3838,44.1891,38.6848,13.8393,12.0956,27.7354,24.1255a14.2335,14.2335,0,0,0,3.1386,1.5315,3.7222,3.7222,0,0,0-1.5166-3.5213q-27.576-23.6448-55.1178-47.3295c-10.533-9.09-20.9531-18.3108-31.4255-27.471-.367-.3211-.7487-.6257-1.1257-.9352a2.0114,2.0114,0,0,0-2.9986.1255c-2.5139,2.4574-5.0463,4.8963-7.537,7.3769-9.4462,9.4077-18.8246,18.884-28.3285,28.2329-15.768,15.5106-31.6324,30.9231-47.4208,46.4131q-24.7812,24.3126-49.4985,48.69c-4.5917,4.5159-9.2016,9.0134-13.99,13.7025.7557.4737,1.1682.7683,1.6115,1.005q23.6168,12.61,47.2391,25.21,47.3109,25.2344,94.6247,50.4631c3.0985,1.652,6.2368,3.2306,9.3121,4.9241a5.8376,5.8376,0,0,0,6.0853-.0326q42.3015-22.975,84.64-45.8808,29.97-16.2493,59.92-32.5374c.6357-.3453,1.2591-.7133,2.086-1.1832l-15.13-12.5753-.46.1854a4.2159,4.2159,0,0,0,.4908,1.2951c2.6237,3.0875,5.2871,6.1412,7.9386,9.2051.4778.5522.9538,1.1059,1.5781,1.83-1.4758.87-2.8542,1.7445-4.2871,2.5181q-39.525,21.3408-79.0607,42.6623-24.4623,13.2057-48.9145,26.43c-3.95,2.1262-8.0037,4.0579-11.9688,6.1566a3.7009,3.7009,0,0,1-3.8527-.042c-18.4069-10.0522-36.86-20.0195-55.24-30.1215q-44.1782-24.2819-88.2829-48.6974c-.0854-.0471-.1726-.0908-.2577-.1383-2.3632-1.3192-2.3934-1.8369-.5966-3.7809,12.9689-14.0309,27.3092-26.6708,40.7679-40.2054,3.4732-3.4927,7.2114-6.7222,10.8327-10.0673a2.4385,2.4385,0,0,1,1.2679-.6915l-52.1793,52.9922c5.5681,3.0289,10.9985,6.0037,16.4477,8.9438q48.4824,26.1585,96.9864,52.2772c10.3119,5.5322,20.8,10.735,31.1808,16.1407a4.436,4.436,0,0,0,4.5557-.0439q29.5171-16.0109,59.0666-31.9623c18.172-9.7652,36.4186-19.3913,54.6-29.139,8.4252-4.517,16.7737-9.1769,25.1557-13.7742.253-.1388.4927-.3016.9079-.5576-.9992-1.0617-1.93-2.087-2.899-3.0745q-10.4668-10.6644-20.9483-21.3143c-1.8032-1.8327-1.8817-2.4293-.539-4.5457a4.6215,4.6215,0,0,0,.4209-.768c1.5554-3.9636,4.6469-5.6154,8.7109-5.6864a20.5559,20.5559,0,0,1,4.66.34,6.7059,6.7059,0,0,1,3.0582,1.5476c6.0116,5.6505,11.9448,11.3844,17.892,17.1031a11.9185,11.9185,0,0,1,.977,1.2119l-.2353.2932c-.5851-.4252-1.2018-.8134-1.75-1.2816-3.5271-3.0114-6.9987-6.0891-10.5681-9.0491a26.5213,26.5213,0,0,0-10.7818-5.6844c-.2368-.0565-.4732-.1178-.7131-.1563a7.9846,7.9846,0,0,0-.82-.0041l34.0539,34.73c-4.1426,2.2871-8.1232,4.534-12.1478,6.6989q-57.5959,30.9814-115.2062,61.9362-15.0144,8.0674-30.0719,16.0543a3.6829,3.6829,0,0,0-2.2389,3.84q.7257,15.6472,1.3153,31.301c.2969,7.5575.5428,15.117.8115,22.6756.1108,3.118.6856,3.6726,3.8433,3.8656,18.8021,1.1489,37.6017,2.3429,56.4064,3.45,8.7671.5161,17.5435.8754,26.3162,1.2963,2.4012.1152,3.4526.7676,3.9594,2.5211.95,3.2867-.2035,4.7064-3.9248,4.7046q-74.9521-.0358-149.9042-.1223c-10.2956-.0212-20.5936-.3686-30.8834-.7554a32.1485,32.1485,0,0,1-7.2578-1.4923,43.8287,43.8287,0,0,1-5.3068-2.085c-.3259-.1387-.5373-.5464-.8015-.83.2979-.1879.5776-.4974.8966-.5451,3.3746-.5048,6.7418-1.2041,10.1371-1.4021,15.7826-.92,31.5762-1.6486,47.36-2.5435,11.4967-.6519,22.9848-1.4558,34.4768-2.1927,1.7779-.114,2.3447-.6424,2.3844-2.4491.1231-5.6118.1851-11.225.3047-16.8369.2734-12.8321.5422-25.6644.8746-38.4951a4.9007,4.9007,0,0,0-2.8842-4.9211q-41.38-22.3722-82.7162-44.8265Q133.417,341.57,100.6767,323.8366c-3.0289-1.6443-5.9751-3.4409-9.0852-5.24,3.6853-3.8425,7.2149-7.543,10.7666-11.2223q19.6323-20.3375,39.2785-40.6613a15.5149,15.5149,0,0,1,1.3741-1.3166c1.6533-1.3355,2.1274-2.9455,1.0966-5.2027a17.0037,17.0037,0,0,0-2.6037,1.7627c-7.8545,7.75-15.5541,15.6605-23.5368,23.2747-4.69,4.4733-9.8049,8.5018-14.7524,12.7023a7.6168,7.6168,0,0,1-1.5992.8116l-.2461-.2976a9.623,9.623,0,0,1,.979-1.3051q13.94-13.2867,27.8972-26.5546,5.1894-4.9525,10.2688-10.02c1.5754-1.5748,1.4435-2.3919-.3616-3.7768q-8.2509-6.3306-16.5061-12.6554a21.9021,21.9021,0,0,1-1.8767-1.63,2.2411,2.2411,0,0,1-.3289-.7768l.2724-.2891,17.2963,8.2274.3578-.6154-31.4885-22.0232L253.1227,33.19c.4058.5091.7409.9018,1.046,1.3164q29.6406,40.2777,59.27,80.5635,40.766,55.5507,81.4611,111.1534c1.2476,1.7023,1.1621,2.2771-.7617,3.6524q-15.1286,10.8154-30.2756,21.6053-35.3531,25.2071-70.7116,50.4064-18.1312,12.9108-36.3071,25.7589c-2.6532,1.8817-3.1664,1.8981-5.8565.0257q-24.1567-16.8138-48.31-33.6325a14.7277,14.7277,0,0,0-1.6808-.8814Zm42.8558-132.7894.3823.3866c-.4191.4839-.8088.9973-1.2615,1.4475q-21.2388,21.1191-42.4778,42.2381-19.722,19.7354-39.2919,39.6225c-.4573.4617-.8386.9986-1.31,1.5666a3.9486,3.9486,0,0,0,3.9253-1.0761c1.4212-1.4078,2.934-2.7228,4.3647-4.1213q29.8023-29.1311,59.5814-58.286c7.0069-6.874,13.8893-13.8747,20.8383-20.8078,1.6387-1.6349,2.3161-1.6154,4.0964-.1388q8.5683,7.1068,17.1652,14.179c8.2322,6.7425,16.6934,13.2214,24.6933,20.2278,14.5035,12.7024,28.7268,25.7244,43.0953,38.5814,3.2737,2.9293,6.6525,5.7417,10.0028,8.5845,1.5568,1.321,2.6068,1.2938,3.9508-.0641-2.1674-1.8908-4.357-3.75-6.4907-5.6707-12.6239-11.3651-25.0943-22.9055-37.8872-34.0768-14.457-12.6245-28.5118-25.6716-42.3431-38.9678-1.1857-1.14-2.2173-2.44-3.32-3.6655l.3814-.3786c1.732,1.4683,3.4876,2.91,5.1923,4.4088q42.5056,37.381,85,74.7745c1.96,1.7243,2.963,1.7879,5.0676.3612q6.2418-4.2312,12.49-8.4541c2.8595-1.9306,5.7274-3.8486,8.6663-5.8224l-14.5285-21.8153.455-.4077c.4059.52.7712,1.0778,1.2237,1.553a105.2,105.2,0,0,1,14.3657,19c1.2839,2.1676,1.1867,2.7642-.8672,4.197-5.1236,3.5742-10.245,7.1519-15.4,10.6809a6.0178,6.0178,0,0,0-2.6794,5.65c.5377-.3621.9345-.6082,1.3088-.8847q11.3677-8.3975,22.7331-16.7982c2.1606-1.5941,2.24-1.96.6136-4.064-4.21-5.4463-8.5173-10.82-12.63-16.3379-16.454-22.0758-32.7909-44.2389-49.28-66.2885Q290.7232,96.42,257.848,52.7846c-2.0078-2.6746-3.9771-5.3782-6.0308-8.1585-.5145.7944-.8972,1.4666-1.3558,2.0822Q216.82,91.8678,183.169,137.02q-31.7928,42.7-63.5459,85.43c-1.3836,1.86-1.309,2.3464.5332,3.6519q10.2747,7.2817,20.5553,14.5548c2.2334,1.5739,4.513,3.0826,6.7888,4.5952a2.6733,2.6733,0,0,0,.896.2057c-.0121-.3016.0978-.705-.0555-.8889-1.3336-1.5991-2.4763-3.4914-4.1235-4.6713-6.227-4.4607-12.6195-8.6905-18.9565-12.9974-1.9677-1.3373-2.11-2-.6605-3.8693q7.4022-9.5509,14.844-19.0711a19.4884,19.4884,0,0,1,2.1477-2.0348l.3724.3175L126.413,225.2318c.7359.4722,1.3442.8682,1.9581,1.2554q12.5043,7.888,25.0084,15.7767c2.5755,1.6276,3.8019,1.5684,5.9551-.533,14.0468-13.7093,28.2065-27.3061,42.0791-41.19,13.0172-13.0274,26.453-25.5968,40.09-37.9609C242.1793,161.9683,242.9105,161.418,243.6156,160.8389Z" style="fill:#fff;stroke:#fff;stroke-miterlimit:10;stroke-width:4px"/><path d="M385.4288,205.1836c-3.9687-5.2359-8.04-10.4094-11.9-15.7362q-19.5824-27.0261-39.0409-54.1417a13.1934,13.1934,0,0,1-1.0386-1.59c-.1208-.2323-.0224-.5787-.0237-.8733.2771.1047.6606.1275.8142.3272,1.16,1.508,2.2752,3.0506,3.4043,4.5826q24.1006,32.7012,48.1982,65.4047C386.3062,203.7865,387.1785,204.4627,385.4288,205.1836Z" style="fill:#fff;stroke:#fff;stroke-miterlimit:10;stroke-width:4px"/><path d="M141.8351,175.9453,118.4219,205.182l-.449-.0162c-.0224-.3794-.2146-.88-.0427-1.1207,6.86-9.5917,13.2539-19.5544,21.8529-27.7746C140.29,175.7857,140.8345,174.61,141.8351,175.9453Z" style="fill:#fff;stroke:#fff;stroke-miterlimit:10;stroke-width:4px"/><path d="M265.9759,40.9467c6.1281,8.613,12.2876,17.204,18.3556,25.8591a38.1406,38.1406,0,0,1,2.7314,5.16,3.2821,3.2821,0,0,1,.056,1.2543c-.3238-.2012-.7555-.3272-.9558-.6145q-10.4946-15.0606-20.9288-30.1631c-.208-.3011-.12-.8064-.1705-1.2164Z" style="fill:#fff;stroke:#fff;stroke-miterlimit:10;stroke-width:4px"/><path d="M239.79,39.0474l1.2034.9318L219.9324,70.13l-1.37-.8588C225.6236,59.2173,232.6452,49.22,239.79,39.0474Z" style="fill:#fff;stroke:#fff;stroke-miterlimit:10;stroke-width:4px"/></svg>