<?xml version="1.0" encoding="utf-8"?>
<!-- Generator: Adobe Illustrator 19.0.0, SVG Export Plug-In . SVG Version: 6.00 Build 0)  -->
<svg version="1.1" xmlns="http://www.w3.org/2000/svg" xmlns:xlink="http://www.w3.org/1999/xlink" x="0px" y="0px"
	 viewBox="0 0 500 500" style="enable-background:new 0 0 500 500;" xml:space="preserve">
<style type="text/css">
	.st0{fill:#545454;}
	.st1{fill:#252422;}
	.st2{opacity:0.73;}
	.st3{fill:none;}
	.st4{fill:#242424;}
</style>
<g id="Layer_1">
	<g id="XMLID_2_">
	</g>
	<g id="XMLID_3_">
	</g>
	<g id="XMLID_4_">
	</g>
	<g id="XMLID_5_">
	</g>
	<g id="XMLID_6_">
	</g>
	<g id="XMLID_7_">
	</g>
	<path class="st0" d="M250,340c-38.9,0-77.9,0-116.8,0c-1.6,0-1.3,0-1.2-1c0.1-0.6,0.2-1.2,0.3-1.8c0-0.3,0.2-0.4,0.7-0.5
		c0.9-0.1,1.8-0.1,2.6-0.1c42.4,0,84.8,0,127.2,0c26.5,0,53,0,79.5,0c7.4,0,14.9,0,22.3-0.1c0.5,0,1.1,0,1.6,0.1
		c1.2,0.1,1.7,0.6,1.8,1.5c0,0.5,0,1.1,0.2,1.6c0.1,0.3,0,0.4-0.4,0.4c-0.3,0-0.6,0-0.9,0C327.9,340,288.9,340,250,340z"/>
	<g>
		<path class="st1" d="M123.7,402.2c0.1-0.3,0.1-0.6,0.2-0.8c0.4-1.9,1.4-2.9,3.4-3.1c0.6-0.1,1.2-0.1,1.9-0.1c3.8,0,7.6,0,11.5,0
			c1.1,0,2.1,0,3.2,0.1c2.2,0.1,3.5,1.6,3.6,3.8c0.2,3.4,0.1,6.7,0.1,10.1c0,0.9-0.3,1.5-1.1,2c-2.1,1.2-4.1,2.4-6.2,3.7
			c-0.4,0.3-0.6,0.1-0.6-0.3c-0.1-0.6-0.2-1.1-0.2-1.7c0-3-0.1-5.9,0-8.9c0.1-1.7-1.4-2.7-2.9-2.6c-1.1,0.1-2.2,0.3-3.3,0.3
			c-0.6,0-1,0.3-1.2,0.9c-0.2,0.5-0.3,1-0.3,1.6c0,9.5,0,19.1,0,28.6c0,0.1,0,0.2,0,0.2c0,1.7,0.7,2.3,2.4,2.2
			c1-0.1,1.9-0.3,2.8-0.6c1.4-0.5,2.2-1.5,2.3-3c0.1-1.3,0.1-2.6-0.1-3.8c-0.4-3.8,1.5-6.9,5-8.3c0.8-0.3,1.4-0.8,2-1.4
			c0.2-0.2,0.4-0.4,0.7-0.3c0.3,0.2,0.5,0.4,0.5,0.8c0,4,0.2,7.9,0.1,11.9c0,1.3,0,2.5-0.2,3.8c-0.3,2.7-1.8,4.4-4.3,5.3
			c-1.7,0.6-3.5,0.9-5.3,1.4c-2.9,0.8-5.8,1.5-8.6,2.3c-0.8,0.2-1.5,0.3-2.3,0.2c-1.5-0.2-2.5-1-3-2.5c-0.1-0.2-0.1-0.4-0.2-0.5
			C123.7,429.6,123.7,415.9,123.7,402.2z"/>
		<path class="st1" d="M348.9,410.1c0,2,0,4.1,0,6.1c0,0.7-0.1,1.4-0.3,2c-0.3,1.2-0.9,2.1-2,2.6c-1,0.6-1.3,1.3-1,2.4
			c0.4,1.4,0.8,2.8,1.3,4.2c0.9,2.7,1.8,5.4,2.6,8.1c0.4,1.4,1.1,2.5,2,3.6c0.2,0.3,0.4,0.5,0.2,0.9c-0.2,0.3-0.4,0.5-0.8,0.4
			c-3.5-0.7-6.9-1.3-10.4-2c-0.3-0.1-0.6-0.1-0.4-0.6c0.9-1.9,0.9-3.9,0.3-5.8c-1.1-3-1.7-6.2-2.7-9.2c-0.7-2.1-2.1-2.6-4-2.5
			c-0.3,0-0.4,0.1-0.4,0.4c0.3,2.6,0,5.2-0.1,7.8c0,2.5,0.2,4.9,1.2,7.2c0.2,0.4,0.4,0.7,0.5,1c0.1,0.2,0.4,0.4,0.2,0.6
			c-0.2,0.2-0.5,0.1-0.7,0c-1.6-0.3-3.2-0.6-4.8-0.8c-2-0.4-4-0.7-6-1.1c-0.4-0.1-0.5-0.2-0.2-0.5c1.7-1.9,2-4.2,1.7-6.5
			c-0.2-2.7-0.2-5.3-0.2-8c0-4.2,0-8.4,0-12.6c0-1.6-0.1-3.3-0.1-4.9c0-0.9-0.3-1.7-0.5-2.5c-0.8-2.3-1.6-2.5,1.8-2.5
			c4,0,8.1,0.1,12.1,0.1c1.9,0,3.8-0.1,5.7-0.1c0.4,0,0.8,0,1.2,0c2.3,0.3,3.5,1.8,3.6,4.1C348.9,404.9,348.9,407.5,348.9,410.1z
			 M340.6,409.8c0-0.6,0-1.2,0-1.8c0-0.6-0.1-1.2-0.1-1.8c-0.1-1.3-0.6-2.1-1.9-2.5c-0.8-0.3-1.7-0.4-2.5-0.5
			c-1.6-0.2-2.5,0.5-2.7,2.1c-0.3,2.7-0.2,5.4,0,8c0.1,1,0.5,1.5,1.5,1.6c1.4,0.2,2.9,0,4.2-0.2c0.9-0.2,1.2-0.7,1.4-1.6
			C340.6,412.1,340.5,411,340.6,409.8z"/>
		<path class="st1" d="M166.7,437.7c0-0.3,0.2-0.4,0.4-0.5c1.5-1.6,1.9-3.5,1.3-5.6c-0.5-1.9-0.1-1.5-2-1.3c-1.7,0.2-3.3,0.4-5,0.7
			c-1,0.2-1.5,0.8-1.5,1.8c0,1.7,0.4,3.4,0.6,5.2c0.1,1.1,0.1,1.2-1,1.4c-3.4,0.6-6.8,1.3-10.2,2c-0.2,0-0.4,0.1-0.6,0.1
			c-0.1-0.2,0-0.3,0.1-0.4c1.9-2.7,3-5.8,3.4-9c0.9-6.3,2.4-12.4,3.6-18.7c0.9-4.8,1.8-9.5,2.7-14.2c0.1-0.5,0.3-0.7,0.8-0.7
			c3.5,0,7.1,0,10.6,0c0.5,0,0.7,0.2,0.8,0.7c1.3,7.1,2.7,14.2,4.1,21.3c1,5,2.1,9.9,3.6,14.7c0.2,0.8,0.2,0.8-0.6,1
			c-3.5,0.6-7,1.2-10.6,1.8C167.1,437.7,166.9,437.8,166.7,437.7z M167.3,424c0-0.2,0-0.3-0.1-0.5c-0.5-3.3-1.1-6.6-1.6-10
			c-0.4-2.2-0.7-4.4-1.1-6.5c0-0.2,0-0.4-0.3-0.4c-0.2,0-0.2,0.2-0.2,0.4c0,0.1,0,0.2-0.1,0.4c-0.3,1.9-0.6,3.7-0.9,5.6
			c-0.7,3.9-1.3,7.9-2,11.8c-0.1,0.4-0.1,0.6,0.4,0.5c1.8-0.3,3.6-0.6,5.4-0.9C167.1,424.3,167.4,424.2,167.3,424z"/>
		<path class="st1" d="M206.5,407.2c0,1.6,0,3.2,0,4.8c0,2.2-0.6,4-2.7,5.1c-0.6,0.3-0.8,1.2-0.6,2c1.1,3.3,2.3,6.6,3.8,9.7
			c0.5,1,1.5,1.7,2.2,2.6c0.1,0.2,0.4,0.3,0.3,0.5c-0.1,0.3-0.4,0.2-0.7,0.2c-3.6,0.4-7.1,0.7-10.7,1.1c-0.4,0-0.7,0-0.5-0.5
			c0.7-2,0.5-4-0.2-5.9c-0.7-2.1-1.6-4.1-2-6.2c-0.3-1.4-1.1-1.9-2.9-2.1c-1.7-0.1-1.7-0.1-1.7,1.6c0,1.8-0.2,3.6-0.4,5.4
			c-0.2,2.5,0.3,4.9,1,7.2c0.4,1.2,0.3,1.2-0.9,1.4c-2.9,0.4-5.7,0.9-8.6,1.3c-0.3,0-0.7,0.2-0.9-0.2c-0.2-0.4,0-0.7,0.2-0.9
			c0.8-1.2,1.2-2.5,1.3-3.9c0-1,0-2,0-3c0.1-3.9,0.3-7.8,0.3-11.7c0-3.5,0-7,0-10.5c0-2.2-0.4-4.4-1-6.5c-0.2-0.7-0.1-0.8,0.6-0.8
			c3.4,0,6.7-0.1,10.1,0c3.1,0.1,6.2,0,9.4,0.1c0.3,0,0.6,0,0.9,0c2.5,0.1,3.7,1.2,3.8,3.8c0,0.1,0,0.2,0,0.2
			C206.5,403.8,206.5,405.5,206.5,407.2C206.5,407.2,206.5,407.2,206.5,407.2z M193.4,413.1C193.4,413.1,193.4,413.1,193.4,413.1
			c0.6,0,1.2,0,1.9,0c2-0.1,3.1-1.2,3.2-3.2c0-0.8,0-1.6,0-2.4c0.3-3.6-3.2-6.2-6.6-4.7c-0.6,0.3-1,0.7-1,1.4c0,2.8,0,5.6,0,8.4
			c0,0.4,0.2,0.5,0.6,0.5C192.1,413.1,192.7,413.1,193.4,413.1z"/>
		<path class="st1" d="M285.9,416c-0.2-3.2,0.1-6.3,0.2-9.4c0.1-2.7-0.2-5.3-1.3-7.8c-0.2-0.5-0.1-0.6,0.4-0.6c2.9,0,5.7,0,8.6,0
			c0.6,0,0.7,0.2,0.6,0.8c-0.3,1.5-0.6,2.9-0.7,4.4c0,0.4-0.1,0.7-0.1,1.1c0,4.6-0.1,9.2,0,13.8c0.1,3.1,0,6.2,0.1,9.4
			c0,0.9,0.1,1.9,0.1,2.8c0,1.5-0.6,1.9-2,1.8c-1.9-0.3-3.8-0.6-5.6-0.8c-0.5-0.1-0.7-0.3-0.8-0.7c-2.1-5.3-4.1-10.6-6.2-16
			c-0.5-1.3-1-2.6-1.5-3.9c-0.1-0.2-0.1-0.5-0.4-0.7c-0.3,0.4-0.3,0.8-0.3,1.2c0,4.8,0,9.5,0,14.3c0,1.5,0.4,3,1.2,4.3
			c0.4,0.7,0.3,0.8-0.5,0.8c-3.1,0-6.1,0-9.2,0c-0.8,0-0.8-0.1-0.5-0.8c1-2.1,1.4-4.3,1.5-6.6c0.1-2.7-0.3-5.3-0.2-8
			c0.1-2.2,0.2-4.3,0.1-6.5c-0.1-2.4-0.2-4.8-0.4-7.2c-0.1-1-0.4-1.9-0.7-2.8c-0.2-0.4-0.1-0.6,0.4-0.8c0.3-0.1,0.6-0.2,1-0.2
			c3.5,0,6.9,0,10.4,0c0.7,0,0.8,0,0.5,0.7c-0.5,1.5-0.3,3,0.4,4.4c1.7,3.9,3,8,4.6,12C285.4,415.4,285.5,415.8,285.9,416z"/>
		<path class="st1" d="M364.9,413.6c0.4-1.1,0.7-2.2,1.1-3.3c0.9-2.4,1.9-4.8,2.2-7.3c0.2-1.3,0.2-2.7,0-4c-0.1-0.5,0-0.8,0.6-0.7
			c3.1,0,6.1,0,9.2,0c0.7,0,0.7,0.1,0.5,0.7c-2.3,5.8-4.7,11.6-6.8,17.5c-0.8,2.4-1.7,4.7-2.5,7.1c-0.2,0.5-0.3,1.1-0.3,1.6
			c0,4.3,0,8.5,0,12.8c0,2,0.3,3.9,1.3,5.7c0.2,0.3,0.5,0.8,0.3,1.1c-0.2,0.3-0.7,0-1.1-0.1c-2.7-0.5-5.4-1-8.1-1.7
			c-0.4-0.1-0.7-0.1-1.1-0.2c-0.9-0.2-1.2-0.6-0.9-1.5c0.2-0.7,0.5-1.5,0.8-2.2c0.5-1.6,0.7-3.3,0.7-5c0-1.5,0-3.1,0.1-4.6
			c0.3-3.8-0.5-7.4-1.8-10.9c-2-5.3-4.1-10.6-6.2-16c-0.5-1.4-1.4-2.5-2.2-3.7c-0.4-0.6-0.3-0.7,0.4-0.7c3.3,0,6.6,0,9.9,0
			c0.8,0,0.8,0.1,0.6,0.8c-0.7,2.3-0.3,4.5,0.5,6.7c0.5,1.4,1,2.8,1.5,4.1c0.3,0.7,0.4,1.5,0.5,2.2
			C364.3,412.7,364.5,413.2,364.9,413.6z"/>
		<path class="st1" d="M221.9,398c2.9,0,5.8,0,8.7,0c1.2,0,2.4,0,3.6,0.2c1.8,0.3,2.7,1.3,2.8,3.1c0.2,3.9,0,7.8,0,11.6
			c0,2.4-1.3,3.7-4.1,3.9c-2.4,0.2-4.9,0.3-7.3,0.4c-1,0.1-1.9,0.1-2.9,0.1c-1,0.1-1.4,0.4-1.4,1.4c0,2.7-0.2,5.4,0,8.1
			c0,0.7,0.2,1.3,0.5,1.9c0.2,0.5,0.4,0.9,0.6,1.4c0.6,1.2,0.5,1.2-0.8,1.3c-3.1,0.2-6.2,0.3-9.3,0.5c-0.8,0-0.8,0-0.5-0.7
			c1-2.3,1.4-4.7,1.5-7.2c0.1-2.6-0.3-5.2-0.2-7.9c0.1-3.8,0.1-7.5,0.1-11.3c0-1.9-0.2-3.7-0.9-5.5c-0.5-1.5-0.5-1.3,0.9-1.3
			C216.2,398,219,398,221.9,398C221.9,398,221.9,398,221.9,398z M228.9,407.2c0-0.9,0.1-2-0.3-3.1c-0.1-0.4-0.4-0.8-0.9-0.8
			c-1.7-0.2-3.5-0.4-5.2-0.4c-0.4,0-0.6,0.2-0.7,0.6c-0.5,2.5-0.6,5.1-0.3,7.6c0.1,0.9,0.6,1.3,1.5,1.4c1.4,0.1,2.9-0.1,4.3-0.3
			c1-0.2,1.4-0.7,1.5-1.7C228.9,409.5,228.9,408.5,228.9,407.2z"/>
		<path class="st1" d="M251.9,430.5c-3.7,0-7.4,0-11.1,0c-0.2,0-0.5,0.1-0.6-0.1c-0.1-0.2,0.1-0.4,0.2-0.6c1-1.6,1.5-3.4,1.6-5.2
			c0.1-2.5-0.3-5.1-0.2-7.6c0-1.8,0.2-3.7,0.2-5.5c0-3-0.1-6-0.1-9c0-1-0.4-2-0.8-2.9c-0.5-1.4-0.3-1.7,1.2-1.7c2.9,0,5.7-0.1,8.6,0
			c4,0.1,8,0.1,12,0.1c0.6,0,0.8,0.2,0.8,0.8c0.1,1.9,0.1,3.8,0.1,5.7c0,0.6-0.1,0.7-0.6,0.4c-2.4-1.1-4.8-1.9-7.5-2.2
			c-1.7-0.2-3.4-0.1-5.1,0.1c-0.4,0.1-0.6,0.3-0.6,0.7c0,2.5,0,5.1,0,7.6c0,0.5,0.2,0.7,0.7,0.7c2.4-0.2,4.8-0.3,7.2-0.5
			c0.6,0,1.2-0.1,1.7-0.1c0.3,0,0.5,0.1,0.5,0.4c0,1.7,0,3.4,0,5.1c0,0.4-0.2,0.5-0.5,0.4c-2.1-0.2-4.3-0.4-6.4-0.6
			c-0.9-0.1-1.8-0.2-2.7-0.3c-0.4,0-0.6,0.1-0.6,0.5c0,2.5,0,4.9,0,7.4c0,0.9,0.8,1.5,1.9,1.6c3.8,0.3,7.4-0.5,10.9-2.2
			c1-0.5,1-0.5,1,0.6c0,1.8,0,3.6,0,5.3c0,1,0,1-1,1C259.2,430.5,255.6,430.5,251.9,430.5z"/>
		<path class="st1" d="M309.2,398.1c3.6,0,7.3,0,10.9,0c0.9,0,0.9,0,0.9,0.9c0,2.2,0,4.3,0,6.5c0,0.7-0.1,0.7-0.7,0.4
			c-2.1-1.1-4.2-2.2-6.3-3.3c-0.4-0.2-0.6-0.3-0.7,0.3c0,0.4-0.1,0.9-0.1,1.3c0,6.9,0,13.8,0,20.7c0,2.8,0.1,5.5,1,8.2
			c0.3,1,0.2,1.1-0.9,1.1c-2,0.1-4-0.3-6-0.7c-1.2-0.2-2.4-0.4-3.6-0.4c-0.1,0-0.3,0-0.4-0.1c-0.1-0.2,0-0.3,0.1-0.4
			c1.7-2,2.1-4.5,1.9-7c-0.2-2.2-0.2-4.4-0.2-6.6c0-4.2,0-8.3,0-12.5c0-1.2-0.1-2.4-0.1-3.5c0-0.8-0.1-0.8-0.8-0.5
			c-2,0.9-4.1,1.8-6.1,2.6c-0.8,0.4-0.9,0.3-0.9-0.6c0-1.9,0-3.8,0-5.8c0-0.8,0-0.8,0.8-0.8C301.8,398.1,305.5,398.1,309.2,398.1z"
			/>
	</g>
	<g class="st2">
		<path class="st1" d="M108.4,422c-6.8,0-13.6,0.1-20.3,0c-8.1-0.1-16.3-0.4-24.4-0.6c-6.1-0.2-12.3-0.4-18.4-0.5
			c-0.8,0-1.5-0.2-2.2-0.3c-0.3-0.1-0.8-0.1-0.7-0.4c0.1-0.2,0.5-0.2,0.9-0.2c2,0,4.1-0.1,6.1-0.1c6.8-0.2,13.6-0.2,20.5-0.4
			c10.1-0.2,20.3-0.4,30.4-0.6c5.4-0.1,10.7-0.2,16.1-0.4c0.7,0,1.1,0.1,1.2,0.5c0.2,0.5,0.5,1.1,0.6,1.6c0.3,1-0.4,1.6-2.3,1.6
			c-2.5,0-5,0-7.4,0C108.4,422.1,108.4,422.1,108.4,422z"/>
		<path class="st1" d="M384.9,418.5c8.7,0.2,17.4,0.3,26,0.5c4.7,0.1,9.5,0.2,14.2,0.3c8.2,0.2,16.4,0.3,24.6,0.5
			c2.2,0.1,4.4,0.1,6.6,0.1c0.5,0,1.3-0.1,1.3,0.4c0,0.5-0.7,0.5-1.3,0.5c-5.8,0.1-11.6,0.2-17.4,0.3c-10,0.2-19.9,0.4-29.9,0.6
			c-6.8,0.1-13.6,0.3-20.4,0.4c-1.9,0-3.8,0.1-5.7,0.1c-1,0-1.5-0.2-1.6-0.7c-0.1-0.8-0.3-1.7-0.5-2.5c-0.1-0.4,0.2-0.6,0.9-0.6
			C382.8,418.4,383.8,418.4,384.9,418.5C384.9,418.5,384.9,418.5,384.9,418.5z"/>
	</g>
	<g>
		<path class="st1" d="M237.7,53.6c0.7,0.2,1.4,0.3,2.2,0.5c6.1,1.6,9.4,7.8,7.2,13.9c-2,5.5-4.5,10.8-6.8,16.1
			c-1.1,2.5-1,3.2,1,5.1c0.7,0.7,0.7,1.2,0.2,1.9c-0.3,0.5-0.6,0.5-1.1,0.3c-0.9-0.5-1.8-0.9-2.7-1.3c-1.9-0.9-3.8-1.7-5.9-2.1
			c-4-0.8-5.6-3.8-4.4-7.9c0.7-2.5,0.8-2.6-1.7-3.4c-4.1-1.3-5.7-4.3-6.1-8.3c-0.3-3.7,0.5-7.2,2.9-10c2.3-2.7,5.5-3.9,8.9-4.6
			c0.3-0.1,0.5-0.1,0.8-0.2C234.1,53.6,235.9,53.6,237.7,53.6z M234.8,56.9c-3.4-0.1-6.1,1.3-8.2,3.7c-3.6,4-3.4,8.9,0.4,12.2
			c2.5,2.2,6.6,1.5,7.7-1.4c0.8-2.1,0.9-4.2,0.2-6.4c-0.7-2.1-2.1-2.6-4-1.4c-0.3,0.2-0.7,0.4-0.9,0.6c-1.2,1.2-2.7,1.2-4.1,1.4
			c-0.7,0.1-0.7-0.2-0.4-0.7c0.6-1.1,1.3-2.1,2.2-3c3.7-3.9,9.8-3,12.1,1.8c0.6,1.1,0.8,2.3,0.5,3.6c-0.3,1.9-1.2,3.6-2.4,5.1
			c-1.2,1.6-2.6,3.1-3.9,4.5c-0.5,0.6-0.6,1-0.1,1.6c0.7,0.8,1.2,1.8,1.8,2.7c0.9,1.2,1.2,1.2,2-0.1c0.1-0.1,0.1-0.3,0.2-0.5
			c1.3-3.6,2.7-7.1,3.8-10.7c0.7-2.3,1.4-4.6,1.2-7.1c-0.2-2.8-1.9-4.8-4.6-5.5C237.2,57.1,235.9,56.8,234.8,56.9z"/>
		<path class="st1" d="M130.9,91.7c0,4.4,0,8.8,0,13.2c0,0.2,0,0.5,0,0.7c0,0.4,0,0.8,0.4,0.9c0.5,0.2,0.6-0.3,0.8-0.5
			c1.1-1.4,1.3-3.1,1.5-4.8c0.5-3.7,0.7-7.5,1-11.2c0.1-1.4,0.8-2.4,1.9-3.2c1.9-1.3,4-1.7,6.2-2c2-0.3,3.8-0.9,5.3-2.3
			c1.8-1.6,4-1.2,5.2,1c0.6,1,0.8,2.1,0.8,3.2c0,3.4,0,6.9,0,10.3c0,0.3-0.2,0.8,0.2,0.9c0.3,0.1,0.6-0.2,0.9-0.4
			c1-0.7,1.4-1.8,1.6-2.9c0.7-3.3,1.2-6.7,1.6-10.1c0.1-0.8,0.3-1.7,0.5-2.5c0.7-2.1,2.1-3.6,4.3-4.2c2.3-0.7,4.7-0.9,7.1-1.2
			c0.5-0.1,0.7,0.1,0.7,0.7c-0.4,3.6-0.8,7.2-1.3,10.9c-0.2,1.4-0.3,2.8-0.5,4.2c0,0.4-0.2,0.9,0.3,1.1c0.4,0.2,0.7-0.2,1-0.4
			c0.9-0.6,1.4-1.4,1.7-2.4c1.1-3.6,2-7.2,2.5-10.9c0.6-4.4,2.5-5.9,7-6.1c1.7-0.1,1.6-0.1,1.9-1.7c0.4-2.7,0.8-5.4,1.2-8.1
			c0.1-0.4,0.1-0.7,0.3-1.1c0.6-2.1,2.7-2.8,4.5-1.6c0.5,0.3,0.4,0.7,0.3,1.1c-0.7,3.7-1.3,7.4-2,11.2c-1,5.3-1.9,10.6-2.9,15.9
			c-0.1,0.4-0.2,0.8,0.2,1c0.5,0.3,0.8,0,1.1-0.3c1.2-1,2-2.4,2.5-3.9c1-3.1,2-6.2,2.6-9.5c0.6-3.5,2.7-5.6,5.8-6.2
			c1.4-0.2,2.8,0,4,0.6c1.6,0.8,2.5,2.4,2.3,4.2c-0.4,3.1-1.8,5.7-4.1,7.8c-0.9,0.8-1.9,1.2-3.1,1.4c-2.4,0.5-2.8,1.7-1.2,3.6
			c0.4,0.4,0.8,0.6,1.4,0.6c2.4,0,4.2-1.4,5.7-3c1.2-1.3,2.1-2.8,2.9-4.4c0.5-0.8,1-1.7,1.5-2.5c0.1-0.2,0.2-0.5,0.5-0.4
			c0.3,0.1,0.3,0.4,0.3,0.7c0.2,2.8-0.7,5.2-2.3,7.4c-1.4,1.8-2.8,3.6-5,4.5c-2.6,1.1-5.3,0.9-7.9-0.2c-1.5-0.7-2.4-0.5-3.5,0.8
			c-0.2,0.3-0.5,0.5-0.7,0.8c-1.5,1.7-3.2,2.2-5.3,1.3c-0.4-0.2-0.8-0.5-1,0.3c-0.1,0.3-0.6,0.3-0.9,0.4c-2.3,0.4-4.6,0.7-6.9,1.1
			c-0.7,0.1-1.4,0.3-1.9,0.8c-0.6,0.6-1.4,0.8-2.2,0.9c-3.3,0.3-6.4,1.5-9.6,2.3c-2.1,0.5-4.1,1.2-5.8,2.6c-1.3,1.1-2.7,0.8-3.6-0.7
			c-1.5-2.6-1.7-5.4-1.6-8.3c0.1-2.1,0.7-4.3-0.1-6.4c-0.1-0.3-0.1-0.8-0.6-0.9c-0.5-0.1-0.5,0.4-0.8,0.7c-0.9,1.3-1.1,2.7-1.2,4.2
			c-0.4,4-0.7,8.1-0.9,12.1c-0.1,1.8-0.8,2.7-2.2,2.9c-1.2,0.2-1.6-0.1-1.6-1.4c0-3.9,0-7.8,0-11.8c0-0.8,0-1.7,0-2.5
			c0-0.4,0.2-1-0.3-1.2c-0.5-0.2-0.9,0.1-1.3,0.3c-0.9,0.5-1.3,1.4-1.4,2.4c-0.4,4.3-0.6,8.6-0.3,12.9c0.1,0.8,0,1.6-0.2,2.3
			c-0.2,1.1-1.1,1.8-2.4,1.8c-0.8,0-1.5,0.3-2.1,0.7c-1.8,1.3-3.9,1.9-5.9,2.5c-1.7,0.5-3.3,1.1-4.7,2c-0.7,0.5-1.6,0.6-2.4,0.8
			c-1,0.3-1.9,0.6-2.5,1.4c-0.9,1.1-2.1,1.6-3.5,1.2c-1.5-0.4-2.4-1.4-2.8-2.9c-0.4-1.9-0.6-3.8-0.8-5.7c-0.2-2-0.5-4-1.4-5.9
			c-0.1-0.2-0.1-0.5-0.4-0.5c-0.3,0-0.3,0.3-0.5,0.5c-0.8,1.1-1.2,2.4-1.2,3.8c0.1,3.7,0.4,7.3,0.8,10.9c0.2,1.6-0.3,2.8-1.5,3.9
			c-2,1.9-4.2,3.1-6.9,3.6c-1.5,0.3-2.9,1-3.5,2.5c-1.2,2.9-4.8,2.5-6.4,0.2c-0.3-0.5-0.6-1.1-0.7-1.7c-0.8-4.4-1.2-8.8-1.6-13.3
			c-0.2-3.1,0.7-4.5,3.5-5.8c2-0.9,4-1.7,6-2.5c1-0.4,1.1-0.4,1.3,0.7c0.7,4.9,1.4,9.8,2.2,14.7c0.1,0.4,0,0.9,0.5,1
			c0.6,0.1,0.6-0.5,0.8-0.9c1.6-2.9,1.1-6.1,1-9.1c-0.1-2.6-0.4-5.1-0.5-7.7c-0.1-1.5,0.5-2.3,2-2.5c0.9-0.1,1.6-0.5,2.2-1.1
			c0.9-0.8,1.9-1.5,3-1.8c1.9-0.6,3.3,0,4.2,1.8c0.7,1.5,0.8,3.1,0.9,4.7c0.1,2,0.2,4,0.2,6c0,0.5,0.1,1.1,0.3,1.6
			c0.2,0.4,0.3,1.1,0.8,1.1c0.4,0,0.7-0.6,0.9-1c0.6-1,0.5-2.2,0.7-3.2c0.5-3.3,0.7-6.6,0.7-10c-0.1-4.6,1-5.9,5.6-6.8
			c1.7-0.3,1.7-0.3,1.7-2c0-2.9,0-5.8,0-8.7c0-0.3,0-0.5,0-0.8c0.1-2.7,1.5-3.8,4.2-3.2c0.6,0.2,0.5,0.6,0.5,1c0,2.6,0,5.1,0,7.7
			C130.9,87.7,130.9,89.7,130.9,91.7z M122.8,101.4c-0.1,2.7,0.2,5.4,1.1,7.9c0.1,0.2,0.1,0.6,0.4,0.6c0.3,0,0.3-0.3,0.5-0.5
			c1.1-1.8,1.5-3.7,1.5-5.8c0-2.3-0.1-4.5-0.2-6.8c0-0.7-0.4-1.3-0.8-1.8c-0.1-0.2-0.3-0.3-0.5-0.3c-0.6,0-1.9,1.2-1.9,1.9
			C122.9,98.2,122.7,99.8,122.8,101.4z M96.6,119.3c-0.1-3.1-1-6-1.5-9.1c-0.1-0.5-0.5-1-1.1-0.5c-0.8,0.7-1.5,1.4-1.4,2.7
			c0.3,3.7,0.8,7.4,1.2,11c0.1,0.4-0.1,1,0.6,1.1c0.6,0.1,0.9-0.3,1.1-0.8C96.2,122.3,96.5,120.8,96.6,119.3z M182.4,79.9
			c0-0.5,0-1-0.2-1.5c-0.2-0.7-0.6-1.2-1.3-1.2c-0.8,0-1.3,0.5-1.5,1.2c-0.1,0.2-0.1,0.5-0.1,0.7c-0.6,3.7-1.1,7.5-1.6,11.2
			c-0.1,0.5-0.5,1.2,0.2,1.4c0.7,0.2,1-0.5,1.2-1C181,87.4,182,83.8,182.4,79.9z M162.2,91.7c0,1.2,0,2.4,0,3.5c0,0.3,0,0.7,0.4,0.8
			c0.4,0.1,0.6-0.3,0.7-0.5c0.3-0.4,0.5-0.9,0.7-1.3c1.5-3.3,1.6-6.9,1.8-10.4c0.1-0.8-0.5-1.4-0.9-2c-0.1-0.2-0.3-0.3-0.5-0.2
			c-0.9,0.7-1.8,1.3-1.9,2.6C162.3,86.7,162.1,89.2,162.2,91.7z M195,78.8c0,0.7,0.1,1.4,0.2,2.2c0.1,0.6,0.3,0.8,0.9,0.5
			c1.4-0.8,2.4-1.8,2.6-3.5c0.1-0.9-0.1-1.7,0-2.6c0-0.9-0.4-1.1-1.2-0.8C195.7,75,195,76.2,195,78.8z"/>
		<path class="st1" d="M363.5,104.7c2.5,0.1,4.6-0.5,6.3-1.9c2.4-1.8,4.6-3.8,7-5.7c1.3-1.1,2.7-2,4.2-2.8c1.4-0.7,2.9-0.7,4.3,0
			c1.5,0.8,2.6,2,3.5,3.4c0.8,1.2,0.6,2.4-0.1,3.5c-0.9,1.4-2.1,2.5-3.4,3.5c-1.1,0.9-2.2,1.7-3.3,2.5c-0.4,0.3-0.7,0.6-0.3,1.2
			c0.4,0.4,0.5,1,1.4,0.7c3.2-1.1,5.8-3,8-5.5c0.7-0.8,1.6-1.4,2.5-2c1.8-1.2,3.6-1.3,5.5-0.3c1,0.5,1.9,1.1,2.7,1.8
			c0.5,0.4,0.9,0.4,1.4,0.1c1.2-0.6,2.1-1.5,3.1-2.4c1.1-1,2.1-2.2,3.4-3.1c1.9-1.3,4-1.7,6.2-1.2c0.4,0.1,0.9,0,1,0.5
			c0.1,0.4-0.4,0.6-0.6,0.8c-3.6,3.1-7.2,6.3-10.7,9.4c-3.6,3.1-7.1,6.2-10.7,9.4c-0.3,0.2-0.7,0.4-0.5,0.9c0.2,0.5,0.7,0.5,1.1,0.4
			c2.6-0.4,4.8-1.5,6.9-3c2.8-2,5.2-4.4,8-6.4c0.7-0.5,1.2-0.5,1.8,0c0.5,0.4,1,0.7,1.5,1c1.3,0.8,1.3,0.8,0.2,1.8
			c-2.5,2.1-5,4.1-7.5,6.2c-1.3,1.1-2.7,2.2-4,3.3c-0.2,0.2-0.6,0.4-0.5,0.7c0.1,0.4,0.6,0.2,0.9,0.3c1.9,0.1,3.5-0.6,5-1.6
			c3.3-2.1,6.3-4.7,9.2-7.3c0.5-0.5,1-0.6,1.6-0.2c0.9,0.5,1.8,0.9,2.7,1.3c0.7,0.3,0.7,0.6,0.1,1.1c-3.9,3.2-7.8,6.3-11.7,9.5
			c-0.4,0.3-1.3,0.6-0.9,1.3c0.3,0.7,1.1,0.4,1.7,0.3c3.1-0.5,5.5-2.2,8-4c1.4-1,2.8-2.1,4.3-2.9c1.8-1,3.6-1.6,5.7-1.1
			c3.2,0.7,5.4,3.7,4.8,6.7c-0.2,0.9-0.6,1.4-1.4,1.6c-1.2,0.2-2.4,0.5-3.6,0.7c-0.6,0.1-0.7-0.1-0.4-0.6c0.6-1.2,1.2-2.4,1.8-3.6
			c0.3-0.6,0.2-0.8-0.5-0.9c-1.5-0.1-2.9,0.1-4.2,1c-1.7,1.2-3.4,2.4-5,3.8c-0.4,0.3-0.7,0.6-1,1c-1,1-1.5,2.3-1.1,3.6
			c0.3,1.2,1.5,1.5,2.6,1.7c3,0.7,5.8,0,8.5-1.5c2.7-1.4,5-3.5,7.4-5.3c0.3-0.2,0.5-0.5,0.4-0.9c-0.2-0.8,0.2-1.1,0.9-1.4
			c1.9-0.9,3.8-1.8,5.8-2.7c2.1-1,3.9-0.2,5.8,0.5c0.6,0.2,0.6,1.2-0.1,1.8c-1.1,0.8-2.3,1.7-3.5,2.5c-0.7,0.4-0.8,0.9-0.5,1.6
			c0.3,0.7,0.6,1.4,0.8,2.1c0.2,0.5,0,0.9-0.4,1.2c-0.4,0.3-0.7-0.1-1-0.3c-2.2-1.7-3.9-1.9-6.2-0.2c-2.6,2-5.4,3.8-8.1,5.7
			c-0.6,0.4-1.1,1-1.5,1.6c-0.2,0.3-0.4,0.6-0.2,1c0.3,0.4,0.7,0.4,1.1,0.3c2.1-0.6,4.2-1.1,6.3-1.7c1.1-0.3,2.2-0.6,3.2-0.9
			c0.2-0.1,0.5-0.2,0.8,0c0.2,0.3,0.1,0.6-0.1,0.8c-0.4,0.8-1,1.4-1.7,1.9c-2.4,1.7-5,2.6-7.9,2.8c-3.1,0.2-5.2-1.4-6.2-4.3
			c-0.3-0.8-0.7-1.2-1.5-1.2c-1.6-0.1-3.1-0.5-4.6-1c-2.8-1-4.7-2.9-5.2-5.9c-0.1-0.7-0.3-0.9-1-0.7c-3.2,1.1-5.7,0.1-7.7-2.5
			c-0.7-0.9-1.6-1.2-2.7-1.2c-2.4,0-3.6-0.9-4.2-3.3c-0.1-0.6-0.4-0.7-0.9-0.8c-0.9-0.1-1.8-0.1-2.7-0.1c-1.8-0.1-3.2-0.8-3.8-2.7
			c-0.2-0.7-0.6-0.9-1.2-1c-1.4-0.3-2.8-0.4-4.2-0.9c-1.4-0.5-1.8-1.1-1.9-2.5c0-0.7,0-1.4,0-2c0-0.7-0.1-1-0.9-0.8
			c-1.1,0.3-2.3,0.4-3.4,0.9c-4.1,1.7-7.7-0.6-9.2-3.8c-0.5-1-0.9-1.1-1.8-0.6c-0.5,0.3-1.1,0.5-1.7,0.6c-2,0.5-3.5-0.1-4.6-1.6
			c-1.3-1.9-1.4-3.6-0.2-5.4c1.4-2,3.3-3.3,5.1-4.9c1.3-1.3,2.7-2.5,4.1-3.8c0.3-0.3,0.5-0.5,0.2-0.9c-0.3-0.4-0.6-0.6-1.1-0.3
			c-1.2,0.6-2.1,1.4-3,2.4c-1,1.2-2.1,2.3-3.4,3.2c-0.8,0.5-1.7,0.7-2.6,0.9c-0.3,0-0.6,0.1-0.7-0.2c-0.2-0.3,0.1-0.5,0.3-0.7
			c0.7-0.8,1.3-1.5,2.1-2.2c2.2-2.1,3.8-4.6,4.9-7.5c0.6-1.6,1.5-3,3.2-3.8c0.5-0.2,0.8-0.3,1.1,0.2c0.2,0.4,0.5,0.8,0.8,1.2
			c0.4,0.6,0.6,1.1,0,1.8c-0.6,0.7-0.4,1.5,0.1,2.3c0.7,1.1,1.1,2.3,1.2,3.6c0.1,1.5-0.2,2.7-1.2,3.8c-1.3,1.4-2.7,2.6-4,3.8
			C366.1,101.4,364.9,102.9,363.5,104.7z M398.8,105.5c-0.1-0.5,0.2-1.2-0.5-1.5c-0.8-0.4-1.1,0.2-1.6,0.6c-3.2,2.9-6.4,5.9-9.6,8.9
			c-0.2,0.2-0.7,0.4-0.4,0.9c0.3,0.5,0.7,0.5,1.2,0.4c0.9-0.2,1.8-0.5,2.6-0.9c3-1.4,5.2-3.9,7.4-6.2
			C398.5,107.1,399,106.5,398.8,105.5z M383.1,97.7c-0.3,0-0.7,0-1,0.2c-1.5,0.9-2.8,1.9-3.6,3.4c-0.6,1.1-0.8,2.3-0.5,3.6
			c0.2,0.7,0.6,1.1,1.2,1.3c0.5,0.2,0.7-0.4,0.9-0.8c1.2-1.6,2.5-3.2,3.7-4.8c0.3-0.4,0.5-0.7,0.6-1.2
			C384.6,98.3,384.1,97.7,383.1,97.7z M376.2,106c0-0.5-0.4-0.6-0.7-0.8c-0.3-0.2-0.6-0.2-0.8,0.1c-0.4,0.7-0.9,1.3-1.3,2
			c-0.2,0.3-0.1,0.6,0.2,0.8c0.4,0.2,0.9,0.8,1.2,0.4C375.4,107.7,375.8,106.8,376.2,106z"/>
		<path class="st1" d="M274.4,84.9c2.9-2.6,5.2-5.6,6.9-8.9c2.9-5.5,5.6-11.1,8.4-16.6c0.7-1.4,3.1-2.4,4.5-2
			c0.3,0.1,0.4,0.3,0.4,0.6c0.1,1-0.1,2-0.6,2.9c-3.5,6.6-7,13.3-10.5,19.9c-0.5,0.9-0.9,1.9-1.1,2.9c-0.1,0.4-0.4,0.8,0.1,1.1
			c0.4,0.3,0.8-0.1,1.1-0.3c1.1-0.6,1.9-1.5,2.6-2.5c1.7-2.4,3.5-4.9,4.7-7.7c0.2-0.6,0.6-1.1,0.8-1.7c0.7-1.8,2.3-2.3,3.9-2.7
			c0.5-0.1,0.6,0.1,0.7,0.5c0.3,1.5,0.4,2.9-0.4,4.3c-1.7,2.9-3.2,5.8-4.8,8.7c-0.2,0.4-0.5,0.9-0.6,1.4c0,0.4-0.2,0.8,0.2,1
			c0.4,0.2,0.8,0,1.2-0.2c0.3-0.2,0.5-0.4,0.7-0.7c2.6-3.5,5.2-7,7.6-10.6c0.6-0.9,0.8-1.7,0.5-2.7c-0.2-0.6,0-1.1,0.4-1.5
			c1.8-1.6,3.4-3.4,4.9-5.4c1.1-1.5,2.9-1.8,4.5-0.9c0.5,0.3,0.6,0.6,0.3,1.1c-0.8,1.3-1.5,2.7-2.3,4.1c-0.6,1.1-0.6,1.2,0.7,1.6
			c0.5,0.2,1,0.3,1.6,0.5c0.6,0.2,0.8,0.4,0.2,0.9c-0.6,0.4-1.1,0.7-1.8,0.6c-1.9-0.2-3.2,0.6-4.1,2.2c-2,3.4-3.8,6.8-5.8,10.2
			c-0.3,0.6-0.5,1.4-0.1,1.8c0.4,0.5,1.2,0.1,1.8-0.1c2-0.9,3.5-2.3,4.7-4c1.8-2.5,3.5-5.2,5-8c0.5-0.9,3-2.2,3.9-1.9
			c0.2,0,0.3,0.2,0.3,0.3c0.2,1.2,0.5,2.4-0.2,3.5c-1.8,2.9-3.6,5.9-5.4,8.8c-0.5,0.9-0.9,1.8-1,2.8c0,0.3-0.1,0.5,0.2,0.7
			c0.3,0.2,0.5,0,0.7-0.2c1.4-1.1,2.7-2.4,3.7-4c1.8-2.7,3.7-5.4,5.5-8.1c0.7-1,1.5-1.7,2.6-2.2c1.2-0.5,2-0.4,2.7,0.4
			c0.7,0.9,0.3,1.7-0.2,2.4c-2.3,3.3-4.5,6.6-6.8,9.9c-0.4,0.6-0.8,1.3-1.1,2c-0.1,0.3-0.5,0.7-0.1,1c0.4,0.2,0.6-0.2,0.8-0.4
			c2.4-2.1,4.8-4.2,7.2-6.2c0.7-0.6,1.3-0.5,1.6,0.3c0.2,0.5-0.1,0.8-0.3,1.1c-1.9,3.4-4.6,5.8-8.1,7.4c-2.9,1.4-5.8,3-7.9,5.6
			c-0.6,0.7-1.3,1.3-2,1.8c-3.3,2.2-6.8,1.4-8.9-2c-0.1-0.1-0.1-0.2-0.2-0.4c-1.3-2.2-1.3-2.2,0.8-3.8c1.7-1.3,3.5-2.3,5.8-2
			c0.2,0,0.5,0.1,0.6-0.2c0-0.1-0.1-0.3-0.2-0.5c0-0.1-0.1-0.1-0.1-0.2c-0.9-1.4-2-2.1-3.7-1.2c-0.7,0.4-1.6,0.5-2.5,0.5
			c-1.5,0.1-2.7-0.5-3.4-1.7c-0.5-0.8-1-0.8-1.7-0.4c-0.8,0.4-1.5,0.7-2.3,1.1c-2.2,1-3.7,0.5-4.7-1.7c-0.3-0.7-0.7-0.8-1.3-0.5
			c-1,0.5-1.9,1-3,1.3c-1.6,0.4-3,0-3.8-1.5c-0.5-0.8-0.9-1-1.7-0.4c-0.6,0.4-1.2,0.7-1.9,0.9c-1.8,0.7-3.5,0.5-4.9-0.9
			c-0.5-0.5-0.9-0.6-1.6-0.3c-1.6,0.8-3.3,1-4.9,0.3c-3-1.2-6.1-0.9-9.2-0.5c-2,0.2-4,0.4-6,0.5c-1.4,0.1-2-0.5-2.4-1.8
			c-0.3-1.2-0.3-2.4,0.1-3.6c1.3-4.2,2.9-8.4,4.5-12.5c0.8-2,3.1-2.7,4.9-1.6c0.5,0.3,0.2,0.7,0.1,1.1c-1.3,3.5-2.6,6.9-3.9,10.4
			c-0.3,0.8-0.6,1.6-0.9,2.4c-0.1,0.4-0.2,0.8-0.3,1.3c0,0.4-0.1,0.9,0.3,1.1c0.4,0.3,0.8-0.1,1.1-0.3c1.1-0.6,1.7-1.7,2.2-2.8
			c1.7-3.7,3.6-7.3,4.6-11.2c0.6-2.1,2.9-2.9,4.9-2c0.6,0.3,0.3,0.7,0.2,1.1c-1.1,2.7-2.1,5.3-3.2,8c-0.9,2.1-1.7,4.2-2.5,6.3
			c-0.1,0.3-0.4,0.6-0.1,0.9c0.3,0.3,0.6,0,0.9-0.1c0.7-0.2,1.2-0.7,1.6-1.3c2.3-3.6,4.5-7.1,6.5-10.8c0.2-0.4,0.5-0.8,0.7-1.2
			c1.8-2.7,3.5-3.4,6.6-2.4c1.7,0.5,3.4,0.6,5.2,0.8c1.1,0.1,1.2,0.2,0.9,1.3c-0.5,2.1-1.6,4.1-2.6,6c-1.4,2.6-2.8,5.2-3.1,8.3
			C274.3,84.1,274.2,84.4,274.4,84.9z M266.6,83.6c0.6,0.1,1-0.2,1.3-0.8c0.8-1.5,1.7-3,2.5-4.5c1.1-2.1,2.2-4.2,3.3-6.3
			c0.3-0.6,0.2-1.1-0.2-1.5c-0.4-0.5-0.9-0.2-1.4,0c-0.4,0.2-0.6,0.5-0.8,0.9c-1.8,3.7-3.6,7.4-5.4,11.1
			C265.5,83.5,265.5,83.6,266.6,83.6z M302.9,97.8c0.6,0,1.5-0.1,2.2-0.5c0.6-0.4,1.3-2,1-2.5c-0.5-0.7-1.2,0-1.7-0.1
			c-0.1,0-0.2,0-0.3,0.1c-0.9,0.2-1.8,0.5-2.3,1.4C301.2,97.4,301.4,97.8,302.9,97.8z"/>
		<path class="st1" d="M69.8,146.8c-0.1-0.4,0.1-0.5,0.2-0.7c2.5-3.3,3.1-6.9,2.4-10.9c-0.4-2-0.9-4-1.4-6c-0.2-0.7-0.6-1-1.3-0.9
			c-2.4,0.3-4.4-0.9-6.4-1.9c-0.5-0.2-0.4-0.6-0.2-1c0.5-1,0.9-2,1.4-3c0.7-1.6,1.8-2.7,3.4-3.2c0.7-0.2,1-0.6,0.8-1.4
			c-0.3-1.3-0.5-2.6-0.6-3.9c-0.1-0.9-0.5-1.1-1.3-1c-0.9,0.1-1.8,0.3-2.6,0.6c-3.7,1.4-6.6,3.7-8.8,7c-0.4,0.7-0.7,1.4-1,2.2
			c-0.1,0.2-0.1,0.4-0.2,0.6c-0.3,0.9-1.1,1.6-1.9,1.9c-0.6,0.2-0.7-0.9-1.1-1.4c-1.3-1.5-1.1-2.8,0-4.5c2.3-3.5,5.3-6.1,9.1-8
			c3.4-1.7,6.9-3.2,10.4-4.9c0.8-0.4,0.9-0.1,1,0.6c0.4,3.1,0.9,6.1,1.4,9.2c0.2,1.4,0.9,2.3,2.2,2.8c1.6,0.6,3.2,1.2,4.7,1.8
			c0.6,0.3,0.7,0.1,0.6-0.5c-0.6-4.2-1.2-8.4-2-12.5c-0.7-3.6,0.2-6.8,2.7-9.6c0.9-1,2.7-1.3,3.8-0.8c0.7,0.4,0.1,0.7-0.1,0.9
			c-1.5,1.9-2.3,4.1-2.2,6.6c0,1.3,0.1,2.6,0.4,3.8c1.3,5.6,1.9,11.3,2.6,17c0.2,1.2,0.5,2.3,0.9,3.4c0.7,2.3-0.8,3.9-1.9,5.5
			c-0.3,0.5-0.6-0.1-0.8-0.3c-1.4-1.7-2.2-3.7-3.1-5.7c-0.7-1.6-1.4-3.1-2.1-4.7c-0.2-0.6-0.5-0.6-0.9-0.2c-2.1,1.8-2.8,4.1-2.3,6.8
			c0.3,1.9,1.3,3.7,1.4,5.7c0.3,3.6-1.1,6.7-3.5,9.3C72.6,146.8,71.1,146.7,69.8,146.8z"/>
		<path class="st1" d="M351.2,69.2c4.8,0.2,8.7,1.7,12.2,4.3c2.6,1.9,3.6,6.1,2.2,9.3c-1.4,3.4-3.2,6.6-6,9
			c-2.5,2.2-5.4,3.3-8.7,3.2c-1.7-0.1-3-1-4.2-2c-0.8-0.7-1.2-0.5-1.8,0.2c-1.7,2.1-3.5,4.1-5.4,6.1c-0.6,0.7-1.3,0.9-2.2,0.6
			c-2.6-0.7-2.6-0.7-1.1-2.8c2.5-3.4,5-6.8,7.5-10.2c1.3-1.7,1.2-2.3-0.3-3.8c-1.3-1.3-1.9-2.9-1.9-4.7c0-4.9,2.9-8.2,7.7-8.8
			C350,69.3,350.8,69.2,351.2,69.2z M351.6,91.1c0.7,0,1.4,0,2-0.5c2.1-1.8,4.1-3.7,5.9-5.8c0.7-0.9,1.4-1.8,1.9-2.9
			c1-2.3,0.6-4.6-1.2-6.4c-2.7-2.8-5.9-3.5-9.6-2.6c-3.6,1-5.3,4.5-4,8c0.3,0.8,0.7,0.8,1.3,0.3c1.1-0.9,1.8-2,2.6-3.1
			c1.6-1.8,3.5-2.2,5.6-1.3c0.7,0.3,0.7,0.6,0.3,1.1c-1,1.3-2,2.6-3,3.9c-1,1.4-1.3,1.5,0.6,1.7c0.9,0.1,1.4,0.5,1.4,1.4
			c0,0.9-0.8,0.8-1.3,1c-1.7,0.5-3.4,1.2-4.9,2.2c-0.7,0.4-0.7,0.9-0.4,1.6C349.5,91.1,350.5,91.1,351.6,91.1z"/>
		<path class="st1" d="M297.6,68.3c-1-0.3-1.7-1-2.1-1.9c-0.4-0.7,0.1-1.2,0.6-1.7c0.6-0.6,1.3-1.2,1.9-1.8c0.4-0.4,0.7-0.3,1,0
			c0.7,0.7,1.3,1.4,2,2.2c0.2,0.2,0.4,0.5,0.1,0.7c-0.9,1-1.8,1.9-3,2.4C297.9,68.2,297.8,68.2,297.6,68.3z"/>
	</g>
	<g>
		<path class="st1" d="M144,210.8c0.8,1.8,1,3.4,0.5,5c-0.5,1.6-1.3,3-2.6,4.2c-1.2,1.3-2.7,2.3-4.4,3.2c-1.7,0.9-3.5,1.4-5.2,1.7
			c-3,0.5-6.5,0.6-10.5,0.4c-4-0.2-8.3-0.7-12.8-1.3c-4.5-0.6-9.1-1.3-13.8-2.1c-4.7-0.8-9.2-1.5-13.4-2.1c-3.6,4-7.2,8.1-10.8,12.4
			c-3.6,4.2-7,8.5-10.2,12.9c-3.2,4.4-6.2,8.9-8.9,13.5c-2.7,4.6-5,9.3-6.9,14c-1.9,4.7-3.3,9.5-4.3,14.4c-1,4.9-1.3,9.8-0.9,14.8
			c-0.1,0.7-0.8,1.1-1.9,1c-1.2-0.1-2.4-0.3-3.8-0.8c-1.4-0.5-2.7-1.1-3.9-1.8c-1.2-0.8-1.9-1.4-2.1-2c-0.3-6.8,0.1-13.2,1.2-19
			c1.2-5.9,2.9-11.5,5.3-16.9c-0.3-8-2.7-14.5-7.1-19.7c-4.5-5.2-10.7-8.6-18.7-10.4c-2-2.2-2.8-4.4-2.3-6.4c0.4-2,1.8-3.5,4.3-4.5
			c3.5-1.6,7.1-2.9,11-4c3.8-1.1,7.8-2,12-2.7c4.2-0.7,8.4-1.3,12.8-1.7c4.4-0.4,8.7-0.8,13.2-1.1c5.6-0.3,11.3-0.5,17.1-0.4
			c5.8,0.1,11.4,0.3,16.9,0.6c5.5,0.3,10.8,0.6,15.9,0.9c5.1,0.3,9.8,0.5,14.1,0.6c4.4,0,8.3-0.1,11.7-0.5
			C138.9,212.5,141.8,211.8,144,210.8z M39.1,253.1c3.4-6.2,7.3-12.1,11.7-17.7s9-11.3,13.7-17c-7.8-0.1-15.6,0.4-23.4,1.5
			c-7.8,1.1-15,2.8-21.6,5.2c-1.8,0.6-3,1.1-3.7,1.5c-0.7,0.4-1,0.7-0.8,1c0.1,0.3,0.6,0.7,1.5,1.1c0.9,0.4,2,1,3.3,1.6
			c2.8,1.4,5.3,2.9,7.5,4.3c2.2,1.5,4.1,3.1,5.7,4.9c1.6,1.8,2.9,3.8,3.9,6C37.8,247.7,38.6,250.3,39.1,253.1z"/>
		<path class="st1" d="M73.4,253.1c0.2-0.4,1-0.6,2.5-0.5c1.4,0.1,3,0.3,4.6,0.7c1.6,0.4,3.1,0.8,4.3,1.3c1.3,0.5,1.8,0.9,1.6,1.3
			c-3.5,5.3-6.6,10.7-9,16.1c-2.5,5.4-4.4,11.3-5.7,17.8c-0.3,1.6-0.1,2.4,0.7,2.4c0.8,0,1.9-0.5,3.1-1.3c1.3-0.8,2.6-1.8,3.9-3
			c1.3-1.2,2.3-2.1,3-2.8c1.8-2.1,3.7-4.4,5.6-6.9c1.9-2.5,3.8-5,5.6-7.7c1.8-2.6,3.6-5.2,5.3-7.8c1.7-2.6,3.3-5.1,4.9-7.5
			c0.4-0.3,0.8-0.4,1.3-0.4c0.5,0,0.9,0.1,1.3,0.2c0.4,0.1,0.7,0.4,0.9,0.7c0.2,0.3,0.2,0.7,0,1.1c-2.6,3.7-5.1,7.7-7.6,12
			c-2.5,4.4-5,8.5-7.6,12.5c-2.6,3.9-5.1,7.4-7.8,10.4c-2.6,3-5.4,4.8-8.2,5.7c-5.3-0.2-9.3-1-11.8-2.5c-2.6-1.4-3.9-3.1-4.1-5.1
			c-0.1-2.9,0.3-5.9,1.2-9.1c0.9-3.2,1.9-6.4,3.3-9.6c1.3-3.2,2.8-6.4,4.3-9.4C70.4,258.5,71.9,255.7,73.4,253.1z M85.1,230.2
			c0.4-0.3,1-0.4,1.8-0.3c0.8,0.1,1.6,0.3,2.6,0.7c1,0.4,1.9,0.8,3,1.4c1,0.5,1.9,1.1,2.7,1.6c0.8,0.5,1.4,1.1,1.9,1.6
			c0.5,0.5,0.7,0.9,0.6,1.2c-1.6,1.4-2.8,2.7-3.8,3.7c-1,1.1-1.9,2-2.8,3c-0.9,0.9-1.8,1.9-2.7,2.8c-0.9,1-2,2.1-3.4,3.5
			c-0.5,0.3-1.1,0.4-1.8,0.3c-0.8-0.1-1.5-0.4-2.2-0.8c-0.7-0.4-1.3-0.8-1.7-1.3c-0.4-0.5-0.6-1-0.4-1.6c0.2-0.7,0.5-1.6,0.8-2.8
			c0.3-1.2,0.7-2.5,1.2-3.9c0.5-1.4,1.1-2.9,1.8-4.5C83.3,233.2,84.2,231.7,85.1,230.2z"/>
		<path class="st1" d="M140,260.3c-2,2.1-3.6,4.5-5,7.1c-1.3,2.7-2.4,5.4-3.3,8.3l-0.5,1.3c0.3-0.6,0.7-1.2,1.1-1.8
			c0.4-0.6,0.8-1.2,1.2-1.8c2.5-3.9,5.2-7.5,8.1-11c2.9-3.4,6-6.4,9.4-8.8c1-0.3,2.3-0.3,3.9,0.1c1.7,0.3,3.3,0.8,5,1.5
			c1.7,0.7,3.1,1.6,4.4,2.6c1.3,1,2,2.1,2.1,3.2c-1.2,2.2-2.3,4.2-3.4,6c-1,1.8-2,3.6-2.9,5.5s-1.8,3.7-2.8,5.7
			c-0.9,2-1.9,4.2-3,6.5c-0.4,1-0.7,2.1-0.9,3.6c-0.2,1.4-0.1,2.6,0.2,3.5c0.3,0.9,0.8,1.4,1.6,1.3c0.8,0,2-1,3.5-2.9
			c1.9-2.2,3.9-4.8,5.9-7.8c2-3,4-6,6-9.2c1.9-3.2,3.8-6.3,5.5-9.4c1.7-3.1,3.2-6,4.4-8.6c0.3-0.4,0.6-0.6,1.1-0.7
			c0.5-0.1,1,0,1.4,0.1c0.5,0.1,0.8,0.4,1.1,0.7c0.3,0.3,0.3,0.7,0.1,1.1c-1.3,2.6-2.9,5.7-4.8,9.3c-1.9,3.6-4,7.4-6.2,11.2
			c-2.2,3.8-4.4,7.5-6.6,11c-2.2,3.5-4.3,6.4-6.2,8.7c-0.2,0.2-0.7,0.4-1.5,0.7c-0.8,0.3-1.8,0.5-3,0.7c-1.2,0.2-2.4,0.3-3.6,0.3
			c-1.3,0-2.4-0.2-3.4-0.5c-1-0.4-1.9-1.1-2.7-1.9c-0.7-0.9-1.4-1.8-1.9-2.9c-0.5-1-1-2-1.3-3.1c-0.3-1-0.5-1.9-0.5-2.6
			c-0.1-1.8,0.1-3.4,0.4-5c0.3-1.5,0.8-3.1,1.5-4.6c0.6-1.5,1.4-3.1,2.3-4.7c0.9-1.6,1.8-3.4,2.9-5.4c1.2-2.9,1.7-4.8,1.5-5.6
			c-0.2-0.8-0.9-0.9-2-0.3c-1.1,0.6-2.6,1.9-4.3,3.7c-1.8,1.8-3.6,3.9-5.5,6.2c-1.9,2.3-3.8,4.7-5.6,7.2c-1.8,2.5-3.3,4.7-4.3,6.7
			l-1,1.9l-0.7,3.2c-0.3,2-0.7,3.6-1,4.7c-0.3,1.2-0.7,1.7-1,1.6c-1.2-0.2-2.4-0.4-3.4-0.7c-1.1-0.2-2-0.6-2.8-1.1
			c-0.8-0.5-1.5-1.1-1.9-1.9c-0.5-0.8-0.7-1.9-0.7-3.2c-0.1-1.8,0.1-3.8,0.6-5.8c0.5-2,1.1-4.1,1.7-6.1c0.7-2,1.4-3.9,2.2-5.7
			c0.8-1.8,1.5-3.4,2.1-4.8c1.2-2.6,1.9-4.4,2.1-5.6c0.2-1.1,0-1.7-0.6-1.7c-0.5,0-1.4,0.4-2.5,1.3c-1.1,0.9-2.3,2.1-3.7,3.6
			c-1.4,1.5-2.9,3.2-4.4,5.1c-1.5,1.9-3,3.8-4.3,5.8c-2,3.5-4,7-6,10.6c-1.9,3.6-3.6,7-5,10.3c-0.1,0.3-0.7,0.3-1.6,0
			c-1-0.3-2-0.8-3-1.4c-1.1-0.6-2-1.3-2.9-2c-0.9-0.7-1.3-1.2-1.3-1.6c0.2-5,0.6-9.3,1.3-13c0.6-3.7,1.4-7,2.4-9.9
			c1-2.9,2-5.6,3.3-7.9c1.2-2.3,2.5-4.7,3.7-7c0.2-0.4,0.9-0.6,2-0.6c1.1,0,2.3,0.1,3.5,0.4c1.2,0.2,2.3,0.6,3.2,1.1
			c0.9,0.5,1.3,1,1.1,1.4c-1.8,3.6-3.6,7.2-5.2,10.7c-1.6,3.5-2.7,7.4-3.2,11.5c1.4-2.2,3-4.8,5-7.6c2-2.8,3.9-5.2,5.8-7.4
			c0.5-0.7,1.3-1.5,2.3-2.6c1-1.1,2.1-2.1,3.2-3.2c1.1-1.1,2.2-2,3.3-2.9c1.1-0.9,2-1.5,2.8-1.7c1-0.3,2.2-0.3,3.9-0.1
			c1.6,0.2,3.2,0.7,4.8,1.3c1.6,0.6,3,1.4,4.2,2.4C139.2,258.2,139.9,259.2,140,260.3z"/>
		<path class="st1" d="M195,227c0.4-0.3,1.1-0.2,2.2,0.3c1.1,0.5,2.1,1.1,3.3,1.9c1.1,0.8,2.1,1.6,3,2.3c0.8,0.8,1.2,1.4,1.1,1.8
			c-2.1,2.7-3.9,5.1-5.5,7.5c-1.5,2.3-2.9,4.6-4.1,6.9c-1.2,2.3-2.3,4.6-3.3,6.8c-1,2.3-2,4.7-2.9,7.2c-1,2.5-2,5.2-3.1,8
			c-1.1,2.8-2.3,5.9-3.8,9.2c-0.8,1.8-1.3,2.9-1.4,3.3s0,0.4,0.3,0c0.3-0.4,0.7-1.1,1.3-1.9c0.6-0.9,1.1-1.7,1.7-2.6
			c1.9-2.8,3.5-5.1,4.7-7c1.2-1.9,2.4-3.7,3.6-5.3c1.2-1.6,2.4-3.3,3.9-5.1c1.4-1.7,3.3-3.8,5.5-6.3c0.7-0.8,1.7-1,3-0.6
			c1.3,0.4,2.6,1.1,3.9,2.1c1.3,1,2.4,2.1,3.4,3.4c1,1.3,1.5,2.3,1.7,3.1c0.1,1.5,0.1,3.1,0,4.7c-0.1,1.6-0.5,3.2-1,4.8
			c3.8-2.4,7.4-4.8,10.7-7.4c3.3-2.5,6-5.2,8.2-8.1c0.4-0.3,0.8-0.5,1.3-0.5c0.4,0,0.8,0.1,1.2,0.4c0.3,0.2,0.6,0.5,0.7,0.9
			c0.1,0.4,0.1,0.8-0.1,1.2c-0.5,0.8-1.6,1.9-3.1,3.3c-1.5,1.4-3.3,3-5.5,4.7c-2.2,1.7-4.6,3.6-7.2,5.5c-2.6,1.9-5.3,3.8-8,5.6
			c-0.8,2.2-1.9,4.4-3.2,6.4s-2.8,3.9-4.5,5.5c-1.7,1.6-3.5,3-5.5,4.2c-1.9,1.2-4,1.9-6.1,2.3c-0.8,0.2-1.7,0.2-2.5-0.1
			c-0.9-0.2-1.6-0.6-2.2-1c-0.6-0.4-1.2-1-1.6-1.6c-0.4-0.6-0.7-1.3-0.8-2.1c-0.3-0.7-0.4-1.4-0.3-2.2c0.2-0.8,0.5-1.5,1-2.3
			c0.5-0.7,1.1-1.4,1.9-2c0.7-0.6,1.5-1.1,2.3-1.4c2.3-1.3,4.3-2.5,6-3.5c1.7-1.1,3-2.2,4-3.5c1-1.3,1.7-2.8,2-4.5
			c0.4-1.7,0.5-3.8,0.4-6.4c0.3-2.1,0.3-3.3-0.1-3.7c-0.3-0.3-0.8-0.2-1.4,0.4c-0.6,0.6-1.3,1.5-2.1,2.6c-0.8,1.1-1.4,2.1-1.9,2.8
			c-1.5,2-3,4.2-4.6,6.5c-1.6,2.4-3.1,4.7-4.5,6.8c-1.4,2.2-2.6,4.1-3.5,5.7c-1,1.6-1.5,2.6-1.6,3c-0.5,1-1.1,2.1-1.6,3.4
			c-0.5,1.3-1.1,2.4-1.7,3.3c-0.6,0.8-1.5,1.2-2.8,1.1c-1.3-0.1-2.5-0.3-3.7-0.8c-1.2-0.5-2.3-1.1-3.2-1.7c-0.9-0.7-1.3-1.3-1.1-1.7
			c0.9-5.3,2-10.7,3.3-16c1.3-5.4,3-10.8,5.2-16.3c2.1-5.5,4.7-11,7.8-16.5C186.8,238.1,190.5,232.6,195,227z"/>
		<path class="st1" d="M248.8,258c0.1,2.7-0.6,5.2-1.9,7.8c-1.3,2.5-3.1,4.8-5.3,7c-2.2,2.1-4.7,4-7.5,5.6c-2.8,1.6-5.5,2.8-8.3,3.6
			c-0.1,1.6-0.2,2.9-0.2,4c0,1.1,0.2,2,0.6,2.8c1.2,3.4,4.2,4.2,9.2,2.5c3.6-1.2,6.8-3.1,9.6-5.7c2.8-2.6,5.4-5.4,7.8-8.6
			c2.4-3.2,4.7-6.5,6.8-10.1c2.2-3.5,4.5-6.9,6.9-10.2c0.3-0.5,0.7-0.7,1.2-0.7c0.4,0,0.9,0.1,1.2,0.4c0.4,0.3,0.6,0.6,0.8,1
			c0.2,0.4,0.2,0.8,0.1,1.2c-1.8,2.5-3.5,5.2-5.3,8c-1.8,2.8-3.6,5.6-5.4,8.3c-1.8,2.8-3.6,5.4-5.4,8c-1.8,2.6-3.7,4.8-5.6,6.8
			c-1.9,2-3.9,3.7-5.9,5c-2,1.3-4.1,2.1-6.2,2.4c-2,0.3-4.1,0.1-6.3-0.6c-2.2-0.6-4.3-1.6-6.3-2.8c-2-1.2-3.7-2.7-5.2-4.3
			c-1.5-1.6-2.5-3.3-3-4.9c-0.6-1.9-0.5-4.4,0.4-7.6c0.9-3.2,2.2-6.4,3.9-9.7c1.7-3.3,3.8-6.4,6.1-9.3c2.3-2.9,4.7-4.9,7-6.1
			c1.2-0.7,2.7-0.9,4.5-0.6c1.8,0.3,3.5,0.8,5.2,1.6c1.7,0.7,3.1,1.6,4.3,2.7C248.1,256.5,248.8,257.4,248.8,258z M243.3,257.3
			c-0.9,0.3-2.1,1.2-3.7,2.6c-1.6,1.4-3.2,3-4.8,4.9c-1.7,1.9-3.2,3.9-4.7,6.1c-1.5,2.2-2.5,4.3-3.2,6.3c1.4-0.7,2.6-1.3,3.5-1.7
			c0.9-0.5,1.6-0.9,2.2-1.4c0.6-0.4,1.2-0.9,1.7-1.4c0.5-0.5,1.1-1.1,1.9-1.8c0.5-0.5,1.3-1.5,2.3-3.1c1-1.6,2-3.2,2.9-4.8
			c0.9-1.6,1.6-3,2-4.2C243.9,257.6,243.9,257.1,243.3,257.3z"/>
		<path class="st1" d="M268.2,244.3c1.1-0.8,2.3-1.1,3.7-0.7c1.4,0.3,2.6,0.9,3.7,1.7c1.1,0.8,1.9,1.6,2.4,2.6
			c0.5,0.9,0.5,1.5-0.1,1.9c-0.7,0.5-1.5,1.1-2.3,1.9c-0.9,0.8-1.7,1.7-2.5,2.6c-0.7,0.9-1.3,1.7-1.7,2.4c-0.4,0.8-0.5,1.3-0.3,1.7
			c0.2,0.4,0.9,0.5,2,0.4c1.1-0.1,2.8-0.7,5.1-1.6c1.3-0.1,2.6,0.1,3.9,0.4c1.3,0.3,2.5,0.8,3.5,1.3c1,0.5,1.7,1,2.1,1.6
			c0.4,0.5,0.4,1-0.2,1.2c-2.4,2.2-4.4,4.3-6.1,6.2c-1.7,1.9-3,3.8-4.1,5.7c-1.1,1.9-1.9,3.9-2.6,6.1c-0.6,2.1-1.1,4.6-1.3,7.3
			c1,2,2.3,2.9,4,2.8c1.6-0.1,3.4-0.9,5.4-2.4c2-1.5,4-3.5,6.2-6c2.2-2.5,4.3-5.2,6.4-8.1c2.1-2.9,4-5.7,5.9-8.5
			c1.8-2.8,3.4-5.3,4.8-7.4c0.7-0.5,1.5-0.5,2.3,0c0.8,0.5,1.1,1.2,0.7,1.8c-1.5,2.7-3.1,5.5-4.8,8.4c-1.7,3-3.5,5.9-5.4,8.9
			c-1.9,3-3.8,5.8-5.7,8.5c-1.9,2.7-3.8,5-5.7,7c-1.9,2-3.7,3.6-5.5,4.7c-1.8,1.2-3.4,1.6-4.9,1.4c-2,0.2-4.1,0-6.2-0.7
			c-2.1-0.7-3.9-1.6-5.6-2.8c-1.6-1.2-2.9-2.5-3.9-4c-1-1.5-1.3-3-1.1-4.5c0.3-2.7,0.8-4.9,1.5-6.7c0.7-1.8,1.5-3.5,2.3-5.1
			c0.9-1.6,1.7-3.1,2.7-4.6c0.9-1.5,1.8-3.2,2.6-5.2c-2.7,0.1-5-0.2-7.1-0.9c-2.1-0.7-3.4-2.2-3.8-4.5c-0.3-1.2-0.2-2.6,0.3-4
			c0.4-1.4,1.1-2.8,2-4.2c0.9-1.4,2-2.7,3.3-3.8C265.6,245.7,266.9,244.9,268.2,244.3z"/>
		<path class="st1" d="M459.1,210.8c0.8,1.8,1,3.4,0.5,5c-0.5,1.6-1.3,3-2.6,4.2c-1.2,1.3-2.7,2.3-4.4,3.2c-1.7,0.9-3.5,1.4-5.2,1.7
			c-3,0.5-6.5,0.6-10.5,0.4c-4-0.2-8.3-0.7-12.8-1.3c-4.5-0.6-9.1-1.3-13.8-2.1c-4.7-0.8-9.2-1.5-13.4-2.1c-3.6,4-7.2,8.1-10.8,12.4
			c-3.6,4.2-7,8.5-10.2,12.9c-3.2,4.4-6.2,8.9-8.9,13.5c-2.7,4.6-5,9.3-6.9,14c-1.9,4.7-3.3,9.5-4.3,14.4c-1,4.9-1.3,9.8-0.9,14.8
			c-0.1,0.7-0.8,1.1-1.9,1c-1.2-0.1-2.4-0.3-3.8-0.8c-1.4-0.5-2.7-1.1-3.9-1.8c-1.2-0.8-1.9-1.4-2.1-2c-0.3-6.8,0.1-13.2,1.2-19
			c1.2-5.9,2.9-11.5,5.3-16.9c-0.3-8-2.7-14.5-7.1-19.7c-4.5-5.2-10.7-8.6-18.7-10.4c-2-2.2-2.8-4.4-2.3-6.4c0.4-2,1.8-3.5,4.3-4.5
			c3.5-1.6,7.1-2.9,11-4c3.8-1.1,7.8-2,12-2.7c4.1-0.7,8.4-1.3,12.8-1.7c4.4-0.4,8.7-0.8,13.2-1.1c5.6-0.3,11.3-0.5,17.1-0.4
			c5.7,0.1,11.4,0.3,16.9,0.6c5.5,0.3,10.8,0.6,15.9,0.9c5.1,0.3,9.8,0.5,14.1,0.6c4.4,0,8.3-0.1,11.7-0.5
			C454.1,212.5,456.9,211.8,459.1,210.8z M354.2,253.1c3.4-6.2,7.3-12.1,11.7-17.7s9-11.3,13.7-17c-7.8-0.1-15.6,0.4-23.4,1.5
			c-7.8,1.1-15,2.8-21.6,5.2c-1.8,0.6-3,1.1-3.7,1.5c-0.7,0.4-1,0.7-0.8,1c0.1,0.3,0.6,0.7,1.5,1.1c0.9,0.4,2,1,3.3,1.6
			c2.8,1.4,5.3,2.9,7.5,4.3c2.2,1.5,4.1,3.1,5.7,4.9c1.6,1.8,2.9,3.8,3.9,6C353,247.7,353.7,250.3,354.2,253.1z"/>
		<path class="st1" d="M430.8,261.2c-2.6,1.7-5.5,2.8-8.9,3.3c-3.3,0.5-6.6,0.4-9.9-0.4c-0.5,3.1-1.5,6.3-3,9.6
			c-1.5,3.4-3.2,6.6-5.2,9.6c-1.9,3-4,5.7-6.1,8.1c-2.1,2.3-4,4-5.7,5c-0.8,0.5-1.8,0.8-2.9,0.9c-1.1,0-2.2-0.1-3.3-0.4
			s-2.2-0.7-3.2-1.2c-1-0.5-1.8-1.1-2.4-1.7c-0.7-0.7-1.6-1.4-2.5-2.1c-0.9-0.6-1.5-1.4-1.8-2.4c-0.7-2.2-1.1-4.6-1-7.3
			c0.1-2.7,0.4-5.4,1.1-8.2c0.7-2.8,1.7-5.5,3-8.2c1.3-2.7,2.8-5,4.5-7.1c1.7-2.1,3.6-3.8,5.6-5.1c2-1.3,4.2-2.1,6.4-2.2
			c1.5-0.1,2.9,0,4.1,0.4l2.9,0.9l2.3,1.8c1-0.5,2-0.3,3.2,0.5l1.2,0.8c0.5,0.2,1.1,0.4,1.5,0.7c0.5,0.2,0.8,0.6,0.9,1
			c3.1,1.7,6,2.7,8.8,3.1c2.8,0.3,5.2-0.4,7.4-2.1c0.7-0.2,1.3-0.2,1.8-0.1c0.5,0.1,1,0.4,1.3,0.7c0.3,0.3,0.5,0.7,0.5,1.1
			S431.2,260.9,430.8,261.2z M386.5,288c0.1,2.7,0.6,4.1,1.6,4.3c1,0.2,2.2-0.3,3.6-1.6c1.4-1.3,2.9-3.2,4.6-5.7
			c1.7-2.5,3.2-5.1,4.7-7.9c1.5-2.8,2.8-5.5,3.9-8.3c1.1-2.7,1.9-5,2.2-6.8c-0.5-0.4-1.1-0.8-1.5-1.2c-0.5-0.4-1-0.8-1.5-1.4
			c-0.1-0.1-0.2-0.1-0.3-0.2c0-0.1-0.2-0.2-0.4-0.3c-2.3,1.2-4.6,3.2-6.9,5.9c-2.3,2.7-4.2,5.8-5.8,9.2c-1,2.2-1.9,4.5-2.9,6.9
			C386.9,283.6,386.4,285.9,386.5,288z"/>
		<path class="st1" d="M442.4,255.5l0.1-0.1c0.8-0.7,1.7-1.4,2.7-2.2c1-0.8,2-1.5,3.2-2c1.8-0.4,3.5-0.4,5.1,0.1
			c1.6,0.4,3.1,1.1,4.4,2c1.3,0.9,2.5,1.9,3.4,3c0.9,1.1,1.5,2.2,1.8,3.2c0.7,2.2,0.6,4.9-0.5,8c-1.1,3.1-2.8,6.1-5.1,9
			c-2.3,2.9-5.1,5.4-8.3,7.5c-3.2,2.1-6.5,3.3-10,3.5c0.3,0.8,0.8,1.5,1.5,2.1c0.7,0.6,1.6,1,2.7,1.2c1.1,0.2,2.3,0.2,3.8,0
			c1.4-0.2,3-0.8,4.6-1.7c3.5-2,6.5-4.3,9-6.9c2.5-2.6,4.8-5.4,6.9-8.4c2.1-3,4-6,5.9-9.1c1.8-3.1,3.8-6.2,5.8-9.2
			c0.2-0.4,0.5-0.7,1-0.8c0.5-0.1,0.9-0.1,1.3,0.1c0.4,0.1,0.7,0.4,1,0.7c0.3,0.3,0.4,0.7,0.3,1.2c-1.6,3.1-3.4,6.2-5.2,9.1
			c-1.8,3-3.7,6.2-5.7,9.6c-1,1.6-2,3.4-3.2,5.3c-1.2,1.9-2.5,3.8-3.9,5.6c-1.4,1.8-3,3.5-4.7,5.1c-1.7,1.6-3.5,2.9-5.5,4
			c-1.1,0.6-2.2,1.2-3.4,1.6c-1.2,0.5-2.4,0.8-3.7,1.1c-1.3,0.2-2.7,0.3-4.2,0.2c-1.5-0.1-3.1-0.5-4.7-1.2c-1.3-0.5-2.5-1.3-3.7-2.2
			c-1.2-1-2.1-2-2.9-3.1c-0.7-1.1-1.2-2.3-1.4-3.5c-0.2-1.2,0-2.4,0.5-3.6c1.1,0.3,2.5,0,4.2-0.9c1.7-1,3.5-2.3,5.3-4
			c1.8-1.7,3.5-3.7,5.2-5.9c1.7-2.2,3-4.4,4.1-6.7c1.1-2.2,1.7-4.4,1.9-6.3c0.2-2-0.3-3.6-1.4-4.8c-0.5-0.4-1.2-0.4-2.1,0
			c-0.9,0.4-1.5,0.8-2.1,1.1c-1.6,1-2.9,1.9-4.1,3c-1.2,1-2.4,2.1-3.5,3.3c-0.7,0.5-1.8,2-3,4.4c-1.3,2.4-2.6,5.3-4.1,8.8
			c-1.5,3.4-3,7.2-4.5,11.4c-1.5,4.2-2.9,8.2-4.2,12.3c-1.3,4-2.3,7.8-3.2,11.4c-0.9,3.6-1.3,6.5-1.5,8.8c0,0.5-0.6,0.8-1.9,0.8
			c-1.3,0-2.6-0.3-4-0.8c-1.4-0.5-2.7-1.1-3.8-1.9c-1.1-0.8-1.6-1.6-1.4-2.5c0.8-3.2,1.8-7.1,2.9-11.6c1.1-4.5,2.5-9.4,4.1-14.5
			c1.6-5.1,3.6-10.5,5.8-16c2.2-5.5,4.9-10.9,7.9-16.2c0.3-0.6,0.7-1.2,1-1.7c0.3-0.5,0.6-1.1,1-1.8c0.3-0.6,0.7-1.4,1.2-2.2
			c0.4-0.9,1-1.9,1.7-3c0.1-0.2,0.5-0.4,1.2-0.6c0.7-0.2,1.7-0.3,2.8-0.4c1.1-0.1,2.2-0.1,3.3-0.1c1.1,0,2.1,0.2,3,0.4
			c0.9,0.2,1.5,0.6,1.8,1.1c0.3,0.5,0.2,1.2-0.3,2L442.4,255.5z"/>
		<path class="st1" d="M487.4,242.5c0.4-0.3,1-0.2,1.7,0.3c0.7,0.5,1.5,1.1,2.2,1.8c0.7,0.8,1.3,1.5,1.7,2.3
			c0.4,0.8,0.5,1.4,0.3,1.8c-2.3,1.8-3.8,3.8-4.4,6c-0.6,2.2-0.8,4.6-0.6,7.2c0.2,2.6,0.7,5.2,1.4,8c0.7,2.8,1.2,5.5,1.4,8.2
			c0.3,2.7,0.1,5.3-0.4,7.9c-0.5,2.6-1.9,5-4.2,7.1c-2.1,2.1-4.5,3.6-7.1,4.4c-2.6,0.9-5.2,1.2-7.7,1.1c-2.5-0.1-4.7-0.6-6.8-1.4
			s-3.5-1.9-4.5-3.2c-0.8-1.1-1.3-2.4-1.4-3.9c-0.1-1.5,0-3,0.5-4.4c0.4-1.5,1.1-2.8,2-3.9c0.9-1.1,2-1.9,3.2-2.3
			c1.8-0.5,3.4-0.4,4.7,0.2c1.4,0.6,2.8,1.3,4.2,2.2c-1.8,0.3-3.2,1-4.2,1.9c-1,1-1.7,2-2.1,3.1c-0.4,1.1-0.5,2.2-0.3,3.3
			c0.2,1.1,0.6,2,1.2,2.6c0.6,0.6,1.4,1,2.4,1c1,0,2.1-0.5,3.3-1.6c1.5-1.4,2.6-2.9,3.2-4.7c0.6-1.8,1-3.7,1.1-5.7
			c0.1-2,0-4.2-0.2-6.3c-0.2-2.2-0.5-4.3-0.7-6.4c-0.2-2.1-0.3-4.2-0.4-6.2c-0.1-2,0.1-3.9,0.6-5.6c0.7-2.2,1.6-4.5,2.9-7
			C482.1,247.8,484.3,245.2,487.4,242.5z"/>
	</g>
	<path class="st3" d="M214.9,186.8c-0.7-0.5-1.5-0.6-2.3-0.1c-2.4,1.5-4.8,3.1-7.2,4.7c-0.6,0.4-0.8,0.9-0.6,1.6
		c0.4,1.2,0.6,2.4,0.9,3.6c1,3.7,1.9,7.4,2.9,11.2c0.2,0.6,0.9,0.9,1.6,0.5c0.8-0.4,1.5-0.8,2.2-1.3c2.5-1.6,4.5-3.7,5.4-6.4
		c1.6-5.1,0-9.4-2.4-13.4C215.3,187.1,215.1,186.9,214.9,186.8z"/>
	<path class="st4" d="M218.1,176.5c-0.2,0.1-0.3,0.2-0.5,0.3c-0.6,0.4-0.7,1.1-0.3,1.6c0.2,0.3,0.5,0.5,0.7,0.8
		c4,4.8,6.5,10.3,7.2,16.7c0,0.3,0.2,0.8,0.5,0.8c0.2,0,0.3,0.1,0.5,0.1c0.8,0.1,1.5-0.6,1.4-1.3l-0.1-0.9c-0.1-0.7,0.7-1.4,1.4-1.3
		l0.9,0.1c0.8,0.1,1.5-0.6,1.4-1.3l-0.1-0.9c-0.1-0.7,0.6-1.4,1.4-1.3l1,0.1c0.7,0.1,1.4-0.6,1.4-1.3l-0.1-0.9
		c-0.1-0.7,0.7-1.4,1.4-1.3l0.9,0.1c0.8,0.1,1.5-0.5,1.4-1.3l-0.1-0.9c-0.1-0.7,0.7-1.4,1.4-1.3l0.9,0.1c0.8,0.1,1.5-0.6,1.4-1.3
		l-0.1-0.9c-0.1-0.7,0.7-1.4,1.4-1.3l0.9,0.1c0.8,0.1,1.5-0.5,1.4-1.3l-0.1-0.9c-0.1-0.7,0.7-1.4,1.4-1.3l0.9,0.1
		c0.8,0.1,1.5-0.6,1.4-1.3l-0.1-0.9c-0.1-0.7,0.7-1.4,1.4-1.3l0.9,0.1c0.8,0.1,1.5-0.6,1.4-1.3l0-0.5c-4.7-3.4-9.4-6.7-14.1-10.1
		C232.1,166.5,225.1,171.5,218.1,176.5z"/>
	<path class="st4" d="M264.3,162.1l-0.1-0.9c-0.1-0.7,0.7-1.4,1.4-1.3l0.9,0.1c0.8,0.1,1.5-0.6,1.4-1.3c0-0.3-0.1-0.6-0.1-0.9
		c-0.1-0.7,0.7-1.4,1.4-1.3l0.9,0.1c0.8,0.1,1.5-0.5,1.4-1.3l-0.1-0.9c-0.1-0.7,0.7-1.4,1.4-1.3l0.9,0.1c0.8,0.1,1.5-0.6,1.4-1.3
		l-0.1-0.9c-0.1-0.7,0.7-1.4,1.4-1.3l0.9,0.1c0.8,0.1,1.5-0.6,1.4-1.3l-0.1-0.9c-0.1-0.7,0.7-1.4,1.4-1.3l0.9,0.1
		c0.8,0.1,1.5-0.6,1.4-1.3l-0.1-0.9c-0.1-0.7,0.7-1.4,1.4-1.3l0.9,0.1c0.8,0.1,1.5-0.6,1.4-1.3l-0.1-0.9c-0.1-0.7,0.7-1.4,1.4-1.3
		l0.9,0.1c0.8,0.1,1.5-0.5,1.4-1.3l-0.1-0.9c-0.1-0.7,0.7-1.4,1.4-1.3l2.5,0.4l-0.4-4l4,0.6c-0.1-1.4-0.2-2.6-0.3-4l4,0.6
		c-0.1-1.4-0.2-2.6-0.4-4l4,0.6c-0.1-1.4-0.2-2.6-0.3-4c1.5,0.3,2.8,0.5,4.1,0.7c0-0.1,0.1-0.3,0.1-0.4c-0.1-0.1-0.2-0.1-0.2-0.2
		c0.2-2.8-1.3-4.7-3.2-6.3c-0.4-0.3-0.7-0.7-1-1.1c-0.3,0-0.5,0-0.8,0c-10.6,7.6-21.3,15.2-31.9,22.8c-7,5-13.9,9.9-20.9,14.9
		c4.5,3.2,8.9,6.4,13.4,9.6C264.2,162.6,264.3,162.4,264.3,162.1z"/>
	<path class="st4" d="M216.8,179.7c-0.6-0.7-1.2-1.2-1.8-1.8c-0.4-0.3-1-0.4-1.4,0c0,0,0,0,0,0c-5.8,4.2-11.6,8.3-17.4,12.5
		c-1.8,1.3-3.5,2.5-4.6,4.5c0,0.3-0.1,0.5-0.1,0.8c0.8,2.7,2.1,3.1,5.6,1.7c0.1,0.2,0.2,0.5,0.2,0.7c1.4,5.8,2.8,11.5,4.3,17.3
		c0.3,1.3,1.1,2.5,1.6,3.7c-0.1,0,2.7,0.3,2.5,0.2c1.5-0.8,3-1.6,4.3-2.5c2.5-1.7,5-3.5,7.4-5.2c0.7-0.5,1.4-1.1,2.1-1.7
		c3.7-3.5,4.9-7.7,4.7-12.2C223.9,190.7,221.1,184.8,216.8,179.7z M217.8,200.7c-0.9,2.7-2.9,4.8-5.4,6.4c-0.7,0.5-1.4,0.9-2.2,1.3
		c-0.7,0.4-1.4,0.1-1.6-0.5c-1-3.8-2-7.5-2.9-11.2c-0.3-1.2-0.6-2.4-0.9-3.6c-0.2-0.7,0-1.2,0.6-1.6c2.4-1.6,4.8-3.2,7.2-4.7
		c0.8-0.5,1.6-0.4,2.3,0.1c0.2,0.1,0.4,0.3,0.5,0.5C217.9,191.3,219.5,195.6,217.8,200.7z"/>
	<path class="st4" d="M314,198.5c-6.7-4.8-13.4-9.6-20.2-14.4c-9.9-7.1-19.8-14.2-29.8-21.3c-0.2,0.4-0.8,0.7-1.3,0.6l-0.9-0.1
		c-0.7-0.1-1.5,0.6-1.4,1.3l0.1,0.9c0.1,0.7-0.7,1.4-1.4,1.3l-0.9-0.1c-0.7-0.1-1.5,0.5-1.4,1.3l0.1,0.9c0.1,0.7-0.7,1.4-1.4,1.3
		l-0.9-0.1c-0.7-0.1-1.5,0.6-1.4,1.3l0,0.4c9.6,6.8,19.1,13.7,28.7,20.5c8,5.7,16,11.4,23.9,17.1c4.2,3,9.4,1.3,10.8-3.5
		C317.5,203.2,316.4,200.2,314,198.5z"/>
	<path class="st4" d="M242.9,147.6c-4-2.9-8-5.8-12-8.6c-2.7,3.8-5.3,7.4-7.9,11.1c1.9,1.3,3.8,2.7,5.8,4.1
		c3.4,2.5,6.9,4.9,10.3,7.4c3.9-2.8,7.8-5.5,11.6-8.3C248.1,151.3,245.5,149.5,242.9,147.6z"/>
	<path class="st4" d="M203.9,162.2c0.3-0.5,0.4-1.3,0.3-1.9c-0.2-1.7-0.5-3.5-0.8-5.2c-0.3-1.8,0-3.5,1.2-5c1-1.4,1.9-3,3.5-3.8
		c2.3-1.2,4.5-1,6.6,0.4c1.3,0.9,2.5,1.9,3.6,2.7c3.6-5,7-9.8,10.5-14.7c-2.7-1.9-5.4-3.8-8.1-5.8c-0.4-0.3-0.9-0.6-1.2-1
		c-0.6-0.8-0.5-1.7,0.1-2.5c2.9-4.1,6.5-7.5,10.7-10.2c5.1-3.3,10.1-6.6,15.1-10c0.1-0.1,0.2-0.2,0.4-0.3c-1.2,0.2-2.4,0.4-3.6,0.6
		c-6.2,1.3-12.3,2.4-18.4,3.9c-5.7,1.4-10.7,4.2-15,8.2c-1.2,1.1-2.1,2.6-3.1,4c-2.9,4.1-5.8,8.1-8.8,12.3c0.2,0.2,0.4,0.4,0.7,0.6
		c2.3,2.1,2.8,5.5,1,8.2c-0.5,0.8-1.1,1.6-1.6,2.3c-1,1.4-2.4,2.2-4.1,2.5c-1.7,0.3-3.5,0.5-5.2,0.9c-0.7,0.2-1.5,0.7-2,1.3
		c-1,1.1-1.8,2.4-2.7,3.6c6,4.3,12,8.6,18.1,13C202.1,165,203.1,163.7,203.9,162.2z"/>
</g>
<g id="Layer_3">
</g>
</svg>
