<?xml version="1.0" encoding="utf-8"?>
<!-- Generator: Adobe Illustrator 19.0.0, SVG Export Plug-In . SVG Version: 6.00 Build 0)  -->
<svg version="1.1" xmlns="http://www.w3.org/2000/svg" xmlns:xlink="http://www.w3.org/1999/xlink" x="0px" y="0px"
	 viewBox="0 0 500 500" style="enable-background:new 0 0 500 500;" xml:space="preserve">
<g id="Layer_2">
	<rect id="XMLID_1_" style="fill:none;" width="500" height="500"/>
</g>
<g id="Layer_1">
	<g>
		<path d="M3.6038,291.1222c0.1096-0.5462,0.2139-1.0935,0.3296-1.6385c0.7795-3.6714,2.7818-5.556,6.4956-6.0319
			c1.1861-0.1519,2.3896-0.2301,3.5854-0.2334c7.3996-0.0207,14.7993-0.0245,22.1989-0.0013
			c2.0766,0.0065,4.1558,0.0745,6.2288,0.1984c4.1903,0.2504,6.7832,3.0108,7.044,7.3532
			c0.3912,6.5138,0.1679,13.032,0.1865,19.5485c0.0048,1.6696-0.5428,2.9227-2.1296,3.826
			c-4.0304,2.2943-7.9802,4.7313-11.9375,7.1517c-0.8367,0.5117-1.1217,0.2876-1.2091-0.5858
			c-0.1074-1.0724-0.3351-2.1422-0.3413-3.214c-0.0334-5.7195-0.1833-11.4464,0.053-17.1564
			c0.1343-3.2449-2.7846-5.2783-5.6399-5.0212c-2.147,0.1932-4.27,0.6212-6.4377,0.626c-1.1338,0.0025-1.8689,0.6369-2.2659,1.6591
			c-0.3805,0.9795-0.4997,2.0079-0.4997,3.058c-0.0014,18.4391-0.0081,36.8783-0.0135,55.3174c0,0.16-0.0008,0.32,0.0023,0.4799
			c0.0634,3.3081,1.3685,4.5225,4.642,4.1861c1.8684-0.192,3.7165-0.5591,5.503-1.1686c2.7717-0.9456,4.243-2.9147,4.3953-5.8127
			c0.1301-2.4758,0.1127-4.9586-0.1438-7.4285c-0.7675-7.3901,2.8142-13.3533,9.701-16.0316
			c1.5011-0.5838,2.6337-1.6372,3.8134-2.6548c0.3747-0.3232,0.7056-0.8562,1.3278-0.5576c0.6069,0.2913,1.019,0.7179,1.0174,1.4789
			c-0.0165,7.6765,0.3994,15.3532,0.1177,23.0267c-0.0892,2.431-0.0337,4.8698-0.3006,7.3029
			c-0.5697,5.1939-3.4727,8.4512-8.2331,10.2084c-3.3102,1.2219-6.8072,1.7615-10.2048,2.6681
			c-5.5622,1.4841-11.1345,2.9308-16.7111,4.36c-1.47,0.3767-2.9633,0.6263-4.5068,0.4334
			c-2.9957-0.3744-4.8761-2.011-5.7141-4.8899c-0.1001-0.3439-0.2343-0.678-0.3528-1.0166
			C3.6038,344.0822,3.6038,317.6022,3.6038,291.1222z"/>
		<path d="M179.7638,433.9222c-1.9669-0.4118-3.9735-0.1599-5.9619-0.384c-3.8122-0.4297-7.3683-1.4082-10.4291-3.834
			c-0.8515-0.6748-2.3607-0.4465-3.6368,0.4821c-0.5812,0.4229-1.1102,0.9258-1.7194,1.3005
			c-1.6372,1.0072-3.1594,0.588-4.4393-1.166c-1.1124-1.5244-0.9474-2.7889,0.5785-4.0721c0.4868-0.4094,1.0359-0.749,1.5755-1.0906
			c1.4294-0.905,1.9155-2.1376,1.5098-3.8011c-0.558-2.2879-1.0461-4.5758-1.0882-6.9681
			c-0.1058-6.0062,2.3147-10.757,6.8876-14.5012c3.6964-3.0265,7.7893-5.1539,12.6658-5.4746
			c2.4283-0.1597,4.786,0.1949,7.0821,0.943c2.2589,0.7361,4.3318,0.3577,6.3006-0.8727c0.3049-0.1906,0.597-0.4022,0.8901-0.6111
			c4.4638-3.1826,5.5334-6.1068,4.0665-11.393c-0.8303-2.992-1.0912-5.9606-0.0765-8.9562
			c1.4428-4.2594,5.3925-7.2335,9.8841-7.5897c2.8129-0.2231,5.3285,0.2986,7.4014,2.3186c2.3419,2.2821,2.939,5.3628,1.6209,8.3663
			c-0.7773,1.7713-1.8973,3.3306-3.0694,4.8547c-1.2915,1.6794-2.5875,3.3499-3.701,5.1634
			c-1.5768,2.5681-1.9731,5.2334-1.2058,8.1611c0.779,2.972,1.7556,5.8965,2.1082,8.9787
			c1.1312,9.8891-2.0683,18.0155-9.8157,24.2935c-3.9074,3.1663-8.3252,5.1915-13.3777,5.7019
			c-0.1536,0.0155-0.3003,0.0989-0.4503,0.1506C182.1638,433.9222,180.9638,433.9222,179.7638,433.9222z M199.6784,407.0103
			c0.0552-3.7839-0.6919-7.3863-2.2834-10.8228c-0.3452-0.7455-0.6272-0.8862-1.2935-0.324
			c-1.1303,0.9537-2.3153,1.8419-3.3597,2.8958c-1.7422,1.7581-2.0097,3.1405-1.009,5.4237c0.3376,0.7703,0.7066,1.5247,0.809,2.373
			c0.4434,3.6732-0.9815,6.7003-3.2201,9.4713c-1.3481,1.6688-3.1297,2.2491-5.1784,2.2809
			c-0.4797,0.0075-0.8218-0.165-0.7519-0.6807c0.1485-1.0958,0.0781-2.2342,0.7694-3.2212
			c1.5175-2.1664,1.5896-4.5215,0.8939-6.9984c-0.2579-0.9181-0.5001-0.8884-1.135-0.2983
			c-4.9194,4.5725-9.8902,9.0894-14.7338,13.744c-0.8269,0.7946-1.0542,1.6252-0.8681,2.6853
			c0.1741,0.992,0.8198,1.6074,1.5815,2.1614c3.7885,2.7556,8.0294,3.4023,12.5493,2.6579
			c5.2517-0.865,9.9202-2.8228,13.1673-7.3022C198.6541,416.8651,199.5967,412.0594,199.6784,407.0103z M181.0971,402.1084
			c-2.58-0.8096-4.9192-0.9692-7.3247-0.5302c-6.4871,1.184-11.0612,7.9938-9.7023,14.435c0.2243,1.0634,0.534,1.0343,1.2456,0.3727
			c1.7525-1.6294,3.552-3.208,5.3273-4.8131C174.0687,408.4753,177.4907,405.3738,181.0971,402.1084z M200.7132,376.3745
			c0.129,1.9406,0.7436,3.8471,1.9917,5.5423c0.4272,0.5801,0.7052,0.5262,1.0094-0.0865c0.9407-1.8947,2.0726-3.6962,2.7815-5.7038
			c0.5489-1.5543,0.04-3.1825-1.2666-4.134c-0.3535-0.2574-0.7001-0.3104-1.123-0.1978
			C202.1331,372.32,200.7144,374.1617,200.7132,376.3745z"/>
		<path d="M236.4038,66.7222c0.8547,0.1888,1.7155,0.3536,2.5631,0.57c7.2719,1.857,11.0788,9.2686,8.5139,16.4754
			c-2.3211,6.5217-5.3569,12.7396-8.038,19.108c-1.2448,2.9566-1.1349,3.741,1.2127,6.0141
			c0.8023,0.7769,0.8365,1.3826,0.2271,2.2506c-0.3949,0.5624-0.7416,0.5937-1.2928,0.3069
			c-1.0631-0.5531-2.1517-1.057-3.2235-1.5938c-2.2094-1.1065-4.4443-1.9816-6.935-2.4502
			c-4.7767-0.8988-6.6123-4.4521-5.2128-9.3183c0.8515-2.9605,0.8924-3.0945-2.0119-3.9827
			c-4.8996-1.4985-6.7823-5.0987-7.2178-9.7997c-0.4077-4.4004,0.5604-8.4836,3.468-11.8554
			c2.7425-3.1802,6.5142-4.6481,10.542-5.5011c0.3102-0.0657,0.6168-0.1488,0.925-0.2238
			C232.0838,66.7222,234.2438,66.7222,236.4038,66.7222z M232.9386,70.5681c-4.0493-0.1325-7.2096,1.5088-9.7497,4.345
			c-4.2274,4.7201-3.9964,10.5055,0.4746,14.4736c2.931,2.6013,7.7551,1.7674,9.1327-1.65
			c0.9862-2.4465,1.0553-5.0066,0.2547-7.5232c-0.8016-2.5195-2.4786-3.0696-4.7359-1.6621
			c-0.3731,0.2326-0.7834,0.437-1.0878,0.7427c-1.3629,1.3691-3.1428,1.4381-4.8873,1.6408
			c-0.8787,0.1021-0.8504-0.2429-0.4842-0.867c0.7516-1.2806,1.5797-2.5003,2.5926-3.5907
			c4.3222-4.6526,11.5601-3.5676,14.3325,2.1688c0.6553,1.3559,0.9049,2.7804,0.6311,4.3126
			c-0.4062,2.2729-1.4733,4.2099-2.8181,6.0263c-1.4064,1.8995-3.0233,3.6224-4.6256,5.3512
			c-0.6424,0.6931-0.6945,1.1986-0.1099,1.9434c0.7884,1.0044,1.4487,2.1085,2.1852,3.1549
			c1.0167,1.4446,1.4779,1.4155,2.3961-0.129c0.1012-0.1702,0.1746-0.3595,0.2426-0.5466c1.5292-4.2083,3.1548-8.3818,4.529-12.6459
			c0.8862-2.7497,1.6682-5.5006,1.4108-8.4528c-0.2874-3.296-2.2425-5.7069-5.4291-6.5261
			C235.7548,70.7643,234.3025,70.5015,232.9386,70.5681z"/>
		<path d="M183.8392,224.5586c0.2518,0.4078,0.6495,0.2578,0.9827,0.2705c6.8069,0.2596,13.5763-0.3581,20.3505-0.8744
			c4.7005-0.3582,9.4096-0.619,14.1031-1.0508c10.1446-0.9333,20.3302-1.6346,30.0142-5.2571
			c8.1406-3.0452,15.4767-7.4358,22.1582-12.9593c0.2222-0.1836,0.6876-0.3642,0.4077-0.7172
			c-0.2534-0.3195-0.6614-0.1328-0.9684,0.0964c-0.9603,0.717-1.8812,1.4949-2.8856,2.1434
			c-4.2205,2.7249-8.941,3.8114-13.884,4.0447c-2.7956,0.132-5.5921,0.0175-8.3879-0.1992
			c-1.8822-0.1459-2.1846,0.1437-2.5826,2.0151c-0.1588,0.7466-0.6614,1.0088-1.2708,1.0505
			c-1.599,0.1093-2.6422,0.6926-2.5811,2.5088c0.0188,0.56-0.3764,0.8593-0.9464,0.8604c-1.9598,0.004-3.9197-0.0007-5.8795,0.0054
			c-0.9582,0.003-0.93-0.6613-0.9297-1.3278c0.0024-5,0.0007-9.9999,0.0006-14.9999c0-1.2,0.0367-2.4014-0.0101-3.5995
			c-0.0353-0.9044,0.2521-1.3328,1.228-1.2656c1.8333,0.1262,3.671,0.1909,5.5074,0.2688c0.6158,0.0261,0.9614,0.3094,1.0387,0.9298
			c0.0493,0.3962,0.1833,0.7882,0.186,1.1827c0.0079,1.1435,0.5026,1.2969,1.5231,0.9751c1.627-0.5131,2.3058-0.0108,2.5153,1.6873
			c0.0669,0.5419-0.0157,1.0733,0.5514,1.4855c1.4169,1.0298,2.9157,0.3838,3.2769-1.5589
			c0.1454-0.7816,0.4503-1.4261,0.8743-2.0645c3.3071-4.9799,2.9806-9.0552-0.9685-13.5016
			c-1.9528-2.1987-4.3156-3.9234-6.4983-5.8536c-4.0209-3.5559-7.7406-7.4079-11.4082-11.315
			c-0.9721-1.0356-1.5708-2.3131-2.1037-3.6105c-0.9318-2.2687-2.3467-4.1027-4.2967-5.6464
			c-5.6467-4.4701-10.8623-9.4404-16.1962-14.2718c-1.8076-1.6373-3.6108-3.2796-5.4086-4.9278
			c-0.3724-0.3415-0.7429-0.5462-1.2884-0.4465c-1.9449,0.3554-3.6647-0.2749-5.1522-1.4511
			c-2.7849-2.202-5.1479-4.7778-6.778-7.9844c-0.3728-0.7333-0.1434-0.9531,0.4899-1.2214
			c2.8551-1.2093,5.6032-1.0504,8.0263,0.9062c2.3291,1.8806,4.4827,3.9773,6.7342,5.9554
			c9.133,8.0236,18.0136,16.3247,26.9856,24.5253c0.5668,0.5181,1.182,0.9578,1.8923,1.2481
			c0.2724,0.1113,0.579,0.4281,0.8608,0.0969c0.2003-0.2355,0.0066-0.5315-0.0851-0.7924
			c-0.9364-2.6647-2.2711-5.1045-4.0334-7.3194c-3.1301-3.9343-7.1478-6.8423-11.1727-9.746
			c-1.0703-0.7722-2.1468-1.5359-3.2094-2.3186c-0.242-0.1782-0.6438-0.3323-0.5096-0.7153
			c0.0993-0.2836,0.4807-0.2449,0.7442-0.2809c3.2981-0.4507,6.3612,0.246,9.1965,1.9563c2.7271,1.6451,4.9626,3.9054,7.3168,6.0024
			c12.0922,10.771,24.1641,21.565,36.2063,32.3919c6.4533,5.802,12.9366,11.5651,19.6529,17.0646
			c1.0216,0.8365,2.0714,1.0871,3.3113,1.0538c3.0763-0.0826,6.1487-0.1864,9.2138,0.3149
			c7.0114,1.1467,13.1154,4.2424,18.6588,8.5626c4.4198,3.4446,8.2547,7.5648,12.6728,11.013
			c2.9934,2.3362,5.8701,4.8847,9.3661,6.4395c4.381,1.9482,9.0803,2.4398,13.8327,2.4671c2.4232,0.0139,4.8466,0.0024,7.546,0.0024
			c-0.8315-1.0061-1.5908-1.3868-2.5598-1.4142c-2.1567-0.0609-4.3152-0.013-6.4703-0.2075
			c-1.1509-0.1038-2.1819-0.4082-3.115-1.0989c-1.206-0.8926-1.6763-1.9677-1.4097-3.5229c0.5087-2.9671-0.5056-5.7023-1.7292-8.325
			c-2.2921-4.9132-4.1201-9.972-5.186-15.2966c-0.4037-2.0168-0.5746-4.058-0.2612-6.0829
			c0.6431-4.1547,3.0594-6.9467,7.0518-8.1306c5.0654-1.5021,10.253-2.2239,15.5084-1.0742
			c3.6381,0.7959,6.8349,2.486,9.2921,5.3605c1.9707,2.3053,2.6516,5.0028,2.0234,7.959
			c-0.7843,3.6908-2.3035,7.1492-3.5805,10.6804c-0.9926,2.7447-2.1029,5.4477-3.1989,8.1538
			c-2.6772,6.6106,0.3445,12.8871,7.1684,14.9567c4.3645,1.3237,8.6499,2.8797,12.8429,4.6804
			c3.3949,1.4579,5.1153,4.328,6.3531,7.593c0.2141,0.5649-0.0641,0.8318-0.6219,0.8578c-0.3593,0.0168-0.7196,0.0198-1.0795,0.0198
			c-94.3593,0.0008-188.7187,0.0008-283.0781,0.0003c-2.0776,0-2.5015-0.5473-2.0679-2.6104
			c0.3672-1.7473,1.4569-2.9448,3.0027-3.6691c1.5893-0.7446,3.2493-1.3436,4.8954-1.9609
			c6.4823-2.4312,13.013-4.7077,19.8773-5.8328c4.2631-0.6988,8.5812-0.8872,12.8724-1.3265
			c1.4702-0.1505,2.9734-0.1979,4.3943-0.5576c1.9635-0.497,3.029-1.982,3.4437-3.9221c1.0564-4.9425,2.588-9.733,4.5487-14.3889
			c3.9562-9.3945,9.342-17.9233,15.6488-25.899c1.4877-1.8814,3.0507-3.7249,4.337-5.7403
			c5.0985-7.989,2.0079-18.456-6.6812-22.3495c-3.2479-1.4554-6.1398-3.4131-9.0873-5.3264
			c-0.5749-0.3731-0.9464-0.6665-0.0049-1.0882c10.4591-4.6835,21.0875-6.0314,31.9801-1.5691
			c3.5436,1.4517,6.7338,3.5133,9.5317,6.1414c2.8491,2.6761,3.305,5.1375,1.4589,8.6189
			c-3.4096,6.4299-6.8848,12.8248-10.1519,19.3298c-2.5313,5.0399-4.9963,10.1115-7.2336,15.2886
			c-3.9925,9.2384-2.3269,17.9819,4.7547,25.2793c0.2962,0.3052,0.8609,0.5612,0.7476,1.0084
			c-0.1371,0.5412-0.7874,0.419-1.2326,0.5185c-3.2769,0.7321-6.5589,1.4422-9.833,2.1863
			C184.5865,224.1358,184.0797,224.0714,183.8392,224.5586z M189.9411,148.4601c-0.0415,0.1054-0.0831,0.2108-0.1246,0.3163
			c0.856,0.3987,1.7091,0.8039,2.5686,1.1949c2.1631,0.9841,4.1697,2.2066,5.8479,3.9085c1.2402,1.2577,1.7217,2.7406,1.2639,4.4991
			c-0.4057,1.5582-1.0525,3.0148-1.7577,4.4512c-4.1035,8.3581-8.2171,16.7122-12.0696,25.1896
			c-1.4187,3.1219-3.0211,6.1801-3.7973,9.5643c-1.5297,6.6691-0.3535,12.7648,3.8198,18.2356
			c0.1638,0.2147,0.2862,0.5469,0.6303,0.4493c0.3917-0.111,0.3373-0.488,0.3667-0.8006c0.0748-0.7942-0.2668-1.4807-0.5573-2.1813
			c-2.5608-6.1776-2.5957-12.3517,0.0247-18.5231c4.2537-10.0181,9.3302-19.6299,14.4246-29.2332
			c1.2172-2.2945,2.4635-4.5751,3.613-6.9033c0.8365-1.6944,0.5374-2.7387-0.6787-3.8726
			c-2.5133-2.3436-5.5072-3.9258-8.5042-5.5079C193.4135,148.4034,191.7152,148.135,189.9411,148.4601z M294.216,201.6442
			c-1.368,0.0133-3.2425,0.1715-5.0845,0.5271c-2.3517,0.454-4.6823,1.0184-7.0187,1.5499
			c-0.291,0.0662-0.7135,0.0948-0.6725,0.5334c0.0461,0.494,0.4909,0.444,0.8385,0.4628c0.3986,0.0217,0.7993,0.0191,1.1986,0.0086
			c4.1472-0.1081,8.2852-0.3246,12.4366,0.1555c8.7076,1.0069,16.2496,4.3689,22.1849,10.9024
			c2.0457,2.2519,4.3294,4.1257,6.8857,5.7127c2.4781,1.5386,4.9664,3.061,7.4581,4.5775c0.2791,0.1699,0.6332,0.5739,0.932,0.1633
			c0.2762-0.3797-0.1789-0.6278-0.4087-0.8785c-0.2156-0.2352-0.4558-0.4482-0.6901-0.6657
			c-3.2204-2.9898-6.4817-5.9369-9.6505-8.9804c-2.7989-2.6882-5.6356-5.3177-8.8091-7.567
			C308.0941,204.0902,301.8109,201.7023,294.216,201.6442z M245.9045,171.6771c-0.3194,0.0555-0.8644-0.1968-1.0664,0.3601
			c-0.1744,0.4808,0.3225,0.6711,0.572,0.9575c0.1044,0.1199,0.2308,0.2211,0.3507,0.3269
			c10.1908,8.9903,20.3746,17.9887,30.5972,26.9427c0.4617,0.4044,0.9704,1.6271,1.7515,0.8189
			c0.8015-0.8293-0.3093-1.4046-0.8412-1.8952c-5.9931-5.5287-12.0012-11.041-18.0245-16.5367
			c-3.7201-3.3943-7.4767-6.7485-11.2078-10.1308C247.4466,171.9863,246.802,171.6459,245.9045,171.6771z M256.7338,202.2964
			c0-0.0016,0-0.0032,0-0.0048c1.4749,0,2.9499,0.0015,4.4249-0.001c0.4132-0.0007,0.8054-0.059,0.9973-0.5009
			c0.2058-0.474-0.1324-0.7449-0.4045-1.0282c-0.8006-0.8338-1.6037-1.6653-2.4161-2.4875
			c-0.9256-0.9367-1.8716-1.8412-3.0698-2.4483c-1.1105-0.5626-2.0378-0.4446-2.8966,0.4938
			c-1.2356,1.3501-1.8624,2.9372-2.0495,4.7364c-0.099,0.952,0.3024,1.2843,1.2289,1.2529
			C253.9422,202.2615,255.3386,202.2964,256.7338,202.2964z M359.0785,185.7626c1.5855,0.6434,3.0363,1.2705,4.5147,1.8239
			c2.982,1.1163,4.614,3.2898,5.1102,6.3813c0.2338,1.4563,0.4492,2.9155,0.6815,4.372c0.0356,0.2234-0.0216,0.531,0.2654,0.6121
			c0.2666,0.0754,0.4212-0.1692,0.5754-0.345c0.1312-0.1496,0.253-0.3092,0.3647-0.474c1.9283-2.8444,1.3736-5.5428-0.3772-8.2516
			C367.5456,185.7542,363.4928,184.171,359.0785,185.7626z"/>
		<path d="M439.2277,306.3773c0,3.9587,0.0041,7.9174-0.0022,11.8761c-0.0021,1.3243-0.1662,2.6362-0.4985,3.915
			c-0.5793,2.2292-1.8365,3.9691-3.8625,5.1182c-1.9164,1.087-2.5314,2.4969-1.9137,4.6814
			c0.772,2.7305,1.5804,5.4521,2.4443,8.1549c1.6674,5.2159,3.4513,10.3954,5.0534,15.6309c0.8043,2.6282,2.1884,4.8628,3.8708,6.97
			c0.3941,0.4936,0.8128,0.986,0.3867,1.7203c-0.365,0.6288-0.7561,0.9177-1.5395,0.7685
			c-6.712-1.2779-13.4313-2.5177-20.1472-3.7753c-0.6187-0.1158-1.2323-0.2324-0.7798-1.1421
			c1.8181-3.6553,1.8109-7.5029,0.5207-11.2113c-2.0378-5.857-3.2441-11.9467-5.3118-17.7935
			c-1.4222-4.0217-4.1554-5.0031-7.8122-4.8515c-0.5625,0.0233-0.7654,0.2356-0.7044,0.8187
			c0.5259,5.0319-0.049,10.0538-0.1472,15.081c-0.0937,4.7919,0.3629,9.5072,2.3854,13.9427
			c0.3144,0.6894,0.7092,1.3418,1.0414,2.0237c0.1856,0.3809,0.7134,0.7701,0.4467,1.1563
			c-0.3027,0.4385-0.8975,0.1194-1.3405,0.0439c-3.0722-0.5229-6.1387-1.079-9.2061-1.6295
			c-3.8538-0.6916-7.7044-1.4016-11.562-2.0711c-0.7919-0.1375-1.0163-0.3764-0.4303-1.0319
			c3.2462-3.6317,3.7814-8.0497,3.3635-12.6035c-0.4727-5.1523-0.3625-10.3007-0.3736-15.4543
			c-0.0175-8.1173,0.0482-16.236-0.0933-24.3511c-0.055-3.1545-0.1241-6.3118-0.1824-9.4678
			c-0.0315-1.7034-0.5023-3.3028-1.0225-4.9059c-1.4669-4.5204-3.0131-4.8302,3.4028-4.8015
			c7.8345,0.035,15.6686,0.1533,23.503,0.1773c3.6754,0.0113,7.3511-0.1201,11.0269-0.1716
			c0.7576-0.0106,1.5263-0.0231,2.2726,0.0847c4.4406,0.6411,6.7833,3.3895,7.0213,7.8725
			C439.3071,296.2267,439.2195,301.3018,439.2277,306.3773z M423.0815,305.874c0-1.1594,0.0276-2.3196-0.0078-3.4779
			c-0.0354-1.1566-0.1378-2.3109-0.204-3.4667c-0.1485-2.59-1.2394-3.9918-3.7362-4.7458
			c-1.6095-0.4861-3.2553-0.8265-4.9213-1.0369c-3.0414-0.3841-4.868,1.0199-5.1759,4.0821
			c-0.5213,5.1841-0.3334,10.378,0.0233,15.562c0.1375,1.9983,0.9989,2.8813,2.9936,3.1151
			c2.7539,0.3228,5.5148,0.0907,8.2216-0.4415c1.7474-0.3436,2.3871-1.3273,2.6218-3.1236
			C423.1778,310.1883,423.0447,308.0296,423.0815,305.874z"/>
		<path d="M251.0644,255.6492c-61.9972,0-123.9944,0.0001-185.9916-0.0003c-2.5912,0-2.0934,0.0764-1.9557-2.1265
			c0.0821-1.3137,0.3179-2.6172,0.4425-3.9292c0.0637-0.6713,0.3552-0.9507,1.0398-1.0477
			c1.3953-0.1978,2.7919-0.1878,4.1903-0.1878c67.517-0.0027,135.0339-0.0004,202.5509-0.0031
			c42.1981-0.0017,84.3964,0.0689,126.594-0.0668c11.8356-0.0381,23.6723-0.0286,35.5082-0.1112
			c0.8357-0.0058,1.6786,0.0628,2.5071,0.1769c1.8905,0.2605,2.7557,1.2347,2.8145,3.1161
			c0.0349,1.1167-0.0671,2.2411,0.2572,3.3366c0.1654,0.5588-0.0607,0.838-0.6457,0.8346
			c-0.4799-0.0028-0.9598,0.0081-1.4398,0.0081C374.9788,255.6492,313.0216,255.6492,251.0644,255.6492z"/>
		<path d="M86.6829,359.805c0.0499-0.4947,0.4637-0.7342,0.7436-1.0446c2.8291-3.1377,3.6671-6.7605,2.5798-10.8099
			c-0.9837-3.6637-0.2268-2.9364-3.7791-2.6076c-3.2226,0.2983-6.4292,0.7294-9.6206,1.2711
			c-1.946,0.3302-2.933,1.4947-2.903,3.4641c0.0514,3.3674,0.7482,6.665,1.1,10.0001c0.2202,2.0883,0.1482,2.2355-1.8686,2.6198
			c-6.5937,1.2565-13.186,2.5203-19.7799,3.7756c-0.4191,0.0798-0.8475,0.1108-1.2335,0.1597
			c-0.1804-0.3594-0.0053-0.5534,0.1293-0.7403c3.7627-5.2227,5.7397-11.1591,6.5994-17.4419
			c1.6654-12.1714,4.6767-24.0777,6.8964-36.1385c1.6922-9.1949,3.4821-18.3719,5.1881-27.5644
			c0.1807-0.9735,0.5653-1.3489,1.5646-1.3446c6.8377,0.0297,13.6756,0.0299,20.5133-0.0006
			c0.9854-0.0044,1.4087,0.3387,1.5945,1.3171c2.6094,13.7391,5.2116,27.4798,7.9002,41.2035
			c1.8832,9.6122,4.1362,19.1404,6.9481,28.5295c0.4679,1.5624,0.4727,1.5885-1.0881,1.8576
			c-6.811,1.1745-13.6243,2.3362-20.4397,3.4846C87.4014,359.8502,87.0456,360.05,86.6829,359.805z M87.8495,333.1949
			c-0.0478-0.3864-0.0733-0.6652-0.1177-0.941c-1.0342-6.4228-2.0651-12.8461-3.1083-19.2674
			c-0.6848-4.2154-1.3876-8.4279-2.0837-12.6415c-0.0575-0.348-0.045-0.7945-0.5462-0.7817
			c-0.4476,0.0114-0.3515,0.4614-0.441,0.7403c-0.0725,0.2259-0.0947,0.4684-0.134,0.7045
			c-0.6034,3.6222-1.2067,7.2444-1.8085,10.8669c-1.2626,7.5992-2.5183,15.1996-3.7967,22.7962
			c-0.115,0.6834-0.1044,1.1337,0.7675,0.9906c3.5051-0.5753,7.0109-1.1471,10.5151-1.7278
			C87.5569,333.8574,87.9779,333.7086,87.8495,333.1949z"/>
		<path d="M163.7305,300.8628c0,3.1197,0.0151,6.2395-0.0037,9.3591c-0.0255,4.2205-1.2544,7.7867-5.3068,9.8728
			c-1.0722,0.5519-1.5828,2.2759-1.0753,3.7746c2.1546,6.3632,4.366,12.7109,7.3011,18.7677
			c0.9718,2.0055,2.8127,3.361,4.2015,5.0593c0.2692,0.3293,0.8238,0.6126,0.652,1.0611c-0.1875,0.4896-0.8144,0.4008-1.2702,0.4486
			c-6.8727,0.72-13.7471,1.4249-20.6205,2.1392c-0.8012,0.0832-1.3952,0.0545-1.008-1.0451
			c1.3561-3.851,0.8926-7.6465-0.4615-11.3855c-1.4415-3.9803-3.0897-7.878-3.9099-12.0759
			c-0.5252-2.688-2.2192-3.7289-5.5407-3.9696c-3.352-0.243-3.3499-0.243-3.3636,3.0864c-0.0143,3.4822-0.4147,6.9369-0.751,10.3961
			c-0.4658,4.7919,0.4884,9.3839,1.9068,13.9229c0.7149,2.2878,0.6677,2.3382-1.6841,2.699
			c-5.5292,0.8483-11.0623,1.6714-16.5986,2.4724c-0.5777,0.0836-1.2612,0.3957-1.7211-0.3759
			c-0.4504-0.7557-0.0464-1.2721,0.3667-1.8343c1.6441-2.2373,2.3313-4.8084,2.4634-7.5276
			c0.093-1.9152,0.0095-3.8384,0.0356-5.7576c0.1029-7.5533,0.5921-15.0968,0.5035-22.6562
			c-0.0792-6.7585-0.065-13.5182-0.0645-20.2773c0.0004-4.317-0.8322-8.4908-2.0082-12.6191
			c-0.3858-1.3545-0.2896-1.4574,1.0985-1.4574c6.5192,0.0002,13.0422-0.1148,19.5565,0.0688
			c6.0383,0.1702,12.0735,0.0699,18.1096,0.1451c0.5998,0.0075,1.2001-0.0059,1.7997,0.0085
			c4.8362,0.1162,7.1762,2.4183,7.3857,7.2608c0.0069,0.1598,0.0101,0.3199,0.0101,0.4798
			c0.0006,3.3197,0.0004,6.6394,0.0004,9.9591C163.7329,300.8628,163.7317,300.8628,163.7305,300.8628z M138.3073,312.1933
			c0-0.002,0-0.0039,0-0.0058c1.1997,0,2.4009,0.0394,3.5987-0.0073c3.8846-0.1515,6.0283-2.3303,6.1398-6.2199
			c0.0435-1.5186-0.0289-3.0444,0.0867-4.5566c0.5367-7.0176-6.2593-11.9235-12.7377-9.1891c-1.2155,0.513-1.8667,1.36-1.8723,2.65
			c-0.0236,5.4387-0.012,10.8776-0.037,16.3163c-0.0037,0.8088,0.3702,1.0369,1.1029,1.0202
			C135.8275,312.1728,137.0677,312.1933,138.3073,312.1933z"/>
		<path d="M317.3398,317.7589c-0.3931-6.1422,0.1247-12.1482,0.3136-18.1642c0.1626-5.18-0.3795-10.3113-2.5584-15.1224
			c-0.3976-0.8778-0.1769-1.108,0.736-1.1042c5.519,0.023,11.0383,0.0324,16.5572-0.0048c1.1582-0.0078,1.3216,0.4492,1.1322,1.4671
			c-0.5259,2.8272-1.1584,5.6389-1.4186,8.5103c-0.0648,0.7151-0.125,1.434-0.1252,2.1512
			c-0.003,8.9185-0.1151,17.8394,0.053,26.7548c0.1139,6.0364,0.0723,12.0732,0.2274,18.1069
			c0.0472,1.8354,0.1866,3.6727,0.1583,5.5097c-0.0435,2.8211-1.1085,3.7671-3.9086,3.3881
			c-3.6419-0.493-7.2671-1.1101-10.9085-1.6079c-0.8853-0.121-1.3047-0.5217-1.6132-1.3227
			c-3.9665-10.2974-7.9614-20.5839-11.9484-30.8734c-0.9678-2.4977-1.9254-4.9995-2.9057-7.4923
			c-0.1677-0.4264-0.2245-0.9331-0.7295-1.2609c-0.5195,0.6877-0.5923,1.4794-0.5925,2.2547
			c-0.0025,9.1983,0.0265,18.3967,0.0187,27.5951c-0.0025,2.9955,0.8092,5.737,2.2583,8.3397
			c0.7259,1.3039,0.5884,1.4597-0.9175,1.4608c-5.919,0.0045-11.8381,0.0054-17.7572-0.0008
			c-1.5186-0.0016-1.6032-0.1263-0.9386-1.4576c2.0081-4.0224,2.7197-8.3319,2.8399-12.7693
			c0.1397-5.16-0.6286-10.2947-0.4694-15.4546c0.1294-4.195,0.3701-8.3896,0.2079-12.5868
			c-0.179-4.6297-0.3918-9.2592-0.6803-13.8831c-0.1173-1.8798-0.6895-3.6951-1.4162-5.4317
			c-0.3585-0.8567-0.1097-1.2523,0.6891-1.5235c0.6136-0.2083,1.2276-0.3261,1.8777-0.3255
			c6.6789,0.007,13.3579,0.0015,20.0368,0.0061c1.4216,0.001,1.4618,0.0261,1.0211,1.4216
			c-0.9192,2.9108-0.4921,5.7316,0.7055,8.417c3.3756,7.569,5.8339,15.4861,8.9148,23.165
			C316.4518,316.5504,316.5287,317.3224,317.3398,317.7589z"/>
		<path d="M109.9874,111.84c0,5.1999,0,10.3998,0.0001,15.5997c0,0.28-0.0038,0.5601,0.0027,0.84
			c0.0101,0.4357-0.0538,0.9064,0.4991,1.0992c0.6043,0.2107,0.7321-0.3143,0.9945-0.636c1.3399-1.6426,1.5141-3.638,1.7585-5.6308
			c0.54-4.4039,0.8573-8.8266,1.156-13.2499c0.1159-1.7162,0.9395-2.8853,2.3048-3.8421c2.2175-1.5541,4.765-2.0038,7.3492-2.3494
			c2.3475-0.314,4.4563-1.0373,6.2805-2.6775c2.1637-1.9455,4.6857-1.3891,6.1082,1.1575c0.6624,1.1859,0.8951,2.4637,0.892,3.8083
			c-0.0094,4.0798-0.0073,8.1597,0.0066,12.2395c0.0013,0.3726-0.1946,0.8928,0.2686,1.0741
			c0.3885,0.1521,0.7547-0.1876,1.0719-0.4217c1.1712-0.8644,1.6263-2.1218,1.9241-3.4834
			c0.8631-3.9467,1.4651-7.9327,1.9264-11.9446c0.1134-0.9866,0.3179-1.9857,0.6482-2.9199
			c0.872-2.4667,2.4413-4.2758,5.0581-5.0287c2.7422-0.7889,5.5793-1.01,8.3783-1.4604c0.6418-0.1033,0.881,0.1545,0.8055,0.7971
			c-0.5035,4.2849-0.9955,8.5712-1.4916,12.857c-0.1929,1.6667-0.4027,3.3316-0.5697,5.0009
			c-0.0452,0.4518-0.2256,1.0163,0.3131,1.3038c0.4925,0.2628,0.7885-0.223,1.1514-0.4361
			c1.1132-0.6534,1.6023-1.7012,1.9782-2.8855c1.3451-4.2372,2.3906-8.5252,2.9824-12.9477
			c0.6916-5.1685,2.946-7.0104,8.2955-7.2381c1.96-0.0834,1.926-0.0882,2.2001-2.0534c0.4471-3.2054,0.9394-6.4046,1.4242-9.6047
			c0.0656-0.4329,0.1739-0.8632,0.3037-1.2819c0.7547-2.4358,3.21-3.3063,5.36-1.9281c0.5334,0.3419,0.4242,0.7978,0.3385,1.2719
			c-0.796,4.405-1.5944,8.8095-2.3903,13.2145c-1.137,6.2927-2.2736,12.5854-3.4064,18.8788
			c-0.0766,0.4256-0.2312,0.888,0.2461,1.1959c0.5385,0.3474,0.8965-0.0364,1.2626-0.3452c1.4525-1.2253,2.359-2.8145,2.9548-4.5822
			c1.2384-3.6738,2.3901-7.363,3.0562-11.2055c0.7246-4.1796,3.2015-6.6867,6.9122-7.3148
			c1.6639-0.2816,3.2814-0.0084,4.7877,0.7271c1.887,0.9213,2.9621,2.8161,2.7073,4.9373
			c-0.4424,3.6835-2.1285,6.7471-4.9015,9.2063c-1.0458,0.9274-2.2929,1.3923-3.6644,1.6577
			c-2.8383,0.5491-3.321,2.0688-1.444,4.3104c0.4288,0.5121,0.9781,0.6635,1.6007,0.6578c2.8823-0.0266,4.9536-1.6106,6.7719-3.6084
			c1.4069-1.5458,2.4398-3.3611,3.4894-5.1585c0.5846-1.0012,1.1925-1.989,1.8043-2.974c0.1414-0.2277,0.2767-0.5853,0.5927-0.5149
			c0.3914,0.0873,0.3256,0.5005,0.3473,0.8055c0.2319,3.2632-0.7722,6.1633-2.6921,8.7518
			c-1.6047,2.1635-3.3661,4.2156-5.9105,5.3096c-3.1112,1.3377-6.2414,1.1161-9.3221-0.1977
			c-1.8283-0.7797-2.8147-0.543-4.1001,0.9807c-0.2577,0.3054-0.542,0.5882-0.8022,0.8916c-1.7181,2.004-3.7802,2.5602-6.2413,1.512
			c-0.4289-0.1827-0.9173-0.6066-1.1374,0.3099c-0.0984,0.4099-0.6514,0.3856-1.0425,0.446
			c-2.7247,0.4209-5.4499,0.8382-8.1744,1.2606c-0.8389,0.1301-1.621,0.3696-2.2864,0.9553
			c-0.7434,0.6543-1.6863,0.9874-2.6353,1.0701c-3.9421,0.3437-7.6113,1.8054-11.4185,2.695
			c-2.5019,0.5846-4.8715,1.378-6.9012,3.1297c-1.547,1.3351-3.1742,0.9485-4.2556-0.8395
			c-1.8319-3.0289-2.052-6.4058-1.9139-9.8485c0.1018-2.5366,0.7727-5.0863-0.1024-7.6127
			c-0.1398-0.4035-0.1141-0.9528-0.6616-1.0288c-0.5664-0.0786-0.6451,0.5025-0.8928,0.8371
			c-1.097,1.4821-1.3233,3.2237-1.4796,4.9868c-0.4234,4.7754-0.8638,9.5485-1.0173,14.3444
			c-0.0689,2.1527-0.9552,3.2146-2.643,3.4358c-1.469,0.1926-1.9074-0.1677-1.9098-1.6275
			c-0.0077-4.6399-0.0031-9.2798-0.0033-13.9198c0-1,0.0221-2.0007-0.0097-2.9996c-0.0157-0.4925,0.2273-1.1344-0.3439-1.4191
			c-0.5465-0.2723-1.0926,0.0841-1.5744,0.3523c-1.0853,0.6044-1.4985,1.6446-1.5999,2.7993
			c-0.4477,5.0997-0.7341,10.2051-0.3375,15.324c0.0719,0.9275-0.054,1.8424-0.2293,2.7421
			c-0.2604,1.3361-1.2439,2.1213-2.789,2.1461c-0.9749,0.0157-1.7771,0.306-2.5408,0.8836c-2.0868,1.5783-4.566,2.275-7.0157,3.0134
			c-1.9623,0.5915-3.8599,1.3098-5.6008,2.4099c-0.8635,0.5457-1.8736,0.6757-2.8358,0.9344
			c-1.1393,0.3063-2.2099,0.7526-3.0023,1.6566c-1.1174,1.2747-2.4287,1.9372-4.1442,1.4641
			c-1.7793-0.4907-2.8996-1.6576-3.3216-3.4391c-0.5262-2.2214-0.6803-4.5009-0.9428-6.762
			c-0.2772-2.3877-0.5752-4.7667-1.6581-6.9609c-0.1192-0.2416-0.1368-0.6069-0.4691-0.628
			c-0.3253-0.0207-0.4099,0.3354-0.5648,0.5541c-0.9514,1.3432-1.4062,2.7946-1.3782,4.4865
			c0.0716,4.3235,0.4293,8.6197,0.9751,12.9024c0.2377,1.8653-0.3777,3.2595-1.7325,4.5885
			c-2.3135,2.2695-4.9779,3.6348-8.1515,4.2255c-1.7691,0.3293-3.3888,1.2162-4.107,3c-1.3776,3.4215-5.7342,2.9446-7.5906,0.2105
			c-0.4077-0.6004-0.655-1.2702-0.7863-1.9931c-0.9442-5.197-1.4423-10.4492-1.8605-15.7056
			c-0.2903-3.6478,0.8113-5.3739,4.1712-6.8581c2.3397-1.0335,4.7229-1.9685,7.0848-2.9517
			c1.1997-0.4994,1.3342-0.4172,1.5213,0.8586c0.8523,5.8115,1.7094,11.6223,2.5769,17.4315
			c0.0662,0.4433-0.0559,1.0669,0.5944,1.1671c0.7206,0.111,0.7529-0.5844,0.9828-1.0109c1.8586-3.447,1.2501-7.1768,1.1522-10.8239
			c-0.0814-3.0319-0.4263-6.0559-0.5854-9.087c-0.0955-1.8181,0.6438-2.7169,2.4014-2.99c1.0368-0.1611,1.8746-0.5982,2.641-1.2914
			c1.0449-0.9452,2.2096-1.7224,3.5745-2.1418c2.2653-0.696,3.9152,0.0212,4.9604,2.1432c0.8713,1.769,0.998,3.6952,1.1101,5.6076
			c0.1381,2.3531,0.188,4.7117,0.2571,7.0685c0.0191,0.6503,0.103,1.2825,0.3973,1.8604c0.2448,0.4809,0.3631,1.2738,0.9194,1.2692
			c0.495-0.0041,0.8085-0.7088,1.0832-1.1897c0.6778-1.1868,0.6357-2.5491,0.8228-3.8417
			c0.5676-3.9195,0.8569-7.8584,0.8123-11.8286c-0.0616-5.4743,1.2035-6.9533,6.6048-8.0535
			c2.0177-0.411,2.0182-0.411,2.0184-2.4247c0.0004-3.4399,0.0001-6.8799,0.0002-10.3198c0-0.32-0.004-0.6401,0.0031-0.96
			c0.0718-3.2341,1.8175-4.5282,4.9822-3.7329c0.751,0.1887,0.6106,0.7503,0.6132,1.2356c0.0158,3.0399,0.0089,6.0799,0.0092,9.1198
			C109.9875,107.04,109.9874,109.44,109.9874,111.84z M100.3468,123.2958c-0.1523,3.2401,0.2706,6.3459,1.3365,9.354
			c0.0972,0.2744,0.1188,0.7082,0.5264,0.7032c0.3026-0.0037,0.3914-0.3649,0.533-0.5944c1.2954-2.0997,1.8235-4.4295,1.831-6.8527
			c0.0083-2.6701-0.1542-5.3404-0.2155-8.0112c-0.0197-0.8581-0.4626-1.5068-0.91-2.1686c-0.1384-0.2047-0.2979-0.3677-0.578-0.3484
			c-0.73,0.0503-2.1914,1.4756-2.2479,2.2406C100.4814,119.527,100.2548,121.4317,100.3468,123.2958z M69.3096,144.4282
			c-0.1152-3.6564-1.1804-7.153-1.7654-10.7265c-0.091-0.5559-0.5824-1.1989-1.3065-0.5916
			c-0.9839,0.8252-1.7995,1.7035-1.664,3.2216c0.3898,4.3653,0.8913,8.716,1.4548,13.0608
			c0.0691,0.5327-0.0596,1.1781,0.7413,1.2922c0.7395,0.1054,1.0779-0.3539,1.3477-0.9341
			C68.9036,148.0608,69.2599,146.2774,69.3096,144.4282z M170.8631,97.809c-0.038-0.605-0.0143-1.2004-0.1932-1.787
			c-0.2419-0.7933-0.6713-1.4241-1.5588-1.4011c-0.9198,0.0238-1.561,0.5378-1.7951,1.4705
			c-0.0679,0.2706-0.135,0.5431-0.1758,0.8186c-0.6528,4.4152-1.3239,8.8279-1.9214,13.2506
			c-0.0733,0.5424-0.6424,1.3907,0.1953,1.6923c0.8041,0.2895,1.136-0.6038,1.4632-1.1416
			C169.2888,106.748,170.4295,102.3846,170.8631,97.809z M146.9596,111.7554c0,1.3967-0.0144,2.7937,0.0094,4.19
			c0.0066,0.3875,0.0289,0.8722,0.4854,1.0061c0.4927,0.1446,0.6824-0.3141,0.8796-0.6482
			c0.3039-0.5149,0.6121-1.0327,0.8541-1.5778c1.74-3.919,1.8636-8.1315,2.1722-12.3033c0.068-0.9197-0.613-1.6178-1.0681-2.3617
			c-0.1347-0.2202-0.3497-0.3804-0.5956-0.1798c-1.0103,0.8243-2.1435,1.5212-2.3039,3.0386
			C147.0819,105.8584,146.8918,108.8002,146.9596,111.7554z M185.789,96.4827c-0.0549,0.7768,0.1254,1.6763,0.2599,2.5828
			c0.0998,0.6727,0.3404,0.9512,1.0211,0.5679c1.6387-0.9229,2.8372-2.1072,3.0426-4.1361
			c0.1063-1.0496-0.0642-2.0616-0.0478-3.0894c0.0176-1.0967-0.4667-1.2872-1.4261-0.9921
			C186.6106,92.0397,185.7805,93.4352,185.789,96.4827z"/>
		<path d="M276.4713,414.0848c1.513-0.4949,2.805-1.3123,3.9943-2.3005c2.3867-1.9832,3.8632-4.57,4.7574-7.4908
			c1.0294-3.3625,2.0677-6.7245,2.7328-10.1881c0.5411-2.8184,1.3915-3.5732,4.252-3.379c3.803,0.258,3.1027-0.0368,2.2589,2.9846
			c-1.957,7.008-3.9966,13.993-5.9956,20.9894c-0.147,0.5146-0.4937,1.0495,0.0534,1.5557
			c0.5877,0.5436,1.0352,0.0166,1.5124-0.1936c2.7274-1.2012,4.2741-3.5359,5.6548-5.9979
			c1.8728-3.3394,2.9317-6.9943,4.027-10.6344c0.7705-2.5606,1.4347-5.1645,3.1668-7.3244
			c2.8226-3.5197,7.7339-5.2205,11.9275-4.0736c2.9973,0.8196,4.5731,3.4314,3.8916,6.4611
			c-0.163,0.7247-0.5386,1.3393-1.0929,1.8244c-1.1127,0.9737-2.2438,1.9265-3.3685,2.8864
			c-0.6537,0.5579-0.7938,0.1374-0.8617-0.4484c-0.2255-1.9443-0.4942-3.8846-0.6686-5.8334
			c-0.0736-0.8224-0.4673-1.0049-1.1783-0.935c-2.044,0.2009-3.2362,1.4961-3.9609,3.2415
			c-0.7041,1.6957-1.2654,3.4525-1.8511,5.1952c-0.8924,2.6552-1.6044,5.3608-2.17,8.1046
			c-0.0403,0.1955-0.0887,0.3906-0.1109,0.5884c-0.4616,4.1143,0.5089,5.1399,4.6397,5.3753
			c2.4117,0.1374,4.1667-0.5917,5.6886-2.5324c3.5687-4.5509,6.9168-9.2104,8.8607-14.7191
			c0.531-1.5049,0.9384-3.0594,1.3112-4.6131c0.6952-2.8977,2.5327-4.7186,5.2169-5.8271c1.9059-0.7871,3.882-1.263,5.9318-1.3646
			c4.0827-0.2024,6.746,2.2007,7.1732,6.4062c0.67,6.5956-4.8186,13.6636-11.3723,14.6766
			c-1.1363,0.1756-2.2277-0.1078-3.3404-0.1712c-1.809-0.1031-2.3632,0.4625-1.7827,2.185
			c1.2818,3.8031,3.7238,5.2299,7.7496,4.0466c4.4254-1.3008,7.4901-4.3079,9.7686-8.2015
			c1.2925-2.2087,2.5503-4.4378,3.8353-6.6509c0.1708-0.2942,0.2733-0.8126,0.6825-0.7249c0.4519,0.0968,0.395,0.6429,0.4362,1.0144
			c0.2359,2.1264-0.2524,4.1512-1.0602,6.083c-3.1849,7.6159-8.8684,11.9322-17.1155,12.7704
			c-1.9189,0.195-3.744-0.2625-5.4568-1.1111c-1.3965-0.6918-2.7865-1.4084-4.119-2.2137
			c-0.7724-0.4668-1.3726-0.3819-2.0908,0.0653c-2.7827,1.7329-5.5929,3.4187-8.4267,5.0703
			c-5.0154,2.923-9.4275,0.6584-11.9543-2.4793c-0.6916-0.8588-1.0935-0.8163-1.8775-0.1576
			c-2.17,1.8231-4.2909,3.7241-6.8904,4.9648c-2.9386,1.4026-4.7574,0.7733-6.0574-2.2224c-0.3955-0.9115-0.6993-1.879-0.909-2.8503
			c-0.1948-0.9023-0.4738-1.1531-1.3482-0.6521c-3.3642,1.9279-6.8237,3.6884-10.0329,5.8854
			c-2.4986,1.7105-5.2104,2.7718-8.3246,2.5051c-1.8162-0.1556-3.445-0.7799-4.7964-1.972c-0.8-0.7057-1.2579-0.5794-1.9445,0.1584
			c-2.7259,2.9301-6.0461,4.0639-9.9946,3.0505c-2.8575-0.7333-3.9931-2.4926-3.3273-5.3608
			c1.2876-5.5468,3.1989-10.8861,5.4997-16.0911c0.8769-1.9837,1.065-3.9411-0.4758-5.7325
			c-0.8399-0.9765-1.0067-0.9478-1.4005,0.2551c-1.4801,4.5208-2.8078,9.0944-4.6525,13.4891
			c-1.7742,4.2268-3.8141,8.3004-7.1891,11.5176c-3.8871,3.7053-8.5462,5.5517-13.9201,5.4433
			c-4.3436-0.0876-8.1834-3.5791-8.5794-7.7212c-0.139-1.4537,0.2236-2.8627,0.6215-4.245
			c1.2835-4.4581,2.8483-8.8265,4.2652-13.2405c1.8845-5.8707,10.3181-7.8564,14.6817-5.6017
			c2.5185,1.3013,3.3456,3.4842,3.3135,6.0539c-0.0742,5.9336-4.0886,11.3947-9.0575,13.1294
			c-1.7004,0.5936-3.4215,0.7523-5.1966,0.468c-1.8295-0.2931-2.4001,0.2032-2.4706,2.0704
			c-0.1467,3.8866,1.9049,5.301,5.6908,5.0767c4.2488-0.2519,7.2139-2.7614,9.8174-5.825
			c4.3404-5.1075,6.4982-11.2144,8.1266-17.5874c0.5714-2.2362,0.6956-4.38,0.0012-6.6026
			c-0.5296-1.695-0.6057-3.4542-0.2457-5.2181c0.2607-1.2773,1.1616-1.7055,2.3151-1.8976c1.182-0.1968,1.7733,0.4427,2.2154,1.3969
			c0.3696,0.7976,0.7854,1.5737,1.1744,2.3624c0.8857,1.7955,2.1389,3.1734,3.8964,4.2464c3.4857,2.128,4.2717,4.3642,2.9946,8.2478
			c-1.4235,4.329-3.0292,8.5983-4.2406,12.9966c-0.127,0.4608-0.2802,0.9312-0.2981,1.4017
			c-0.0351,0.9206,0.0014,1.9004,0.7999,2.5064c0.4632,0.3515,2.2442-0.6376,2.7025-1.4318
			c1.0992-1.9049,2.1935-3.8133,3.2471-5.7435c1.0153-1.8599,1.9392-3.7701,2.9711-5.6203c1.5966-2.863,2.6225-5.9062,3.1368-9.1388
			c0.1311-0.8242,0.3459-1.6489,0.6355-2.4314c1.0479-2.832,3.5417-3.9654,6.3891-2.984c0.6238,0.215,0.8038,0.5468,0.619,1.1734
			c-1.786,6.0568-3.1914,12.2251-5.3374,18.1768c-0.3251,0.9016-0.6164,1.8167-0.8866,2.7363
			c-0.1706,0.5808-0.2642,1.2172-0.0211,1.7717c0.304,0.6936,0.3433,1.6858,1.2503,1.8782
			c0.7244,0.1538,2.1411-1.4675,2.1907-2.3636c0.0547-0.9882,0.2444-1.9637,0.9938-2.6296
			c3.9043-3.4688,5.3028-8.1824,6.4553-12.9925c0.5294-2.2098,0.8619-4.4734,1.1631-6.7288
			c0.1744-1.3058,0.5902-2.2094,2.0556-2.2523c0.0789-0.0023,0.1573-0.028,0.2356-0.044c3.3409-0.6869,2.9337-1.2115,3.2537,2.4904
			c0.3432,3.9697-0.6957,7.7778-2.0088,11.4948c-0.8257,2.3371-1.7185,4.6504-2.569,6.9789
			C276.5467,413.149,276.3019,413.4962,276.4713,414.0848z M330.2592,402.463c0.7242,0.0443,1.3972-0.4163,1.9186-1.2253
			c1.2779-1.9828,2.257-4.146,3.5573-6.1003c1.0211-1.5347,0.8777-2.7605-0.2467-4.0496c-0.1829-0.2097-0.3257-0.4541-0.5072-0.6652
			c-0.2211-0.2572-0.5203-0.3989-0.8546-0.3394c-1.5193,0.2704-2.9855,0.6219-3.6998,2.2457
			c-1.0849,2.466-1.7263,5.0615-2.2136,7.6927C327.9665,401.3541,328.8543,402.458,330.2592,402.463z M221.2816,412.7733
			c4.7236-0.0827,8.4389-5.4273,6.8928-9.7697c-0.1583-0.4445-0.2739-0.9336-0.7872-1.1416
			c-1.3513-0.5477-3.9137,0.4569-4.5011,1.8016c-1.109,2.5386-1.6677,5.2517-2.4686,7.8883
			C220.1247,412.5154,220.3402,412.9424,221.2816,412.7733z"/>
		<path d="M470.196,313.2436c0.7425-2.2137,1.411-4.334,2.1634-6.4241c1.678-4.6613,3.6197-9.2382,4.3286-14.1962
			c0.37-2.5872,0.441-5.1746-0.0309-7.7473c-0.1917-1.0451,0.0327-1.4512,1.163-1.4442c5.9194,0.0371,11.8392,0.0106,17.7588,0.0236
			c1.3062,0.0028,1.405,0.1723,0.9183,1.4107c-4.4318,11.2755-9.0082,22.4951-13.1133,33.8969
			c-1.6389,4.5519-3.2704,9.1064-4.8824,13.6679c-0.3597,1.0179-0.5934,2.0742-0.5937,3.1685
			c-0.0028,8.2393,0.0392,16.4789-0.0337,24.7177c-0.0343,3.8781,0.6343,7.5374,2.5019,10.9641
			c0.3522,0.6461,1.0307,1.5099,0.6389,2.0728c-0.448,0.6435-1.3988,0.0354-2.104-0.1067
			c-5.2098-1.0498-10.4591-1.9144-15.5996-3.2957c-0.6912-0.1857-1.4167-0.241-2.1224-0.3766
			c-1.7081-0.3284-2.2373-1.1719-1.7121-2.8429c0.4552-1.4483,1.0517-2.8541,1.4699-4.3119
			c0.8972-3.1279,1.3547-6.3148,1.2704-9.5889c-0.076-2.9543-0.0252-5.9066,0.1872-8.8659
			c0.5216-7.2691-0.941-14.2663-3.4865-21.0214c-3.8911-10.3259-7.9158-20.6018-11.9352-30.8788
			c-1.0247-2.6201-2.7883-4.8453-4.2198-7.2477c-0.7272-1.2204-0.6489-1.364,0.8063-1.3656
			c6.3996-0.0072,12.7992-0.0074,19.1987,0.0001c1.4857,0.0017,1.5627,0.1075,1.1331,1.4942
			c-1.3861,4.4737-0.5406,8.7783,0.9759,13.0307c0.9533,2.6733,1.9327,5.3372,2.8889,8.0095
			c0.5005,1.3987,0.7299,2.8629,1.0154,4.3144C468.9884,311.3551,469.3566,312.3494,470.196,313.2436z"/>
		<path d="M193.4483,282.9681c5.6391,0,11.2798-0.078,16.9165,0.0374c2.3481,0.0481,4.7139,0.0348,7.0558,0.3868
			c3.4606,0.5203,5.1747,2.4719,5.3651,5.974c0.4086,7.515,0.0088,15.0261-0.0654,22.5376
			c-0.0466,4.7181-2.5483,7.084-7.8612,7.4999c-4.6986,0.3678-9.4116,0.5539-14.1189,0.8066
			c-1.875,0.1007-3.7535,0.1396-5.6275,0.2531c-1.871,0.1133-2.632,0.8553-2.6142,2.7131
			c0.0498,5.1927-0.3276,10.3853,0.0231,15.5783c0.0879,1.3014,0.4452,2.5141,0.9487,3.6953
			c0.3762,0.8825,0.7792,1.754,1.187,2.6224c1.0872,2.3155,1.061,2.3407-1.4539,2.4713
			c-6.0244,0.3129-12.0469,0.6602-18.0716,0.9671c-1.6029,0.0817-1.6109,0.0353-0.9452-1.4293
			c2.0213-4.4468,2.7549-9.1588,2.8886-13.9942c0.1405-5.0814-0.5525-10.142-0.4542-15.2159
			c0.1409-7.2744,0.2042-14.5485,0.2871-21.823c0.0417-3.6576-0.421-7.1478-1.658-10.5831
			c-1.0265-2.8509-1.054-2.5424,1.7599-2.5476c5.4793-0.0101,10.9587-0.0029,16.438-0.0029
			C193.4483,282.9328,193.4483,282.9504,193.4483,282.9681z M207.0716,300.8154c-0.0217-1.6732,0.1575-3.8805-0.5006-6.0291
			c-0.2658-0.868-0.6891-1.4904-1.6802-1.6235c-3.3685-0.4523-6.739-0.832-10.1475-0.7863
			c-0.8324,0.0112-1.2544,0.3581-1.4067,1.1439c-0.9502,4.9039-1.1021,9.8401-0.5234,14.7928
			c0.199,1.7036,1.1569,2.572,2.8821,2.6445c2.7614,0.1161,5.5162-0.0986,8.2294-0.6107c1.9826-0.3742,2.6632-1.268,2.92-3.2644
			C207.0907,305.1712,207.079,303.2546,207.0716,300.8154z"/>
		<path d="M251.6473,345.8891c-7.1583,0-14.3166,0.0018-21.4749-0.0051c-0.3882-0.0003-0.9073,0.1699-1.1303-0.1825
			c-0.2858-0.4516,0.2253-0.7946,0.4444-1.1429c1.9441-3.0899,2.8556-6.4823,3.0488-10.1013
			c0.263-4.9251-0.5306-9.8169-0.4575-14.7313c0.0528-3.5531,0.3874-7.1035,0.3952-10.6555
			c0.0128-5.835-0.1351-11.6703-0.2205-17.5054c-0.0293-2.0035-0.8295-3.8048-1.4756-5.6523
			c-0.9774-2.7947-0.6598-3.2155,2.3139-3.2131c5.5585,0.0044,11.1209-0.1079,16.6747,0.0592
			c7.7562,0.2334,15.5108,0.097,23.2659,0.1363c1.1008,0.0056,1.5286,0.3026,1.6025,1.4694
			c0.233,3.6765,0.1414,7.3527,0.1568,11.029c0.0051,1.2186-0.1257,1.295-1.2273,0.8c-4.6197-2.0758-9.3767-3.6873-14.4483-4.1826
			c-3.2719-0.3195-6.5447-0.2594-9.8084,0.1758c-0.8308,0.1107-1.1149,0.5333-1.1097,1.3711
			c0.0304,4.9186,0.0353,9.8377-0.002,14.7563c-0.0077,1.0139,0.3592,1.3413,1.3413,1.2733
			c4.6219-0.3204,9.2461-0.6056,13.8698-0.8989c1.1166-0.0708,2.2356-0.1076,3.351-0.1935c0.6097-0.0469,0.904,0.1778,0.9035,0.7978
			c-0.003,3.3192-0.0045,6.6383,0.0034,9.9574c0.0017,0.7012-0.3342,0.8746-0.99,0.808c-4.1323-0.4196-8.2673-0.8129-12.4014-1.2156
			c-1.7489-0.1704-3.4991-0.3289-5.2457-0.5202c-0.7847-0.0859-1.0868,0.2249-1.0822,1.0038
			c0.0279,4.7587,0.0105,9.5176,0.0598,14.276c0.0179,1.7318,1.518,2.912,3.6362,3.0724
			c7.4045,0.5603,14.3888-0.9533,21.0267-4.2106c1.9187-0.9415,1.9204-0.9395,1.9207,1.219
			c0.0005,3.4392,0.0015,6.8784-0.0005,10.3176c-0.001,1.8862-0.0035,1.888-1.9452,1.8883
			C265.644,345.8896,258.6456,345.8891,251.6473,345.8891z"/>
		<path d="M385.3698,127.1437c2.935,0.1172,5.3924-0.6289,7.4977-2.2725c2.8034-2.1885,5.4875-4.5291,8.2487-6.7725
			c1.5538-1.2624,3.21-2.3848,5.0001-3.2952c1.6899-0.8595,3.3896-0.8714,5.0594,0.0298c1.7651,0.9527,3.0998,2.3933,4.1992,4.0285
			c0.9321,1.3863,0.6606,2.8158-0.1664,4.1807c-1.0151,1.6754-2.4749,2.9233-3.9893,4.1085
			c-1.2909,1.0104-2.6158,1.9775-3.9352,2.9511c-0.5003,0.3691-0.8771,0.7449-0.3562,1.3642
			c0.4303,0.5116,0.6075,1.2155,1.6644,0.8446c3.7587-1.3191,6.8408-3.5525,9.489-6.4785c0.8592-0.9493,1.9382-1.6637,3.0095-2.3705
			c2.0928-1.3807,4.2311-1.4942,6.4709-0.3557c1.1496,0.5843,2.2091,1.2985,3.2098,2.0922c0.5624,0.4461,1.0275,0.4425,1.63,0.1275
			c1.4048-0.7345,2.5341-1.8072,3.667-2.8779c1.3056-1.234,2.4765-2.6097,3.9947-3.6164c2.2493-1.4915,4.6809-1.9937,7.316-1.4262
			c0.441,0.095,1.1024,0.002,1.2332,0.5464c0.1091,0.4544-0.4499,0.7103-0.7679,0.9905
			c-4.2297,3.7271-8.4704,7.4417-12.7072,11.1609c-4.2066,3.6927-8.4144,7.3839-12.6124,11.0864
			c-0.3064,0.2703-0.8096,0.5076-0.5635,1.0624c0.2733,0.616,0.8414,0.5369,1.3539,0.4525
			c3.0261-0.4982,5.6818-1.8321,8.1527-3.6031c3.287-2.3559,6.1484-5.2361,9.4297-7.6021c0.7825-0.5642,1.3725-0.6338,2.1271-0.0454
			c0.5646,0.4403,1.2142,0.7708,1.8217,1.1568c1.5173,0.964,1.5275,0.9789,0.1906,2.0928
			c-2.9489,2.4571-5.9103,4.8993-8.8666,7.3476c-1.5704,1.3006-3.1446,2.5969-4.7074,3.9066
			c-0.2644,0.2216-0.7293,0.4236-0.6081,0.81c0.1496,0.4771,0.6809,0.2936,1.0533,0.3178c2.2216,0.1446,4.1472-0.7144,5.9723-1.8448
			c3.9629-2.4543,7.4303-5.544,10.9034-8.6183c0.6333-0.5606,1.1298-0.718,1.8961-0.2877c1.0435,0.5862,2.1434,1.0769,3.2386,1.5647
			c0.8562,0.3814,0.8838,0.717,0.1433,1.315c-4.6353,3.7433-9.2538,7.5076-13.8514,11.297
			c-0.4954,0.4083-1.5144,0.6893-1.1216,1.5695c0.3899,0.8738,1.3327,0.5149,2.0523,0.4082
			c3.6584-0.5426,6.5552-2.6364,9.4617-4.7041c1.6612-1.1817,3.2569-2.4608,5.0333-3.473c2.1058-1.2,4.308-1.8468,6.7764-1.3153
			c3.7556,0.8086,6.349,4.4188,5.6907,7.951c-0.1927,1.0335-0.6929,1.6847-1.7159,1.894c-1.4091,0.2884-2.825,0.5438-4.2355,0.8257
			c-0.7006,0.14-0.7817-0.1125-0.4977-0.6901c0.7057-1.4351,1.375-2.8884,2.0958-4.3157c0.3549-0.7027,0.2538-0.9856-0.5906-1.0334
			c-1.795-0.1015-3.447,0.075-4.9957,1.1941c-2.01,1.4524-4.0456,2.8658-5.9489,4.4584c-0.4287,0.3588-0.8327,0.7495-1.2283,1.1453
			c-1.1905,1.1913-1.7376,2.6718-1.3072,4.2721c0.3766,1.4001,1.7816,1.7894,3.0224,2.0616
			c3.5708,0.7836,6.9124-0.048,10.0598-1.7422c3.1855-1.7148,5.904-4.1055,8.8006-6.2374c0.3568-0.2626,0.5673-0.6103,0.4687-1.0292
			c-0.2222-0.944,0.2629-1.3508,1.0463-1.7078c2.2912-1.0441,4.5475-2.1624,6.8376-3.2122
			c2.4548-1.1253,4.6144-0.2476,6.8204,0.5561c0.7513,0.2737,0.6556,1.4737-0.1614,2.0851c-1.3445,1.006-2.701,2.0013-4.1063,2.9187
			c-0.7881,0.5146-0.9742,1.0371-0.5546,1.8842c0.3891,0.7857,0.652,1.6331,0.9923,2.4441c0.2646,0.6306,0.0186,1.0968-0.455,1.4714
			c-0.4922,0.3893-0.8096-0.0602-1.1379-0.3133c-2.6547-2.0462-4.6249-2.2171-7.287-0.1851
			c-3.1205,2.382-6.3754,4.5553-9.6231,6.7467c-0.7404,0.4996-1.3171,1.1599-1.8134,1.8957
			c-0.248,0.3676-0.5237,0.7123-0.2117,1.1947c0.3356,0.5189,0.7982,0.4545,1.2765,0.3268
			c2.4719-0.6604,4.9416-1.3287,7.4124-1.9928c1.2741-0.3425,2.5469-0.6904,3.8252-1.0166c0.2945-0.0752,0.646-0.2828,0.9046,0.0029
			c0.294,0.3247,0.061,0.6867-0.0822,1.0051c-0.4232,0.9409-1.1437,1.646-1.9608,2.2279c-2.8072,1.9992-5.9641,3.1011-9.3872,3.2799
			c-3.6198,0.1891-6.215-1.6203-7.3711-5.1035c-0.3331-1.0036-0.8282-1.3839-1.8221-1.4729
			c-1.8753-0.1679-3.7051-0.5839-5.4902-1.2078c-3.3741-1.1792-5.5711-3.3838-6.1285-6.9993
			c-0.1196-0.7755-0.3806-1.0805-1.1593-0.8111c-3.7615,1.3012-6.7291,0.0959-9.0868-2.9308
			c-0.8404-1.0789-1.8931-1.3895-3.2383-1.3777c-2.8396,0.025-4.2574-1.1142-4.9839-3.8671
			c-0.1761-0.6674-0.4848-0.8808-1.1229-0.9789c-1.0765-0.1654-2.1538-0.1212-3.2306-0.169
			c-2.1658-0.0963-3.7794-1.0045-4.4429-3.1709c-0.2372-0.7745-0.6974-1.0264-1.4504-1.1636
			c-1.6484-0.3004-3.3221-0.5155-4.9148-1.0696c-1.6715-0.5815-2.1557-1.2507-2.2085-3.0062
			c-0.0241-0.7993-0.0481-1.6016-0.0055-2.399c0.0443-0.8302-0.1723-1.1974-1.0878-0.9394
			c-1.3455,0.3792-2.7791,0.5201-4.0586,1.046c-4.9079,2.0175-9.1074-0.7554-10.8974-4.4902
			c-0.5523-1.1524-1.0814-1.3484-2.149-0.7604c-0.6198,0.3414-1.3319,0.5517-2.0276,0.7125
			c-2.3476,0.5429-4.1693-0.1127-5.3959-1.881c-1.563-2.2531-1.6832-4.2704-0.2523-6.3566c1.6045-2.3392,3.9626-3.933,5.9908-5.8522
			c1.597-1.5113,3.2363-2.978,4.8622-4.4586c0.3461-0.3152,0.6285-0.5807,0.2506-1.0995c-0.3694-0.507-0.7326-0.6512-1.3145-0.3726
			c-1.4009,0.6707-2.5118,1.687-3.5304,2.83c-1.2238,1.3733-2.4371,2.7557-4.0215,3.7489
			c-0.9381,0.5881-1.9636,0.8857-3.0406,1.0343c-0.3019,0.0416-0.696,0.1316-0.8763-0.1972
			c-0.1988-0.3624,0.1773-0.5735,0.377-0.7955c0.802-0.8916,1.5901-1.7993,2.4415-2.6423c2.568-2.5424,4.5078-5.4882,5.8419-8.8439
			c0.7542-1.8969,1.7556-3.5807,3.7458-4.4763c0.5735-0.2581,0.9412-0.3257,1.2993,0.25c0.2952,0.4746,0.6375,0.9199,0.9599,1.3775
			c0.496,0.7038,0.7189,1.347,0.0534,2.15c-0.7064,0.8523-0.4319,1.8162,0.0918,2.6886c0.7932,1.3212,1.3055,2.7084,1.4337,4.2724
			c0.142,1.733-0.2007,3.2283-1.4242,4.5194c-1.5155,1.5993-3.1528,3.0654-4.7793,4.5453
			C388.453,123.2357,386.9442,125.0385,385.3698,127.1437z M427.1538,128.1504c-0.1035-0.6118,0.2702-1.3745-0.5742-1.7859
			c-0.8926-0.4349-1.3473,0.245-1.847,0.704c-3.7969,3.4867-7.577,6.9916-11.3522,10.5019
			c-0.2949,0.2742-0.8009,0.5092-0.4889,1.0732c0.3152,0.5698,0.8288,0.5479,1.3628,0.4207
			c1.0518-0.2504,2.0765-0.574,3.0555-1.0457c3.5451-1.7081,6.1167-4.5723,8.7728-7.3411
			C426.766,129.9655,427.4027,129.258,427.1538,128.1504z M408.5677,118.8306c-0.3985,0.0101-0.8034,0-1.1637,0.2075
			c-1.7497,1.0079-3.334,2.2178-4.3194,4.0219c-0.7259,1.3287-0.95,2.7652-0.5845,4.2798c0.1897,0.786,0.6997,1.305,1.3735,1.5254
			c0.6064,0.1984,0.8202-0.5125,1.1184-0.897c1.465-1.8888,2.9066-3.7957,4.3517-5.6999c0.315-0.415,0.5862-0.859,0.6807-1.3823
			C410.2473,119.6513,409.6698,118.8414,408.5677,118.8306z M400.3796,128.6555c-0.0388-0.6447-0.5259-0.7393-0.8774-0.958
			c-0.351-0.2184-0.687-0.193-0.9315,0.1708c-0.5301,0.7887-1.0474,1.5859-1.5724,2.378c-0.2483,0.3747-0.1696,0.7034,0.2056,0.8988
			c0.4629,0.2411,1.0352,0.9779,1.425,0.5027C399.3682,130.7466,399.8357,129.6223,400.3796,128.6555z"/>
		<path d="M279.8524,103.6929c3.4193-3.0847,6.1374-6.5805,8.1995-10.5424c3.3959-6.5247,6.6713-13.1121,10.0015-19.671
			c0.8253-1.6254,3.6535-2.8556,5.372-2.3635c0.3979,0.1139,0.4425,0.4039,0.4608,0.7373c0.0666,1.2162-0.0978,2.3559-0.689,3.4714
			c-4.1561,7.8427-8.269,15.7084-12.4079,23.5602c-0.5826,1.1053-1.0525,2.2446-1.2826,3.4726
			c-0.0828,0.4418-0.4144,0.9529,0.1436,1.3091c0.5195,0.3316,0.9156-0.0936,1.3053-0.3245
			c1.2573-0.7449,2.285-1.7625,3.1247-2.9408c2.0649-2.8976,4.1422-5.7912,5.5165-9.1112c0.2899-0.7003,0.7128-1.3457,0.9986-2.0474
			c0.8487-2.0842,2.6913-2.6993,4.62-3.2214c0.5645-0.1528,0.7097,0.1607,0.7978,0.5983c0.3529,1.752,0.4573,3.4193-0.5298,5.094
			c-1.9888,3.3743-3.8339,6.8333-5.7391,10.2569c-0.2911,0.5231-0.648,1.0267-0.653,1.6538
			c-0.0034,0.425-0.1878,0.9742,0.2301,1.2276c0.4208,0.2551,0.9584,0.0514,1.3654-0.1793
			c0.3327-0.1885,0.6087-0.5149,0.8455-0.8288c3.1069-4.1182,6.1837-8.2572,9.0481-12.552
			c0.6732-1.0094,1.0044-1.9885,0.5765-3.1378c-0.2809-0.7544-0.0425-1.3093,0.5242-1.8063
			c2.1716-1.9045,4.0779-4.0333,5.771-6.3875c1.2998-1.8074,3.3895-2.0758,5.3701-1.0231c0.6464,0.3436,0.7407,0.6966,0.3764,1.3281
			c-0.9189,1.5927-1.7776,3.2201-2.6719,4.8271c-0.7405,1.3307-0.7242,1.3837,0.7751,1.8393
			c0.6119,0.1859,1.2224,0.3768,1.8378,0.5504c0.7473,0.2108,0.986,0.4816,0.2381,1.0617
			c-0.6566,0.5092-1.3105,0.8617-2.1869,0.7544c-2.2042-0.2699-3.8412,0.7173-4.9023,2.5539
			c-2.3195,4.0144-4.5558,8.0768-6.8101,12.1286c-0.3837,0.6897-0.6105,1.6347-0.1472,2.1619
			c0.5135,0.5844,1.4497,0.1563,2.1149-0.1391c2.3227-1.0318,4.1469-2.7074,5.6225-4.7406c2.185-3.0106,4.0906-6.2049,5.9659-9.4139
			c0.5976-1.0226,3.5874-2.5544,4.6377-2.2912c0.2192,0.0549,0.3671,0.1776,0.4003,0.3882
			c0.2239,1.4175,0.5639,2.8279-0.2859,4.1925c-2.1557,3.4617-4.2682,6.9502-6.4232,10.4124
			c-0.6474,1.0402-1.0451,2.1495-1.2211,3.3523c-0.0465,0.3181-0.162,0.6394,0.2068,0.8489
			c0.3538,0.2009,0.6073-0.0128,0.8594-0.2156c1.6913-1.3607,3.2013-2.8842,4.4231-4.6956
			c2.1688-3.2155,4.3879-6.3969,6.5634-9.6079c0.786-1.1602,1.7741-2.0432,3.0734-2.5807c1.4137-0.5849,2.3896-0.4333,3.1428,0.5252
			c0.8186,1.0418,0.3015,1.9777-0.2948,2.8546c-2.6756,3.9346-5.3742,7.8535-8.0656,11.7773
			c-0.5218,0.7608-1.0048,1.5476-1.3175,2.416c-0.1353,0.3757-0.562,0.8516-0.0716,1.1863c0.4168,0.2845,0.7212-0.213,1.0006-0.4537
			c2.8474-2.4523,5.6796-4.9223,8.5172-7.386c0.8102-0.7035,1.4881-0.5894,1.8866,0.2992c0.2429,0.5418-0.1219,0.9232-0.3441,1.325
			c-2.2064,3.9897-5.4852,6.8213-9.5591,8.7757c-3.4809,1.6699-6.849,3.494-9.3228,6.585c-0.6829,0.8533-1.519,1.5344-2.4195,2.132
			c-3.9282,2.6073-8.0316,1.6859-10.4835-2.3391c-0.0832-0.1366-0.1603-0.2769-0.2416-0.4146
			c-1.5633-2.6455-1.5454-2.6218,0.959-4.5146c2.0308-1.5349,4.1589-2.705,6.8304-2.3787c0.249,0.0304,0.631,0.1384,0.7263-0.2089
			c0.0462-0.1683-0.1717-0.4125-0.2792-0.6175c-0.0362-0.0692-0.1072-0.1192-0.1514-0.1852
			c-1.0798-1.6161-2.3238-2.4897-4.3513-1.3932c-0.8484,0.4589-1.9079,0.5384-2.9203,0.5804
			c-1.7542,0.0728-3.162-0.5722-4.0702-2.0518c-0.559-0.9108-1.1617-0.9346-1.995-0.5245
			c-0.8965,0.4412-1.8066,0.8555-2.7196,1.2619c-2.6415,1.1759-4.3261,0.62-5.6136-1.9889c-0.409-0.8286-0.7832-0.938-1.5472-0.5486
			c-1.1377,0.5799-2.2732,1.1764-3.5244,1.5007c-1.9327,0.5009-3.5132-0.0502-4.5195-1.7857
			c-0.5626-0.9702-1.0342-1.2387-2.0099-0.5144c-0.6623,0.4916-1.4649,0.8264-2.2471,1.118
			c-2.1227,0.7915-4.1088,0.5387-5.7935-1.0497c-0.6032-0.5687-1.0899-0.7525-1.8845-0.3283
			c-1.8607,0.9932-3.8856,1.1401-5.8118,0.3622c-3.5828-1.4468-7.2096-1.042-10.8761-0.6259
			c-2.3795,0.2701-4.7697,0.4809-7.1611,0.5993c-1.6635,0.0823-2.4213-0.5792-2.8113-2.1828
			c-0.3458-1.4221-0.3496-2.8504,0.0696-4.2651c1.4897-5.0278,3.3996-9.9062,5.3073-14.783
			c0.916-2.3415,3.6115-3.1743,5.7576-1.8878c0.6364,0.3815,0.2425,0.8442,0.0895,1.2515
			c-1.5461,4.117-3.1105,8.2271-4.6658,12.3406c-0.3535,0.9348-0.7145,1.8679-1.0284,2.8162
			c-0.1617,0.4884-0.2719,1.0041-0.3238,1.5157c-0.048,0.4729-0.0666,1.0382,0.3623,1.3298c0.4774,0.3245,0.9094-0.109,1.305-0.3393
			c1.3085-0.7617,2.013-2.0183,2.6402-3.3284c2.0701-4.3248,4.2044-8.6097,5.4549-13.2879c0.662-2.4767,3.4713-3.4515,5.7574-2.3149
			c0.7565,0.3761,0.3726,0.8778,0.2,1.311c-1.2582,3.1569-2.5449,6.3024-3.8219,9.4518c-1.0067,2.4825-2.0147,4.9644-3.0163,7.4489
			c-0.1451,0.3598-0.4329,0.756-0.0785,1.1126c0.37,0.3723,0.7482-0.0031,1.1031-0.1197c0.8268-0.2716,1.4431-0.7967,1.9172-1.5425
			c2.6819-4.2184,5.351-8.4436,7.752-12.8316c0.2684-0.4905,0.559-0.9707,0.867-1.4374c2.1097-3.197,4.0866-3.9961,7.7605-2.8988
			c2.021,0.6036,4.0777,0.7511,6.1431,0.9325c1.3321,0.117,1.4395,0.2176,1.1012,1.5401c-0.6505,2.5434-1.8769,4.8368-3.1335,7.1153
			c-1.7037,3.089-3.3535,6.198-3.6945,9.8012C279.7126,102.7781,279.5773,103.1672,279.8524,103.6929z M270.6407,102.2061
			c0.6872,0.1297,1.1812-0.2146,1.5447-0.8983c0.955-1.7957,1.9636-3.5628,2.9165-5.3595c1.3081-2.4662,2.5703-4.9568,3.8837-7.4201
			c0.363-0.6809,0.2106-1.2437-0.2453-1.7485c-0.5276-0.5843-1.1098-0.1983-1.6457,0.0274
			c-0.4667,0.1966-0.7066,0.629-0.9199,1.0636c-2.1434,4.3682-4.2938,8.733-6.4219,13.1087
			C269.2329,102.0484,269.3464,102.187,270.6407,102.2061z M313.6209,118.9759c0.7608-0.0553,1.7182-0.1211,2.5711-0.612
			c0.7489-0.4311,1.5974-2.3161,1.205-2.912c-0.5493-0.8343-1.3716-0.0147-2.0631-0.1468
			c-0.1069-0.0204-0.2306,0.0485-0.3467,0.0756c-1.1018,0.2567-2.1631,0.562-2.708,1.7148
			C311.5904,118.5526,311.8371,118.9702,313.6209,118.9759z"/>
		<path d="M362.3655,283.1781c7.0392-0.0001,14.0783-0.0015,21.1175,0.0008c1.7603,0.0005,1.7654,0.0059,1.7666,1.7061
			c0.003,4.1995,0.0057,8.399-0.0022,12.5985c-0.0025,1.3633-0.1409,1.4503-1.3336,0.8347
			c-4.0505-2.0906-8.1031-4.1776-12.1355-6.3026c-0.778-0.41-1.1723-0.5213-1.2601,0.5835c-0.0664,0.835-0.1711,1.6667-0.1703,2.507
			c0.0135,13.3183-0.0061,26.6368,0.0555,39.9549c0.0248,5.3557,0.2187,10.702,1.922,15.8763
			c0.6494,1.9729,0.4422,2.0664-1.6943,2.173c-3.9575,0.1974-7.7939-0.6357-11.6552-1.2714
			c-2.3286-0.3834-4.6642-0.6824-7.0297-0.6893c-0.2677-0.0008-0.6031,0.0919-0.7762-0.1792
			c-0.1925-0.3016,0.0827-0.526,0.2562-0.7283c3.365-3.9255,4.067-8.6165,3.6661-13.5196
			c-0.3492-4.2719-0.4188-8.5372-0.4042-12.8159c0.0274-8.0386,0.0011-16.0774-0.039-24.116
			c-0.0114-2.2764-0.1222-4.5536-0.2365-6.8279c-0.0765-1.5216-0.2581-1.6229-1.6183-1.0342
			c-3.9264,1.6992-7.8473,3.4111-11.7682,5.1229c-1.6249,0.7094-1.685,0.6749-1.686-1.1428
			c-0.0022-3.7195-0.0045-7.4391,0.0015-11.1587c0.0024-1.5056,0.0623-1.5688,1.5463-1.5697
			C348.0471,283.1757,355.2063,283.1783,362.3655,283.1781z"/>
		<path d="M37.5396,177.077c-0.1569-0.4406,0.0803-0.6443,0.244-0.8531c3.0175-3.8483,3.7233-8.2168,2.8989-12.9212
			c-0.4212-2.4037-1.078-4.753-1.6813-7.1153c-0.2234-0.875-0.6741-1.1956-1.5268-1.0952
			c-2.8458,0.3351-5.1754-1.0878-7.5872-2.2341c-0.6168-0.2932-0.494-0.7066-0.2672-1.1895
			c0.5606-1.1939,1.1075-2.3943,1.6453-3.5986c0.8226-1.842,2.0777-3.2146,4.0771-3.778c0.8816-0.2484,1.2001-0.7209,0.9917-1.6814
			c-0.3299-1.5201-0.5747-3.065-0.7424-4.6116c-0.1105-1.0188-0.6095-1.2479-1.5191-1.1662
			c-1.0891,0.0978-2.1285,0.3741-3.1351,0.7616c-4.3403,1.6708-7.8633,4.3789-10.416,8.2986
			c-0.5287,0.8118-0.8869,1.699-1.1446,2.629c-0.064,0.231-0.1015,0.4703-0.1781,0.6967c-0.3743,1.1074-1.2966,1.8864-2.2352,2.1938
			c-0.7443,0.2437-0.8319-1.0506-1.2911-1.6016c-1.489-1.7865-1.2927-3.3589,0.0382-5.3433
			c2.7792-4.1437,6.2797-7.2715,10.7535-9.4483c4.0634-1.9771,8.1897-3.8142,12.2654-5.7608
			c0.9105-0.4348,1.0664-0.0795,1.1835,0.7389c0.5206,3.6378,1.1022,7.2667,1.6438,10.9016
			c0.2383,1.5995,1.0653,2.7488,2.5568,3.3576c1.8495,0.7549,3.7295,1.4347,5.5827,2.1807c0.76,0.3059,0.8566,0.1271,0.7457-0.6487
			c-0.7066-4.9433-1.3846-9.8887-2.3476-14.7928c-0.8417-4.286,0.2738-8.0746,3.1841-11.3235c1.0302-1.15,3.1495-1.572,4.525-0.9194
			c0.8855,0.4201,0.0825,0.8246-0.121,1.0772c-1.8348,2.2776-2.6938,4.8507-2.6308,7.7777c0.0329,1.5278,0.166,3.0334,0.5025,4.5173
			c1.5047,6.6366,2.2239,13.3947,3.1225,20.1245c0.187,1.4005,0.6396,2.7218,1.0416,4.058
			c0.8219,2.7318-0.9104,4.5614-2.2834,6.4937c-0.3863,0.5436-0.6637-0.1052-0.8908-0.3656
			c-1.7141-1.9657-2.595-4.3911-3.657-6.7132c-0.8479-1.8538-1.6687-3.7205-2.4652-5.5968
			c-0.2901-0.6835-0.5503-0.7176-1.1103-0.2327c-2.5088,2.1721-3.2885,4.8932-2.7544,8.1006
			c0.3817,2.2923,1.4831,4.4004,1.6707,6.7382c0.3461,4.3132-1.2853,7.9245-4.1361,10.9907
			C40.9225,176.9799,39.1232,176.8651,37.5396,177.077z"/>
		<path d="M370.7561,85.1445c5.6727,0.185,10.3136,2.0308,14.4313,5.108c3.0681,2.2928,4.2376,7.2236,2.6147,11.0462
			c-1.693,3.9879-3.8163,7.7701-7.1346,10.6915c-2.9358,2.5847-6.3853,3.9191-10.321,3.7475
			c-1.9649-0.0857-3.5742-1.1753-5.0108-2.3835c-0.9785-0.8229-1.4624-0.6087-2.1902,0.2647
			c-2.0465,2.4559-4.1411,4.8721-6.3632,7.1774c-0.766,0.7946-1.5037,1.0137-2.5591,0.7196
			c-3.0394-0.8473-3.0707-0.8337-1.2575-3.341c2.9285-4.0496,5.8809-8.0821,8.8427-12.1076
			c1.4869-2.0209,1.4633-2.7409-0.3058-4.5516c-1.5276-1.5635-2.2887-3.4139-2.2888-5.6144
			c-0.0006-5.7433,3.4436-9.7286,9.1345-10.4761C369.2965,85.3007,370.2428,85.0916,370.7561,85.1445z M371.2594,111.1248
			c0.8451,0.0136,1.6588-0.003,2.3717-0.6035c2.511-2.1151,4.852-4.3976,6.9759-6.9024c0.883-1.0414,1.6618-2.1492,2.206-3.4076
			c1.1955-2.7646,0.6839-5.4297-1.3912-7.623c-3.1825-3.3638-7.0226-4.195-11.3953-3.0266
			c-4.2304,1.1304-6.2942,5.3464-4.6921,9.4232c0.3943,1.0033,0.8229,1.0017,1.5495,0.4063c1.2534-1.027,2.0813-2.415,3.1178-3.6256
			c1.8441-2.1537,4.0923-2.6446,6.6679-1.5002c0.7713,0.3427,0.847,0.6956,0.3487,1.3347
			c-1.2035,1.5434-2.3763,3.1107-3.5612,4.6686c-1.2322,1.62-1.5087,1.7695,0.7154,2.0185
			c1.0255,0.1148,1.6229,0.5846,1.6659,1.6456c0.0438,1.0812-0.9127,0.9869-1.5187,1.1814
			c-2.0258,0.6502-3.9698,1.4528-5.7839,2.5769c-0.8163,0.5059-0.8848,1.07-0.5047,1.9107
			C368.6942,111.0687,369.962,111.0925,371.2594,111.1248z"/>
		<path d="M123.5673,411.594c-6.1144,0-12.2319,0.1215-18.3425-0.0313c-7.3465-0.1837-14.6882-0.5784-22.03-0.9242
			c-5.5454-0.2612-11.0873-0.5971-16.6319-0.8773c-0.7054-0.0357-1.3213-0.2902-1.9447-0.5538
			c-0.2787-0.1179-0.7071-0.2025-0.6064-0.6111c0.0881-0.3573,0.4948-0.3542,0.8122-0.3656
			c1.8362-0.0657,3.6727-0.1168,5.5089-0.1928c6.148-0.2545,12.3012-0.3792,18.4513-0.5851
			c9.1437-0.3062,18.2867-0.6329,27.4295-0.9635c4.8301-0.1747,9.6596-0.368,14.4885-0.5748
			c0.6277-0.0269,0.9906,0.1691,1.1194,0.7938c0.1774,0.8607,0.4119,1.7111,0.5543,2.577c0.2778,1.6884-0.3845,2.5446-2.0912,2.5866
			c-2.2378,0.0551-4.478,0.0135-6.7171,0.0135C123.5675,411.7884,123.5674,411.6912,123.5673,411.594z"/>
		<path d="M372.8817,406.0837c7.8247,0.2441,15.6497,0.4828,23.4742,0.7343c4.2708,0.1373,8.5408,0.2991,12.8114,0.4448
			c7.3846,0.252,14.7712,0.4595,22.153,0.7763c1.9962,0.0857,3.9921,0.1146,5.987,0.1964c0.4853,0.0199,1.151-0.0862,1.1868,0.6765
			c0.0399,0.8511-0.653,0.7687-1.1948,0.7874c-5.2293,0.1805-10.4593,0.3401-15.6884,0.5247
			c-8.9808,0.3171-17.9614,0.6437-26.9417,0.9745c-6.1461,0.2263-12.2917,0.4642-18.4374,0.7015
			c-1.7157,0.0663-3.4323,0.1253-5.1456,0.2336c-0.8866,0.0561-1.3405-0.2656-1.4223-1.1742
			c-0.1217-1.3518-0.287-2.7001-0.4556-4.0471c-0.0789-0.6301,0.1888-0.8906,0.7964-0.8867
			c0.9593,0.0062,1.9186,0.0016,2.8779,0.0016C372.8823,406.0461,372.882,406.0649,372.8817,406.0837z"/>
		<path d="M292.4866,387.3134c-1.1664-0.0982-1.929-0.9566-2.5909-1.9254c-0.6132-0.8974,0.114-1.5182,0.5786-2.1066
			c0.9605-1.2164,2.0207-2.3536,3.0095-3.5486c0.4549-0.5497,0.8167-0.4709,1.2633-0.0026c0.4383,0.4595,0.9227,0.876,1.3981,1.2989
			c1.6451,1.4632,1.6447,3.4577-0.0292,4.9279C295.1198,386.8321,293.9108,387.1955,292.4866,387.3134z"/>
		<path d="M307.3319,84.0573c-1.1535-0.3272-1.965-1.1917-2.5416-2.2537c-0.4436-0.8171,0.1411-1.4484,0.6659-1.9962
			c0.7153-0.7467,1.4872-1.4389,2.2217-2.1677c0.4308-0.4273,0.8123-0.4093,1.2147,0.0366c0.7729,0.8566,1.5617,1.6988,2.337,2.5533
			c0.2225,0.2452,0.4232,0.5512,0.1479,0.8479c-1.056,1.138-2.1244,2.2693-3.5968,2.8911
			C307.6737,84.0137,307.5486,84.016,307.3319,84.0573z"/>
	</g>
	<g id="XMLID_2_">
	</g>
	<g id="XMLID_3_">
	</g>
	<g id="XMLID_4_">
	</g>
	<g id="XMLID_5_">
	</g>
	<g id="XMLID_6_">
	</g>
	<g id="XMLID_7_">
	</g>
</g>
</svg>
