<?xml version="1.0" encoding="utf-8"?>
<!-- Generator: Adobe Illustrator 19.0.0, SVG Export Plug-In . SVG Version: 6.00 Build 0)  -->
<svg version="1.1" xmlns="http://www.w3.org/2000/svg" xmlns:xlink="http://www.w3.org/1999/xlink" x="0px" y="0px"
	 viewBox="0 0 500 500" style="enable-background:new 0 0 500 500;" xml:space="preserve">
<g id="Layer_2">
	<rect style="fill:none;" width="500" height="500"/>
</g>
<g id="Layer_1">
	<path style="fill:#F57E00;" d="M179.6396,483.4865c8.7426-0.0734,17.4861-0.0221,26.2271-0.0205l-0.0037-0.0912
		c8.9116,0.0025,17.8232,0.005,26.7348,0.0075c4.1115-0.0125,8.2229-0.0349,12.3344-0.0354
		c9.7058-0.0011,19.4116,0.0081,29.1174,0.0132c20.9379-0.0051,41.8775-0.3105,62.8136-0.0111
		c0.5963,0.0085,0.679-0.3341,0.9304,0.0249c0.6685,0,1.3482,0,2.0056,0c0.9461,0,1.8483-0.4228,2.0871-1.6506
		c0.6682-3.4362-0.3081-6.1417-3.7213-6.3867c-2.7745-0.1991-5.5548-0.2966-8.331-0.4703
		c-8.7357-0.5464-17.4712-1.095-26.2056-1.6669c-8.0326-0.526-16.0627-1.1-24.0955-1.6213
		c-5.5889-0.3628-11.1821-0.6451-16.7705-1.0163c-2.9384-0.1953-4.5098-1.7164-4.9679-4.6741
		c-0.1204-0.7775-0.1945-1.5711-0.2162-2.3598c-0.1035-3.7504-0.1458-7.5032-0.275-11.2522
		c-0.4521-13.1179-0.8789-26.2373-1.5034-39.3471c-0.0374-0.7855-0.0456-1.575,0.0945-2.3666
		c0.4403-2.4871,2.0739-3.7382,3.8758-4.8246c17.3597-10.4677,34.7208-20.9323,52.0806-31.3995
		c7.0576-4.2554,14.1133-8.5147,21.1693-12.7733c7.0629-4.2628,14.1272-8.5225,21.187-12.7917
		c8.6979-5.2596,17.3921-10.5268,26.087-15.7925c7.8258-4.7394,15.6457-9.4914,23.4844-14.2035
		c0.6685-0.4019,0.6631-0.5985,0.1598-1.1756c-4.4887-5.1477-8.9439-10.3323-13.4251-15.4883
		c-5.0808-5.8457-10.1782-11.6732-15.2686-17.5083c-0.1037-0.1189-0.228-0.2205-0.312-0.3546
		c-0.5211-0.8313,0.3177-1.0374,0.5742-1.4932c0.3303-0.5871,0.4908-0.0155,0.7186,0.1861
		c1.3785,1.2205,2.7563,2.4422,4.1526,3.6368c3.0042,2.5704,6.0186,5.1257,9.0305,7.6847c1.55,1.3169,3.1035,2.6285,4.6714,3.956
		c0.2252-0.5305-0.0916-0.7559-0.2962-1.0369c-4.2024-5.7704-8.6936-11.2229-13.8018-16.0099
		c-2.1758-2.0389-4.4727-3.7149-7.4304-3.7849c-0.5166,0.0024-1.0332,0.0048-1.5498,0.0072
		c-1.7645,0.1839-3.504,0.476-5.2061,1.0845c-2.4501,0.8759-4.4005,3.0006-4.3758,6.4096c0.0206,2.8375,1.2612,4.9409,2.847,6.8465
		c3.9477,4.744,8.2591,9.0874,12.1487,13.9019c1.7957,2.2227,3.756,4.2771,5.638,6.4118c1.8729,2.1244,1.869,2.1225-0.57,3.5977
		c-4.6261,2.798-9.252,5.5963-13.8737,8.4033c-7.677,4.6627-15.3489,9.3363-23.0265,13.9977
		c-4.5641,2.771-9.1378,5.5221-13.7026,8.2916c-7.523,4.5643-15.0404,9.1403-22.5638,13.7038
		c-4.5949,2.7871-9.2014,5.5502-13.7942,8.3419c-7.3681,4.4788-14.7234,8.9841-22.0952,13.4553
		c-5.0492,3.0624-10.2128,5.9046-15.1412,9.1937c-3.0344,2.0251-5.7689,1.9907-8.7267,0.1903
		c-4.6123-2.8073-9.246-5.57-13.8717-8.3493c-8.6449-5.194-17.2907-10.3861-25.9359-15.5794
		c-6.522-3.9179-13.0435-7.8365-19.5655-11.7544c-7.4867-4.4976-14.9734-8.9954-22.4605-13.4922
		c-7.6785-4.6117-15.3634-9.2102-23.0347-13.837c-7.2535-4.3748-14.494-8.7768-21.7379-13.1718
		c-1.5289-0.9276-3.0474-1.8768-4.6137-2.8424c0.7415-0.9153,1.3879-1.7673,2.0843-2.5641
		c4.3686-4.9986,8.8096-9.9156,13.1241-14.9759c4.4407-5.2084,9.0424-10.241,13.504-15.4299
		c5.957-6.928,12.0307-13.7292,18.0541-20.5851c0.1302-0.1482,0.2673-0.2902,0.3864-0.4492
		c0.2086-0.2784,0.1117-0.4987-0.1754-0.4949c-0.5971,0.008-1.209-0.2305-1.7453,0.408c-1.5396,1.8329-3.1294,3.606-4.8302,5.2619
		c-2.5986,2.53-4.7915,5.5296-7.3876,8.0839c-2.9992,2.9507-5.6317,6.3442-8.5769,9.3772c-2.3508,2.421-4.4212,5.1893-6.7987,7.5732
		c-2.294,2.3003-4.3694,4.8347-6.6005,7.1931c-3.0731,3.2485-6.1249,6.5169-9.0388,9.9462
		c-0.0761,0.0894-0.1681,0.1628-0.257,0.2372c-1.5128,1.264-2.8578,2.7328-3.9415,4.4578c-0.941,1.4978-0.7682,2.3496,0.3195,3.6635
		c1.0472,1.2651,2.4287,1.9088,3.7212,2.7114c5.5765,3.4631,11.1722,6.8867,16.7562,10.3344
		c4.3066,2.6592,8.6076,5.33,12.9084,8.0011c5.0021,3.1068,10.0073,6.2073,15,9.3331c4.6566,2.9154,9.3004,5.8567,13.9419,8.8026
		c0.2486,0.1579,0.8088,0.1377,0.476,0.8265c-0.295,0.6105-0.6399,0.3867-0.9837,0.1793
		c-5.714-3.4473-11.4182-6.9153-17.1362-10.354c-7.7768-4.6766-15.5631-9.3335-23.3463-13.9968
		c-7.4556-4.4672-14.913-8.9307-22.3684-13.3984c-1.5364-0.9206-3.0676-1.8521-4.6641-2.8166
		c2.0987-2.5038,4.0992-4.9268,6.2449-7.2132c4.3607-4.6469,8.5952-9.4435,12.882-14.1781
		c4.2603-4.7054,8.5209-9.4102,12.7812-14.1156c4.287-4.7348,8.5735-9.4702,12.8606-14.205
		c4.234-4.6762,8.4686-9.3518,12.7028-14.0277c4.2341-4.6757,8.4686-9.351,12.7023-14.0272
		c4.3397-4.7933,8.6783-9.5878,13.0179-14.3813c4.26-4.7056,8.5233-9.4076,12.7802-14.1167
		c5.0775-5.6169,10.1566-11.2321,15.2228-16.8619c7.6282-8.4767,15.2454-16.966,22.8692-25.4479
		c0.3162-0.3518,0.6461-0.6888,0.9776-1.0224c1.2408-1.2482,2.0667-1.3303,3.379-0.2222c0.4086,0.3451,0.6896,0.8811,1.012,1.3072
		c-2.9314,2.4408-5.8486,4.7764-8.475,7.5249c-2.696,2.8214-4.8723,6.0596-6.325,9.9464c0.4786,0.095,0.6969-0.2147,0.9641-0.4217
		c3.8046-2.9484,7.3065-6.303,10.6033-9.9368c0.5493-0.6055,1.1544-1.1486,1.996-1.1335c0.39-0.2786,0.78-0.2787,1.17,0
		c0.349-0.0225,0.5937,0.2301,0.8865,0.3815c1.6704,0.8632,2.8778,2.4155,4.191,3.741c1.7103,1.7261,3.4647,3.4093,5.1373,5.1904
		c0.7378,0.7857,1.4852,1.5832,2.2595,2.336c1.6214,1.5761,3.2546,3.1372,4.862,4.731c1.0437,1.0349,2.0345,2.1369,3.0771,3.1732
		c2.2558,2.2419,4.5372,4.451,6.7933,6.6924c1.6134,1.6029,3.192,3.2497,4.8056,4.8524c1.576,1.5653,3.1869,3.0864,4.7636,4.6509
		c1.6134,1.6009,3.1949,3.2424,4.8067,4.8453c1.601,1.5921,3.2304,3.148,4.8324,4.7388c1.5892,1.5781,3.1466,3.1971,4.7419,4.7673
		c2.1516,2.1178,4.3432,4.1841,6.4851,6.314c1.7544,1.7446,3.451,3.5626,5.1915,5.3252c2.7569,2.792,5.5251,5.57,8.2961,8.3443
		c2.208,2.2106,4.4274,4.407,6.6561,6.6239c-0.2094,0.2592-0.3307,0.472-0.5001,0.6103c-4.531,3.6985-9.0783,7.3743-13.6379,11.0253
		c-4.2995,3.4428-8.5856,6.9111-12.9068,10.3222c-6.4085,5.0587-12.7245,10.2655-19.0874,15.3975
		c-4.1478,3.3453-8.3045,6.6768-12.4654,10.0016c-5.3498,4.2748-10.696,8.5558-16.0743,12.7852
		c-0.8781,0.6906-1.6117,1.7857-2.8722,1.6919c-0.4675,0.1674-0.9341,0.1966-1.399-0.0119
		c-1.0976,0.1414-1.9938-0.423-2.8375-1.0846c-3.458-2.7119-6.8907-5.4647-10.3539-8.1682
		c-8.0779-6.3059-16.8645-11.2397-25.4539-16.5534c-3.2857-2.0326-6.5718-4.073-9.9303-5.9453
		c-2.6307-1.4665-5.0652-3.4411-8.0151-4.1311c-0.443,0.0049-0.886,0.0098-1.329,0.0147l-0.0005,0.0001
		c-1.457,0.2597-2.3678,1.1889-2.7194,2.8034c-0.0033,1.0822-0.0067,2.1646-0.01,3.2469c0.1121,0.9276,0.1761,1.8664,0.3448,2.7807
		c0.6653,3.6042,2.0538,6.6342,4.924,8.7572c4.3724,3.234,8.6389,6.6494,12.9391,10.0061
		c4.9793,3.8868,9.9463,7.7935,14.9188,11.6913c2.4057,1.8859,4.7731,3.8379,7.2293,5.6367c2.089,1.5299,4.002,3.3675,6.3369,4.4916
		c0.6307,0.3036,0.7248-0.0026,1.0174-0.3583c0.4285-0.521,0.0338-0.6483-0.2577-0.9179c-2.7604-2.554-5.5019-5.1338-8.2597-7.6913
		c-3.1834-2.9523-6.3812-5.8849-9.5656-8.8359c-1.1389-1.0555-21.744-17.8546-22.8677-18.9307
		c-0.2147-0.2056,1.2892-2.339,1.5833-2.75c0.2269-0.3172,11.6223,10.0623,11.9215,10.2549
		c0.1836,0.1182,8.1208,6.9298,8.2712,7.0837c1.0558,1.0801,6.4718,5.6393,7.6406,6.5353c4.3185,3.3102,5.929,4.6533,10.25,7.9595
		c4.3639,3.3389,5.8691,5.7299,10.1815,9.1563c1.5289,1.2149,3.1706,2.3269,5.1892,2.1808c1.7936-0.1299,3.3931-0.9055,4.8228-2.05
		c6.8652-5.4953,13.6941-11.0476,20.5537-16.5518c11.8676-9.5226,23.7464-19.0273,35.6237-28.5345
		c12.6268-10.1072,25.2564-20.2101,37.8867-30.3118c9.4402-7.5504,18.8976-15.074,28.3125-22.664
		c1.6845-1.3581,3.6217-2.4292,4.7445-4.5462c0-0.4146,0-0.8293,0-1.2439c-0.489-0.9077-0.9208-1.8623-1.4757-2.7158
		c-5.7123-8.7868-11.4443-17.5574-17.1713-26.3322c-6.7509-10.3436-13.5024-20.6868-20.2533-31.0304
		c-5.727-8.7747-11.4539-17.5495-17.1805-26.3245c-6.7468-10.3382-13.4929-20.6768-20.2401-31.0146
		c-5.7311-8.7811-11.4643-17.5605-17.1949-26.342c-5.9221-9.0749-11.8321-18.1598-17.7662-27.2248
		c-5.6525-8.6348-11.3485-17.2336-16.9813-25.8845c-1.4028-2.1544-2.9945-4.1619-4.1439-6.5209h-0.2228
		c-0.685,0.3405-1.0382,1.0495-1.4561,1.6791c-7.172,10.8049-14.3806,21.5789-21.5622,32.3757
		c-23.9694,36.0349-48.0555,71.9714-72.0134,108.0161c-13.179,19.8279-26.415,39.608-39.6315,59.4043
		c-1.106,1.6566-1.0742,1.8542,0.4244,3.0452c7.154,5.6855,14.3164,11.3575,21.4829,17.0231
		c0.1841,0.1455,0.4893,0.2212,0.4177,0.7147c-0.8853-0.43-1.7379-0.8159-2.5783-1.2486c-2.0916-1.0772-4.18-2.1625-6.2833-3.2114
		c-0.7766-0.3874-1.2874-0.14-1.6095,0.699c-0.2951,0.7683,0.2001,1.1608,0.631,1.5527c2.1646,1.9686,4.3626,3.89,6.5478,5.8293
		c3.5837,3.1804,7.1497,6.3864,10.7614,9.527l3.3067,4.1829c0.3111,0.3279,0.4235,0.6794,0.1195,1.0919
		c-0.1187,0.1611-0.2616,0.298-0.3772,0.4602c-2.0229,2.841-4.4518,5.2533-6.6584,7.9005
		c-3.779,4.5334-7.6506,8.9729-11.4834,13.4518c-3.4982,4.0879-6.9607,8.2156-10.4864,12.2719
		c-4.7203,5.4307-9.3279,10.9829-14.0793,16.3789c-1.8533,2.1047-3.5417,4.3882-5.4778,6.403
		c-0.2806,0.292-0.425,0.6783-0.6351,1.0189v0.2505c0.2237,0.5068,0.5983,0.8183,1.0257,1.1022
		c8.5055,5.649,17.2793,10.7504,25.9461,16.0696c5.5716,3.4196,11.1632,6.7982,16.7398,10.2073
		c5.6419,3.4491,11.2837,6.8991,16.9332,10.3322c6.6947,4.0681,13.381,8.1542,20.0763,12.2213
		c6.8912,4.186,13.7794,8.3786,20.6671,12.5721c4.9618,3.0209,9.9303,6.0281,14.8934,9.0462
		c6.0733,3.6931,12.1482,7.383,18.2237,11.0715c3.5278,2.1418,7.0765,4.2408,10.567,6.4587
		c2.3311,1.4811,3.5311,3.7178,3.4784,6.776c-0.0359,2.0845-0.1768,4.1733-0.1779,6.2465
		c-0.0031,5.3417-0.2663,10.675-0.271,16.0141c-0.0096,11.1035-0.0028,22.2071-0.003,33.3105c0,0.3757-0.0148,0.7522-0.0002,1.1269
		c0.0309,0.7904-0.2997,1.0811-0.9933,1.1511c-1.4423,0.1455-2.8886,0.1879-4.3309,0.3022
		c-3.3284,0.2636-6.6594,0.4714-9.9901,0.6893c-2.8503,0.1864-5.7007,0.3745-8.5504,0.5694
		c-3.3303,0.2278-6.6596,0.473-9.9909,0.6852c-2.8504,0.1814-5.6991,0.3954-8.5497,0.5766
		c-3.257,0.2071-6.5119,0.4622-9.7693,0.6685c-2.8876,0.1828-5.7767,0.3605-8.6607,0.5858
		c-4.2906,0.3352-8.5859,0.5767-12.8773,0.8914c-2.996,0.2197-5.9992,0.3748-8.9935,0.6094
		c-1.5508,0.1216-3.1214-0.0097-4.6589,0.3527c-0.5945,0.1401-1.594,0.1686-2.3813,0.0736
		c-5.8784-0.7097-4.9136,7.6069-1.6638,7.6069 M131.394,226.3807c-0.9104-0.7533-1.4639-1.8763-2.1628-2.8445
		c-1.613-2.235-3.1719-4.5196-4.8011-6.7394c-0.4229-0.5762-0.3836-0.8959,0.0286-1.449
		c12.0801-16.2143,24.1428-32.4451,36.2075-48.674c12.7071-17.0931,25.4125-34.1878,38.1202-51.2802
		c13.7549-18.5009,27.5118-36.9998,41.2676-55.4998c2.356-3.1685,4.7225-6.3274,7.0564-9.5164
		c0.4457-0.609,0.6697-0.758,1.1897-0.0327c16.185,22.5724,32.3911,45.1257,48.594,67.682
		c14.8274,20.6416,29.6552,41.283,44.4822,61.9249c7.53,10.4831,15.0589,20.9672,22.5879,31.4512
		c0.1627,0.2265,0.321,0.457,0.4792,0.6825c-0.0951,0.4332-0.4447,0.5563-0.7002,0.7651
		c-6.1794,5.0506-12.3641,10.0927-18.5488,15.1349c-3.0322,2.4722-6.0753,4.9276-9.0907,7.4253
		c-0.5222,0.4325-0.8266,0.5088-1.372-0.0306c-20.1387-19.9179-40.2962-39.8116-60.4514-59.7083
		c-9.4503-9.3291-18.9139-18.6415-28.3304-28.0136c-0.8273-0.8234-1.2107-0.6546-1.92,0.0899
		c-11.7413,12.3242-23.5056,24.6206-35.2703,36.9164c-17.5798,18.3734-35.164,36.7415-52.7462,55.1119
		c-1.0598,1.1072-2.1384,2.1928-3.1696,3.3327c-0.3896,0.4307-0.6363,0.4796-1.1017,0.0934
		C144.9685,237.5814,138.1748,231.9909,131.394,226.3807z"/>
	<path style="fill:#F57E00;" d="M305.3617,481.2645c-18.0976-0.0077-36.1951-0.0061-54.2927-0.0066h-0.016l0.0055,0.1291
		c18.4811,0,36.9623,0,55.4434,0C306.1358,481.1365,305.7411,481.2646,305.3617,481.2645z"/>
	<path style="fill:#F57E00;" d="M250.9935,481.2578c-11.9899-0.0002-23.9798,0.0006-35.9695,0h-0.0309l0.0078,0.1291
		c12.0192,0,24.0384,0,36.0575,0L250.9935,481.2578z"/>
	<polygon style="fill:#F57E00;" points="250.9935,481.2578 251.053,481.2578 251.0484,481.1518 250.9925,481.2344 	"/>
	<path style="fill:#F57E00;" d="M214.9365,481.2578c-7.6517-0.0001-15.3035,0.0004-22.9535,0.0002
		c-0.0832,0-0.1663-0.0004-0.2495-0.0004l0.0045,0.1293c7.7543,0,15.5086,0,23.2629,0L214.9365,481.2578z"/>
	<polygon style="fill:#F57E00;" points="214.9365,481.2578 214.9931,481.2578 214.9879,481.174 214.936,481.2506 	"/>
	<path style="fill:#F57E00;" d="M289.1284,126.0033c0.7022,1.0327,1.4375,2.0295,2.1696,3.0289
		c4.9329,6.7342,9.8694,13.4639,14.8018,20.1986c3.888,5.3087,7.7586,10.6381,11.6613,15.929
		c3.1477,4.2673,6.2615,8.5745,9.4377,12.8091c3.8018,5.0689,7.4747,10.2956,11.2131,15.4426
		c1.2486,1.7191,1.2445,1.6776,2.4974,0.2679c0.4157-0.4678,0.3749-0.6974-0.0255-1.2203
		c-1.7319-2.2617-3.4149-4.5847-5.1207-6.8793c-5.449-7.3298-10.8956-14.6626-16.352-21.9834
		c-4.4734-6.0019-8.9658-11.9807-13.4382-17.9837c-5.2294-7.019-10.4476-14.0519-15.6642-21.0865
		c-0.1794-0.242-0.2731-0.602-0.7256-0.4591c-0.2462,0.2999-0.6321,0.6426-0.882,1.1104
		C288.455,125.6379,288.9615,125.7578,289.1284,126.0033z"/>
	<path style="fill:#F57E00;" d="M229.5809,307.3249c-0.4057-0.004-0.8114-0.0079-1.2171-0.0119
		C228.7683,307.5133,229.1742,307.4931,229.5809,307.3249z"/>
	<path style="fill:#F57E00;" d="M228.3528,168.7833c0.3393,0,0.6785,0,1.0178,0
		C229.0313,168.599,228.6921,168.599,228.3528,168.7833z"/>
	<path style="fill:#F57E00;" d="M344.145,219.8871c0.2393-0.4146,0.2392-0.8293,0-1.2439
		C344.2354,219.0578,344.2354,219.4725,344.145,219.8871z"/>
	<path style="fill:#F57E00;" d="M113.6198,193.8593c0.4067,0.6466,0.6228,0.1495,0.867-0.2451
		c6.0826-9.8336,12.1671-19.665,18.2511-29.4972c0.12-0.1939,0.2363-0.3916,0.4191-0.6951
		c-0.3233-0.3458-0.6374-0.675-0.9454-1.0131c-0.3635-0.3991-0.525,0.0911-0.7086,0.3011c-1.9831,2.269-3.8255,4.72-5.5652,7.2987
		c-4.7377,7.0226-8.648,14.8289-12.7507,22.4543C112.6936,193.3798,113.368,193.4588,113.6198,193.8593z"/>
	<path style="fill:#F57E00;" d="M187.5479,82.8503c0.3409,0.7152,0.6628,0.3929,1.0267-0.1496
		c6.426-9.5814,12.8642-19.1495,19.2987-28.7216c0.1504-0.2237,0.2888-0.4606,0.4984-0.7964
		c-0.4319-0.4737-0.8231-0.9893-1.282-1.3779c-0.3587-0.3037-0.4845,0.2937-0.6449,0.5298
		c-6.4718,9.5321-12.9203,19.0903-19.4069,28.6058C186.1599,82.2286,187.2791,82.2863,187.5479,82.8503z"/>
</g>
</svg>
